SindeFekadeSelassie-Regular.ufo
<glyph name="exclam" format="2">
  <advance width="266"/>
  <unicode hex="0021"/>
  <outline>
    <contour>
      <point x="84" y="5" type="qcurve" smooth="yes"/>
      <point x="43" y="3"/>
      <point x="43" y="42" type="qcurve" smooth="yes"/>
      <point x="43" y="62"/>
      <point x="71" y="94"/>
      <point x="94" y="95" type="qcurve" smooth="yes"/>
      <point x="135" y="97"/>
      <point x="135" y="58" type="qcurve" smooth="yes"/>
      <point x="135" y="38"/>
      <point x="107" y="6"/>
    </contour>
    <contour>
      <point x="126" y="602" type="line"/>
      <point x="131" y="623"/>
      <point x="166" y="650"/>
      <point x="187" y="650" type="qcurve" smooth="yes"/>
      <point x="208" y="650"/>
      <point x="234" y="623"/>
      <point x="232" y="602" type="qcurve"/>
      <point x="132" y="175" type="line"/>
      <point x="92" y="175" type="line"/>
    </contour>
  </outline>
</glyph>
<glyph name="dollar" format="2">
  <advance width="548"/>
  <unicode hex="0024"/>
  <outline>
    <contour>
      <point x="265" y="414" type="qcurve"/>
      <point x="302" y="638" type="line"/>
      <point x="199" y="626"/>
      <point x="178" y="542" type="qcurve"/>
      <point x="176" y="531"/>
      <point x="176" y="521" type="qcurve" smooth="yes"/>
      <point x="176" y="470"/>
    </contour>
    <contour>
      <point x="281" y="285" type="qcurve"/>
      <point x="242" y="51" type="line"/>
      <point x="367" y="64"/>
      <point x="382" y="153" type="qcurve" smooth="yes"/>
      <point x="389" y="191"/>
      <point x="352" y="229" type="qcurve" smooth="yes"/>
      <point x="337" y="244"/>
    </contour>
    <contour>
      <point x="319" y="735" type="line"/>
      <point x="357" y="735" type="line"/>
      <point x="347" y="675" type="line"/>
      <point x="406" y="672"/>
      <point x="451" y="647" type="qcurve" smooth="yes"/>
      <point x="486" y="628"/>
      <point x="498" y="606" type="qcurve"/>
      <point x="488" y="541"/>
      <point x="476" y="475" type="qcurve"/>
      <point x="455" y="475" type="line"/>
      <point x="459" y="500"/>
      <point x="459" y="521" type="qcurve" smooth="yes"/>
      <point x="459" y="639"/>
      <point x="348" y="639" type="qcurve" smooth="yes"/>
      <point x="341" y="639" type="line"/>
      <point x="299" y="392" type="line"/>
      <point x="302" y="390" type="line"/>
      <point x="415" y="305"/>
      <point x="420" y="301" type="qcurve" smooth="yes"/>
      <point x="479" y="248"/>
      <point x="479" y="198" type="qcurve" smooth="yes"/>
      <point x="479" y="114"/>
      <point x="395" y="57" type="qcurve" smooth="yes"/>
      <point x="324" y="8"/>
      <point x="234" y="1" type="qcurve"/>
      <point x="221" y="-73" type="line"/>
      <point x="183" y="-73" type="line"/>
      <point x="196" y="0" type="line"/>
      <point x="131" y="2"/>
      <point x="86" y="26" type="qcurve" smooth="yes"/>
      <point x="67" y="36"/>
      <point x="12" y="80" type="qcurve"/>
      <point x="36" y="226" type="line"/>
      <point x="58" y="226" type="line"/>
      <point x="55" y="206"/>
      <point x="55" y="188" type="qcurve" smooth="yes"/>
      <point x="55" y="117"/>
      <point x="105" y="80" type="qcurve" smooth="yes"/>
      <point x="145" y="51"/>
      <point x="204" y="49" type="qcurve"/>
      <point x="247" y="310" type="line"/>
      <point x="167" y="368"/>
      <point x="142" y="393" type="qcurve" smooth="yes"/>
      <point x="87" y="447"/>
      <point x="87" y="501" type="qcurve" smooth="yes"/>
      <point x="87" y="575"/>
      <point x="164" y="626" type="qcurve" smooth="yes"/>
      <point x="228" y="668"/>
      <point x="308" y="674" type="qcurve"/>
    </contour>
  </outline>
</glyph>
<glyph name="parenleft" format="2">
  <advance width="335"/>
  <unicode hex="0028"/>
  <outline>
    <contour>
      <point x="374" y="661" type="line"/>
      <point x="261" y="577"/>
      <point x="211" y="492" type="qcurve" smooth="yes"/>
      <point x="156" y="399"/>
      <point x="131" y="231" type="qcurve" smooth="yes"/>
      <point x="121" y="167"/>
      <point x="121" y="114" type="qcurve" smooth="yes"/>
      <point x="121" y="17"/>
      <point x="157" y="-54" type="qcurve" smooth="yes"/>
      <point x="175" y="-89"/>
      <point x="235" y="-162" type="qcurve"/>
      <point x="220" y="-178" type="line"/>
      <point x="141" y="-124"/>
      <point x="42" y="65"/>
      <point x="42" y="168" type="qcurve" smooth="yes"/>
      <point x="42" y="200"/>
      <point x="47" y="231" type="qcurve" smooth="yes"/>
      <point x="96" y="527"/>
      <point x="367" y="677" type="qcurve"/>
    </contour>
  </outline>
</glyph>
<glyph name="parenright" format="2">
  <advance width="335"/>
  <unicode hex="0029"/>
  <outline>
    <contour>
      <point x="99" y="661" type="line"/>
      <point x="160" y="600"/>
      <point x="186" y="544" type="qcurve" smooth="yes"/>
      <point x="215" y="482"/>
      <point x="215" y="398" type="qcurve" smooth="yes"/>
      <point x="215" y="330"/>
      <point x="197" y="231" type="qcurve" smooth="yes"/>
      <point x="168" y="74"/>
      <point x="99" y="-23" type="qcurve" smooth="yes"/>
      <point x="64" y="-73"/>
      <point x="-38" y="-162" type="qcurve"/>
      <point x="-30" y="-178" type="line"/>
      <point x="85" y="-115"/>
      <point x="262" y="114"/>
      <point x="282" y="231" type="qcurve" smooth="yes"/>
      <point x="291" y="288"/>
      <point x="291" y="338" type="qcurve" smooth="yes"/>
      <point x="291" y="554"/>
      <point x="112" y="677" type="qcurve"/>
    </contour>
  </outline>
</glyph>
<glyph name="period" format="2">
  <advance width="331"/>
  <unicode hex="002E"/>
  <outline>
    <contour>
      <point x="79" y="78" type="qcurve" smooth="yes"/>
      <point x="79" y="110"/>
      <point x="125" y="155"/>
      <point x="156" y="155" type="qcurve" smooth="yes"/>
      <point x="188" y="155"/>
      <point x="233" y="110"/>
      <point x="233" y="78" type="qcurve" smooth="yes"/>
      <point x="233" y="47"/>
      <point x="188" y="1"/>
      <point x="156" y="1" type="qcurve" smooth="yes"/>
      <point x="125" y="1"/>
      <point x="79" y="47"/>
    </contour>
  </outline>
</glyph>
<glyph name="slash" format="2">
  <advance width="298"/>
  <unicode hex="002F"/>
  <outline>
    <contour>
      <point x="307" y="682" type="line"/>
      <point x="368" y="682" type="line"/>
      <point x="-15" y="-107" type="line"/>
      <point x="-78" y="-107" type="line"/>
    </contour>
  </outline>
</glyph>
<glyph name="zero" format="2">
  <advance width="548"/>
  <unicode hex="0030"/>
  <outline>
    <contour>
      <point x="478" y="346" type="qcurve" smooth="yes"/>
      <point x="454" y="206"/>
      <point x="395" y="113" type="qcurve" smooth="yes"/>
      <point x="314" y="-15"/>
      <point x="183" y="-15" type="qcurve" smooth="yes"/>
      <point x="17" y="-15"/>
      <point x="17" y="223" type="qcurve" smooth="yes"/>
      <point x="17" y="283"/>
      <point x="28" y="350" type="qcurve" smooth="yes"/>
      <point x="50" y="481"/>
      <point x="118" y="571" type="qcurve" smooth="yes"/>
      <point x="198" y="676"/>
      <point x="310" y="676" type="qcurve" smooth="yes"/>
      <point x="400" y="676"/>
      <point x="446" y="601" type="qcurve" smooth="yes"/>
      <point x="485" y="537"/>
      <point x="485" y="433" type="qcurve" smooth="yes"/>
      <point x="485" y="390"/>
    </contour>
    <contour>
      <point x="383" y="347" type="qcurve" smooth="yes"/>
      <point x="397" y="431"/>
      <point x="397" y="493" type="qcurve" smooth="yes"/>
      <point x="397" y="650"/>
      <point x="306" y="650" type="qcurve" smooth="yes"/>
      <point x="174" y="650"/>
      <point x="124" y="350" type="qcurve" smooth="yes"/>
      <point x="106" y="240"/>
      <point x="106" y="170" type="qcurve" smooth="yes"/>
      <point x="106" y="9"/>
      <point x="198" y="12" type="qcurve" smooth="yes"/>
      <point x="277" y="15"/>
      <point x="323" y="113" type="qcurve" smooth="yes"/>
      <point x="356" y="185"/>
    </contour>
  </outline>
</glyph>
<glyph name="one" format="2">
  <advance width="548"/>
  <unicode hex="0031"/>
  <outline>
    <contour>
      <point x="337" y="0" type="line"/>
      <point x="62" y="0" type="line"/>
      <point x="65" y="13" type="line"/>
      <point x="120" y="16"/>
      <point x="165" y="44"/>
      <point x="171" y="83" type="qcurve" smooth="yes"/>
      <point x="246" y="527" type="line" smooth="yes"/>
      <point x="249" y="544"/>
      <point x="249" y="556" type="qcurve" smooth="yes"/>
      <point x="249" y="588"/>
      <point x="224" y="588" type="qcurve" smooth="yes"/>
      <point x="214" y="588"/>
      <point x="199" y="583" type="qcurve"/>
      <point x="189" y="580"/>
      <point x="159" y="569"/>
      <point x="149" y="566" type="qcurve"/>
      <point x="151" y="580" type="line"/>
      <point x="356" y="676" type="line"/>
      <point x="256" y="84" type="line"/>
      <point x="255" y="74"/>
      <point x="255" y="65" type="qcurve" smooth="yes"/>
      <point x="255" y="31"/>
      <point x="283" y="21" type="qcurve"/>
      <point x="291" y="19"/>
      <point x="340" y="14" type="qcurve"/>
    </contour>
  </outline>
</glyph>
<glyph name="two" format="2">
  <advance width="548"/>
  <unicode hex="0032"/>
  <outline>
    <contour>
      <point x="470" y="136" type="line"/>
      <point x="391" y="0" type="line"/>
      <point x="1" y="0" type="line"/>
      <point x="4" y="13" type="line"/>
      <point x="222" y="207" type="line" smooth="yes"/>
      <point x="299" y="275"/>
      <point x="396" y="443"/>
      <point x="391" y="501" type="qcurve" smooth="yes"/>
      <point x="387" y="552"/>
      <point x="353" y="578" type="qcurve" smooth="yes"/>
      <point x="323" y="602"/>
      <point x="277" y="602" type="qcurve" smooth="yes"/>
      <point x="246" y="602"/>
      <point x="215" y="591" type="qcurve" smooth="yes"/>
      <point x="137" y="563"/>
      <point x="106" y="474" type="qcurve"/>
      <point x="84" y="479" type="line"/>
      <point x="113" y="573"/>
      <point x="187" y="627" type="qcurve" smooth="yes"/>
      <point x="254" y="675"/>
      <point x="331" y="675" type="qcurve" smooth="yes"/>
      <point x="361" y="675"/>
      <point x="388" y="667" type="qcurve" smooth="yes"/>
      <point x="425" y="655"/>
      <point x="453" y="618" type="qcurve" smooth="yes"/>
      <point x="484" y="577"/>
      <point x="484" y="528" type="qcurve" smooth="yes"/>
      <point x="484" y="405"/>
      <point x="288" y="231" type="qcurve"/>
      <point x="233" y="184"/>
      <point x="114" y="77" type="qcurve"/>
      <point x="344" y="77" type="line" smooth="yes"/>
      <point x="387" y="77"/>
      <point x="409" y="91" type="qcurve" smooth="yes"/>
      <point x="424" y="101"/>
      <point x="458" y="142" type="qcurve"/>
    </contour>
  </outline>
</glyph>
<glyph name="three" format="2">
  <advance width="548"/>
  <unicode hex="0033"/>
  <outline>
    <contour>
      <point x="398" y="165" type="qcurve" smooth="yes"/>
      <point x="358" y="50"/>
      <point x="205" y="-1" type="qcurve" smooth="yes"/>
      <point x="167" y="-14"/>
      <point x="101" y="-14" type="qcurve" smooth="yes"/>
      <point x="-14" y="-14"/>
      <point x="-5" y="39" type="qcurve" smooth="yes"/>
      <point x="1" y="77"/>
      <point x="41" y="77" type="qcurve" smooth="yes"/>
      <point x="61" y="77"/>
      <point x="75" y="68" type="qcurve" smooth="yes"/>
      <point x="100" y="51"/>
      <point x="124" y="34" type="qcurve"/>
      <point x="145" y="21"/>
      <point x="169" y="21" type="qcurve" smooth="yes"/>
      <point x="178" y="21"/>
      <point x="187" y="22" type="qcurve" smooth="yes"/>
      <point x="253" y="29"/>
      <point x="296" y="83" type="qcurve" smooth="yes"/>
      <point x="332" y="129"/>
      <point x="334" y="177" type="qcurve" smooth="yes"/>
      <point x="338" y="259"/>
      <point x="307" y="290" type="qcurve" smooth="yes"/>
      <point x="269" y="330"/>
      <point x="152" y="331" type="qcurve"/>
      <point x="154" y="344" type="line"/>
      <point x="230" y="363"/>
      <point x="284" y="406" type="qcurve" smooth="yes"/>
      <point x="350" y="460"/>
      <point x="350" y="528" type="qcurve" smooth="yes"/>
      <point x="350" y="611"/>
      <point x="268" y="617" type="qcurve" smooth="yes"/>
      <point x="170" y="624"/>
      <point x="90" y="512" type="qcurve"/>
      <point x="76" y="517" type="line"/>
      <point x="128" y="615"/>
      <point x="198" y="652" type="qcurve" smooth="yes"/>
      <point x="244" y="676"/>
      <point x="316" y="676" type="qcurve" smooth="yes"/>
      <point x="364" y="676"/>
      <point x="436" y="612"/>
      <point x="436" y="565" type="qcurve" smooth="yes"/>
      <point x="436" y="479"/>
      <point x="318" y="401" type="qcurve"/>
      <point x="415" y="361"/>
      <point x="415" y="256" type="qcurve" smooth="yes"/>
      <point x="415" y="213"/>
    </contour>
  </outline>
</glyph>
<glyph name="four" format="2">
  <advance width="548"/>
  <unicode hex="0034"/>
  <outline>
    <contour>
      <point x="444" y="167" type="line"/>
      <point x="341" y="167" type="line"/>
      <point x="312" y="-7" type="line"/>
      <point x="236" y="-7" type="line"/>
      <point x="265" y="167" type="line"/>
      <point x="-16" y="167" type="line"/>
      <point x="-5" y="230" type="line"/>
      <point x="381" y="675" type="line"/>
      <point x="426" y="675" type="line"/>
      <point x="352" y="230" type="line"/>
      <point x="455" y="230" type="line"/>
    </contour>
    <contour>
      <point x="276" y="231" type="line"/>
      <point x="333" y="571" type="line"/>
      <point x="36" y="231" type="line"/>
    </contour>
  </outline>
</glyph>
<glyph name="five" format="2">
  <advance width="548"/>
  <unicode hex="0035"/>
  <outline>
    <contour>
      <point x="495" y="680" type="line"/>
      <point x="432" y="582" type="line"/>
      <point x="223" y="582" type="line"/>
      <point x="167" y="498" type="line"/>
      <point x="284" y="478"/>
      <point x="334" y="445" type="qcurve" smooth="yes"/>
      <point x="412" y="395"/>
      <point x="412" y="287" type="qcurve" smooth="yes"/>
      <point x="412" y="268"/>
      <point x="410" y="247" type="qcurve" smooth="yes"/>
      <point x="398" y="146"/>
      <point x="327" y="74" type="qcurve" smooth="yes"/>
      <point x="252" y="-2"/>
      <point x="144" y="-12" type="qcurve" smooth="yes"/>
      <point x="123" y="-14"/>
      <point x="102" y="-14" type="qcurve" smooth="yes"/>
      <point x="-6" y="-14"/>
      <point x="-18" y="26" type="qcurve"/>
      <point x="-20" y="32"/>
      <point x="-20" y="37" type="qcurve" smooth="yes"/>
      <point x="-20" y="56"/>
      <point x="10" y="82"/>
      <point x="28" y="84" type="qcurve"/>
      <point x="65" y="87"/>
      <point x="132" y="22"/>
      <point x="163" y="22" type="qcurve" smooth="yes"/>
      <point x="239" y="22"/>
      <point x="290" y="93" type="qcurve" smooth="yes"/>
      <point x="337" y="158"/>
      <point x="337" y="236" type="qcurve" smooth="yes"/>
      <point x="337" y="314"/>
      <point x="261" y="363" type="qcurve"/>
      <point x="195" y="404"/>
      <point x="100" y="410" type="qcurve" smooth="yes"/>
      <point x="79" y="411"/>
      <point x="79" y="419" type="qcurve" smooth="yes"/>
      <point x="79" y="424"/>
      <point x="88" y="437" type="qcurve"/>
      <point x="92" y="444" type="line"/>
      <point x="229" y="662" type="line"/>
      <point x="418" y="662" type="line" smooth="yes"/>
      <point x="465" y="662"/>
      <point x="490" y="689" type="qcurve"/>
    </contour>
  </outline>
</glyph>
<glyph name="six" format="2">
  <advance width="548"/>
  <unicode hex="0036"/>
  <outline>
    <contour>
      <point x="453" y="233" type="qcurve" smooth="yes"/>
      <point x="433" y="115"/>
      <point x="355" y="46" type="qcurve" smooth="yes"/>
      <point x="286" y="-15"/>
      <point x="206" y="-15" type="qcurve" smooth="yes"/>
      <point x="114" y="-15"/>
      <point x="65" y="50" type="qcurve" smooth="yes"/>
      <point x="20" y="109"/>
      <point x="20" y="205" type="qcurve" smooth="yes"/>
      <point x="20" y="239"/>
      <point x="26" y="275" type="qcurve" smooth="yes"/>
      <point x="56" y="452"/>
      <point x="193" y="565" type="qcurve" smooth="yes"/>
      <point x="324" y="674"/>
      <point x="503" y="682" type="qcurve"/>
      <point x="505" y="664" type="line"/>
      <point x="406" y="652"/>
      <point x="311" y="585" type="qcurve" smooth="yes"/>
      <point x="197" y="505"/>
      <point x="160" y="385" type="qcurve"/>
      <point x="234" y="432"/>
      <point x="318" y="427" type="qcurve" smooth="yes"/>
      <point x="392" y="422"/>
      <point x="428" y="362" type="qcurve" smooth="yes"/>
      <point x="455" y="317"/>
      <point x="455" y="258" type="qcurve" smooth="yes"/>
      <point x="455" y="244"/>
    </contour>
    <contour>
      <point x="234" y="14" type="qcurve" smooth="yes"/>
      <point x="288" y="15"/>
      <point x="324" y="86" type="qcurve" smooth="yes"/>
      <point x="358" y="151"/>
      <point x="358" y="233" type="qcurve" smooth="yes"/>
      <point x="358" y="293"/>
      <point x="338" y="332" type="qcurve" smooth="yes"/>
      <point x="315" y="376"/>
      <point x="272" y="381" type="qcurve" smooth="yes"/>
      <point x="244" y="384"/>
      <point x="202" y="373" type="qcurve" smooth="yes"/>
      <point x="148" y="359"/>
      <point x="136" y="330" type="qcurve" smooth="yes"/>
      <point x="105" y="250"/>
      <point x="105" y="173" type="qcurve" smooth="yes"/>
      <point x="105" y="101"/>
      <point x="134" y="60" type="qcurve" smooth="yes"/>
      <point x="167" y="13"/>
    </contour>
  </outline>
</glyph>
<glyph name="seven" format="2">
  <advance width="548"/>
  <unicode hex="0037"/>
  <outline>
    <contour>
      <point x="510" y="662" type="line"/>
      <point x="178" y="-15" type="line"/>
      <point x="114" y="-15" type="line"/>
      <point x="414" y="589" type="line"/>
      <point x="211" y="589" type="line" smooth="yes"/>
      <point x="134" y="589"/>
      <point x="97" y="542" type="qcurve" smooth="yes"/>
      <point x="67" y="505" type="line"/>
      <point x="52" y="516" type="line"/>
      <point x="135" y="662" type="line"/>
    </contour>
  </outline>
</glyph>
<glyph name="eight" format="2">
  <advance width="548"/>
  <unicode hex="0038"/>
  <outline>
    <contour>
      <point x="412" y="149" type="qcurve" smooth="yes"/>
      <point x="400" y="82"/>
      <point x="270" y="-14"/>
      <point x="192" y="-14" type="qcurve" smooth="yes"/>
      <point x="118" y="-14"/>
      <point x="71" y="20" type="qcurve" smooth="yes"/>
      <point x="21" y="56"/>
      <point x="21" y="123" type="qcurve" smooth="yes"/>
      <point x="21" y="138"/>
      <point x="24" y="155" type="qcurve" smooth="yes"/>
      <point x="38" y="243"/>
      <point x="184" y="332" type="qcurve"/>
      <point x="123" y="398"/>
      <point x="117" y="407" type="qcurve"/>
      <point x="88" y="447"/>
      <point x="88" y="491" type="qcurve" smooth="yes"/>
      <point x="88" y="502"/>
      <point x="89" y="513" type="qcurve"/>
      <point x="99" y="585"/>
      <point x="165" y="632" type="qcurve" smooth="yes"/>
      <point x="226" y="676"/>
      <point x="300" y="676" type="qcurve" smooth="yes"/>
      <point x="456" y="676"/>
      <point x="456" y="556" type="qcurve" smooth="yes"/>
      <point x="456" y="542"/>
      <point x="454" y="527" type="qcurve"/>
      <point x="439" y="438"/>
      <point x="295" y="371" type="qcurve"/>
      <point x="356" y="319"/>
      <point x="380" y="286" type="qcurve" smooth="yes"/>
      <point x="415" y="238"/>
      <point x="415" y="184" type="qcurve" smooth="yes"/>
      <point x="415" y="167"/>
    </contour>
    <contour>
      <point x="388" y="544" type="qcurve" smooth="yes"/>
      <point x="392" y="580"/>
      <point x="376" y="610" type="qcurve"/>
      <point x="352" y="650"/>
      <point x="296" y="650" type="qcurve" smooth="yes"/>
      <point x="238" y="650"/>
      <point x="202" y="612" type="qcurve" smooth="yes"/>
      <point x="176" y="584"/>
      <point x="171" y="550" type="qcurve"/>
      <point x="169" y="540"/>
      <point x="169" y="529" type="qcurve" smooth="yes"/>
      <point x="169" y="484"/>
      <point x="205" y="444" type="qcurve" smooth="yes"/>
      <point x="221" y="426"/>
      <point x="269" y="390" type="qcurve"/>
      <point x="376" y="451"/>
    </contour>
    <contour>
      <point x="332" y="122" type="qcurve" smooth="yes"/>
      <point x="335" y="133"/>
      <point x="335" y="145" type="qcurve" smooth="yes"/>
      <point x="335" y="226"/>
      <point x="207" y="311" type="qcurve"/>
      <point x="117" y="259"/>
      <point x="101" y="163" type="qcurve" smooth="yes"/>
      <point x="98" y="143"/>
      <point x="98" y="125" type="qcurve" smooth="yes"/>
      <point x="98" y="73"/>
      <point x="151" y="11"/>
      <point x="198" y="11" type="qcurve"/>
      <point x="302" y="12"/>
    </contour>
  </outline>
</glyph>
<glyph name="nine" format="2">
  <advance width="548"/>
  <unicode hex="0039"/>
  <outline>
    <contour>
      <point x="468" y="389" type="qcurve" smooth="yes"/>
      <point x="439" y="219"/>
      <point x="273" y="80" type="qcurve" smooth="yes"/>
      <point x="217" y="33"/>
      <point x="151" y="9" type="qcurve" smooth="yes"/>
      <point x="93" y="-12"/>
      <point x="1" y="-23" type="qcurve"/>
      <point x="2" y="-2" type="line"/>
      <point x="65" y="11"/>
      <point x="99" y="25" type="qcurve" smooth="yes"/>
      <point x="140" y="41"/>
      <point x="191" y="78" type="qcurve" smooth="yes"/>
      <point x="239" y="113"/>
      <point x="292" y="185" type="qcurve" smooth="yes"/>
      <point x="340" y="251"/>
      <point x="352" y="291" type="qcurve"/>
      <point x="313" y="269"/>
      <point x="293" y="260" type="qcurve" smooth="yes"/>
      <point x="249" y="240"/>
      <point x="220" y="237" type="qcurve" smooth="yes"/>
      <point x="209" y="236"/>
      <point x="198" y="236" type="qcurve" smooth="yes"/>
      <point x="132" y="236"/>
      <point x="90" y="277" type="qcurve" smooth="yes"/>
      <point x="45" y="320"/>
      <point x="45" y="394" type="qcurve" smooth="yes"/>
      <point x="45" y="415"/>
      <point x="48" y="437" type="qcurve"/>
      <point x="66" y="539"/>
      <point x="130" y="604" type="qcurve" smooth="yes"/>
      <point x="199" y="673"/>
      <point x="297" y="676" type="qcurve" smooth="yes"/>
      <point x="384" y="678"/>
      <point x="431" y="615" type="qcurve" smooth="yes"/>
      <point x="475" y="557"/>
      <point x="475" y="461" type="qcurve" smooth="yes"/>
      <point x="475" y="426"/>
    </contour>
    <contour>
      <point x="360" y="329" type="qcurve"/>
      <point x="385" y="421"/>
      <point x="385" y="499" type="qcurve" smooth="yes"/>
      <point x="385" y="641"/>
      <point x="295" y="648" type="qcurve" smooth="yes"/>
      <point x="178" y="657"/>
      <point x="146" y="462" type="qcurve"/>
      <point x="141" y="436"/>
      <point x="141" y="412" type="qcurve" smooth="yes"/>
      <point x="141" y="350"/>
      <point x="197" y="279"/>
      <point x="243" y="279" type="qcurve" smooth="yes"/>
      <point x="299" y="279"/>
    </contour>
  </outline>
</glyph>
<glyph name="question" format="2">
  <advance width="512"/>
  <unicode hex="003F"/>
  <outline>
    <contour>
      <point x="460" y="519" type="qcurve"/>
      <point x="448" y="448"/>
      <point x="339" y="339" type="qcurve" smooth="yes"/>
      <point x="253" y="252"/>
      <point x="227" y="164" type="qcurve"/>
      <point x="210" y="164" type="line"/>
      <point x="222" y="255"/>
      <point x="285" y="344" type="qcurve" smooth="yes"/>
      <point x="369" y="463"/>
      <point x="369" y="551" type="qcurve" smooth="yes"/>
      <point x="369" y="597"/>
      <point x="341" y="624" type="qcurve" smooth="yes"/>
      <point x="316" y="647"/>
      <point x="280" y="647" type="qcurve" smooth="yes"/>
      <point x="223" y="647"/>
      <point x="189" y="610" type="qcurve" smooth="yes"/>
      <point x="173" y="593"/>
      <point x="177" y="575" type="qcurve" smooth="yes"/>
      <point x="180" y="561"/>
      <point x="193" y="543" type="qcurve" smooth="yes"/>
      <point x="201" y="532"/>
      <point x="201" y="518" type="qcurve" smooth="yes"/>
      <point x="201" y="493"/>
      <point x="181" y="480" type="qcurve" smooth="yes"/>
      <point x="166" y="470"/>
      <point x="149" y="470" type="qcurve" smooth="yes"/>
      <point x="113" y="470"/>
      <point x="113" y="515" type="qcurve" smooth="yes"/>
      <point x="113" y="529"/>
      <point x="117" y="547" type="qcurve" smooth="yes"/>
      <point x="129" y="599"/>
      <point x="241" y="677"/>
      <point x="308" y="676" type="qcurve" smooth="yes"/>
      <point x="391" y="675"/>
      <point x="431" y="627" type="qcurve" smooth="yes"/>
      <point x="462" y="591"/>
      <point x="462" y="540" type="qcurve" smooth="yes"/>
      <point x="462" y="529"/>
    </contour>
    <contour>
      <point x="138" y="43" type="qcurve" smooth="yes"/>
      <point x="142" y="67"/>
      <point x="182" y="100"/>
      <point x="206" y="100" type="qcurve" smooth="yes"/>
      <point x="230" y="100"/>
      <point x="257" y="67"/>
      <point x="253" y="43" type="qcurve" smooth="yes"/>
      <point x="249" y="20"/>
      <point x="209" y="-14"/>
      <point x="186" y="-14" type="qcurve" smooth="yes"/>
      <point x="162" y="-14"/>
      <point x="134" y="20"/>
    </contour>
  </outline>
</glyph>
<glyph name="ha-ethi" format="2">
  <advance width="596"/>
  <unicode hex="1200"/>
  <outline>
    <contour>
      <point x="530" y="733" type="qcurve"/>
      <point x="453" y="730"/>
      <point x="415" y="730" type="qcurve"/>
      <point x="392" y="547"/>
      <point x="334" y="168" type="qcurve"/>
      <point x="323" y="106"/>
      <point x="276" y="70" type="qcurve" smooth="yes"/>
      <point x="241" y="44"/>
      <point x="213" y="44" type="qcurve" smooth="yes"/>
      <point x="186" y="44"/>
      <point x="170" y="72" type="qcurve" smooth="yes"/>
      <point x="155" y="97"/>
      <point x="159" y="120" type="qcurve" smooth="yes"/>
      <point x="251" y="730" type="line"/>
      <point x="130" y="727" type="line"/>
      <point x="40" y="144" type="line" smooth="yes"/>
      <point x="33" y="101"/>
      <point x="62" y="54" type="qcurve" smooth="yes"/>
      <point x="94" y="0"/>
      <point x="149" y="0" type="qcurve" smooth="yes"/>
      <point x="158" y="0"/>
      <point x="167" y="2" type="qcurve"/>
      <point x="256" y="17"/>
      <point x="306" y="38" type="qcurve" smooth="yes"/>
      <point x="381" y="70"/>
      <point x="421" y="130" type="qcurve" smooth="yes"/>
      <point x="448" y="172"/>
      <point x="464" y="277" type="qcurve" smooth="yes"/>
      <point x="471" y="320"/>
    </contour>
  </outline>
</glyph>
<glyph name="hu-ethi" format="2">
  <advance width="790"/>
  <unicode hex="1201"/>
  <unicode hex="F042"/>
  <outline>
    <contour>
      <point x="495" y="491" type="line"/>
      <point x="530" y="733" type="line"/>
      <point x="453" y="730"/>
      <point x="415" y="730" type="qcurve"/>
      <point x="392" y="547"/>
      <point x="334" y="168" type="qcurve"/>
      <point x="323" y="106"/>
      <point x="276" y="70" type="qcurve" smooth="yes"/>
      <point x="241" y="44"/>
      <point x="213" y="44" type="qcurve" smooth="yes"/>
      <point x="186" y="44"/>
      <point x="170" y="72" type="qcurve" smooth="yes"/>
      <point x="155" y="97"/>
      <point x="159" y="120" type="qcurve" smooth="yes"/>
      <point x="251" y="730" type="line"/>
      <point x="130" y="727" type="line"/>
      <point x="40" y="144" type="line" smooth="yes"/>
      <point x="33" y="101"/>
      <point x="62" y="54" type="qcurve" smooth="yes"/>
      <point x="94" y="0"/>
      <point x="149" y="0" type="qcurve" smooth="yes"/>
      <point x="158" y="0"/>
      <point x="167" y="2" type="qcurve" smooth="yes"/>
      <point x="256" y="17"/>
      <point x="306" y="38" type="qcurve" smooth="yes"/>
      <point x="381" y="70"/>
      <point x="421" y="130" type="qcurve" smooth="yes"/>
      <point x="448" y="172"/>
      <point x="464" y="277" type="qcurve" smooth="yes"/>
      <point x="479" y="377"/>
      <point x="491" y="458" type="qcurve"/>
      <point x="579" y="457" type="line"/>
      <point x="585" y="358"/>
      <point x="699" y="345" type="qcurve"/>
      <point x="699" y="386"/>
      <point x="750" y="491" type="qcurve"/>
    </contour>
  </outline>
</glyph>
<glyph name="hi-ethi" format="2">
  <advance width="664"/>
  <unicode hex="1202"/>
  <unicode hex="F043"/>
  <outline>
    <contour>
      <point x="573" y="-46" type="qcurve"/>
      <point x="573" y="-62"/>
      <point x="502" y="-62" type="qcurve" smooth="yes"/>
      <point x="433" y="-62"/>
      <point x="418" y="-45" type="qcurve" smooth="yes"/>
      <point x="405" y="-32"/>
      <point x="374" y="-1" type="qcurve"/>
      <point x="299" y="0" type="line"/>
      <point x="246" y="0"/>
      <point x="202" y="24"/>
      <point x="202" y="57" type="qcurve" smooth="yes"/>
      <point x="202" y="74"/>
      <point x="208" y="100" type="qcurve" smooth="yes"/>
      <point x="282" y="407" type="line"/>
      <point x="158" y="364" type="line" smooth="yes"/>
      <point x="108" y="347"/>
      <point x="82" y="347" type="qcurve" smooth="yes"/>
      <point x="40" y="347"/>
      <point x="40" y="403" type="qcurve" smooth="yes"/>
      <point x="40" y="426"/>
      <point x="46" y="470" type="qcurve" smooth="yes"/>
      <point x="49" y="490"/>
      <point x="76" y="724" type="qcurve"/>
      <point x="204" y="732" type="line"/>
      <point x="167" y="470" type="line" smooth="yes"/>
      <point x="165" y="454"/>
      <point x="165" y="443" type="qcurve" smooth="yes"/>
      <point x="165" y="409"/>
      <point x="187" y="409" type="qcurve" smooth="yes"/>
      <point x="198" y="409"/>
      <point x="247" y="429" type="qcurve" smooth="yes"/>
      <point x="284" y="444" type="line"/>
      <point x="347" y="725" type="line"/>
      <point x="473" y="731" type="line"/>
      <point x="307" y="26" type="line"/>
      <point x="377" y="25" type="line"/>
      <point x="413" y="40"/>
      <point x="477" y="65" type="qcurve"/>
      <point x="528" y="82"/>
      <point x="576" y="82" type="qcurve" smooth="yes"/>
      <point x="624" y="82"/>
      <point x="624" y="66" type="qcurve"/>
      <point x="624" y="65"/>
      <point x="572" y="-11"/>
    </contour>
  </outline>
</glyph>
<glyph name="haa-ethi" format="2">
  <advance width="526"/>
  <unicode hex="1203"/>
  <unicode hex="F044"/>
  <outline>
    <contour>
      <point x="82" y="724" type="line"/>
      <point x="52" y="470" type="line" smooth="yes"/>
      <point x="47" y="433"/>
      <point x="47" y="410" type="qcurve" smooth="yes"/>
      <point x="47" y="346"/>
      <point x="92" y="346" type="qcurve" smooth="yes"/>
      <point x="119" y="346"/>
      <point x="170" y="367" type="qcurve" smooth="yes"/>
      <point x="300" y="420" type="line"/>
      <point x="215" y="2" type="line"/>
      <point x="329" y="2" type="line"/>
      <point x="480" y="736" type="line"/>
      <point x="353" y="727" type="line"/>
      <point x="344" y="654"/>
      <point x="308" y="450" type="qcurve"/>
      <point x="246" y="429" type="line" smooth="yes"/>
      <point x="192" y="410"/>
      <point x="187" y="410" type="qcurve" smooth="yes"/>
      <point x="168" y="410"/>
      <point x="168" y="439" type="qcurve" smooth="yes"/>
      <point x="168" y="451"/>
      <point x="171" y="471" type="qcurve" smooth="yes"/>
      <point x="214" y="727" type="line"/>
    </contour>
  </outline>
</glyph>
<glyph name="hee-ethi" format="2">
  <advance width="601"/>
  <unicode hex="1204"/>
  <outline>
    <contour>
      <point x="560" y="75" type="qcurve" smooth="yes"/>
      <point x="560" y="42"/>
      <point x="530" y="0"/>
      <point x="504" y="0" type="qcurve" smooth="yes"/>
      <point x="291" y="0" type="line" smooth="yes"/>
      <point x="243" y="0"/>
      <point x="207" y="18"/>
      <point x="207" y="44" type="qcurve" smooth="yes"/>
      <point x="207" y="60"/>
      <point x="216" y="100" type="qcurve" smooth="yes"/>
      <point x="281" y="407" type="line"/>
      <point x="161" y="364" type="line" smooth="yes"/>
      <point x="110" y="346"/>
      <point x="85" y="346" type="qcurve" smooth="yes"/>
      <point x="43" y="346"/>
      <point x="43" y="403" type="qcurve" smooth="yes"/>
      <point x="43" y="427"/>
      <point x="49" y="470" type="qcurve" smooth="yes"/>
      <point x="52" y="490"/>
      <point x="79" y="724" type="qcurve"/>
      <point x="207" y="732" type="line"/>
      <point x="170" y="470" type="line" smooth="yes"/>
      <point x="168" y="454"/>
      <point x="168" y="442" type="qcurve" smooth="yes"/>
      <point x="168" y="410"/>
      <point x="189" y="410" type="qcurve" smooth="yes"/>
      <point x="196" y="410"/>
      <point x="250" y="429" type="qcurve" smooth="yes"/>
      <point x="292" y="444" type="line"/>
      <point x="355" y="725" type="line"/>
      <point x="481" y="731" type="line"/>
      <point x="351" y="157" type="line"/>
      <point x="442" y="174" type="line" smooth="yes"/>
      <point x="458" y="177"/>
      <point x="472" y="177" type="qcurve" smooth="yes"/>
      <point x="560" y="177"/>
    </contour>
    <contour>
      <point x="437" y="78" type="qcurve" smooth="yes"/>
      <point x="437" y="98"/>
      <point x="429" y="112" type="qcurve" smooth="yes"/>
      <point x="414" y="139"/>
      <point x="377" y="139" type="qcurve" smooth="yes"/>
      <point x="337" y="139"/>
      <point x="337" y="66" type="qcurve" smooth="yes"/>
      <point x="337" y="19"/>
      <point x="373" y="19" type="qcurve" smooth="yes"/>
      <point x="399" y="19"/>
      <point x="437" y="54"/>
    </contour>
  </outline>
</glyph>
<glyph name="he-ethi" format="2">
  <advance width="610"/>
  <unicode hex="1205"/>
  <unicode hex="F046"/>
  <outline>
    <contour>
      <point x="506" y="231" type="line" smooth="yes"/>
      <point x="491" y="114"/>
      <point x="405" y="59" type="qcurve" smooth="yes"/>
      <point x="361" y="31"/>
      <point x="264" y="10" type="qcurve" smooth="yes"/>
      <point x="238" y="4"/>
      <point x="211" y="4" type="qcurve" smooth="yes"/>
      <point x="80" y="4"/>
      <point x="80" y="128" type="qcurve" smooth="yes"/>
      <point x="80" y="142"/>
      <point x="82" y="158" type="qcurve" smooth="yes"/>
      <point x="127" y="523" type="line"/>
      <point x="40" y="523" type="line"/>
      <point x="62" y="689"/>
      <point x="62" y="736" type="qcurve"/>
      <point x="177" y="739" type="line"/>
      <point x="158" y="540" type="line"/>
      <point x="262" y="545" type="line"/>
      <point x="200" y="133" type="line" smooth="yes"/>
      <point x="198" y="118"/>
      <point x="198" y="105" type="qcurve" smooth="yes"/>
      <point x="198" y="40"/>
      <point x="259" y="43" type="qcurve" smooth="yes"/>
      <point x="307" y="46"/>
      <point x="376" y="138"/>
      <point x="385" y="212" type="qcurve" smooth="yes"/>
      <point x="450" y="736" type="line"/>
      <point x="570" y="736" type="line"/>
    </contour>
  </outline>
</glyph>
<glyph name="ho-ethi" format="2">
  <advance width="800"/>
  <unicode hex="1206"/>
  <outline>
    <contour>
      <point x="464" y="276" type="line" smooth="yes"/>
      <point x="448" y="170"/>
      <point x="421" y="129" type="qcurve" smooth="yes"/>
      <point x="381" y="69"/>
      <point x="306" y="37" type="qcurve" smooth="yes"/>
      <point x="256" y="16"/>
      <point x="167" y="0" type="qcurve"/>
      <point x="158" y="-1"/>
      <point x="149" y="-1" type="qcurve" smooth="yes"/>
      <point x="96" y="-1"/>
      <point x="65" y="53" type="qcurve" smooth="yes"/>
      <point x="40" y="95"/>
      <point x="40" y="143" type="qcurve" smooth="yes"/>
      <point x="40" y="174"/>
      <point x="130" y="737" type="qcurve"/>
      <point x="251" y="740" type="line"/>
      <point x="159" y="119" type="line" smooth="yes"/>
      <point x="155" y="95"/>
      <point x="170" y="71" type="qcurve"/>
      <point x="186" y="43"/>
      <point x="213" y="43" type="qcurve" smooth="yes"/>
      <point x="241" y="43"/>
      <point x="276" y="69" type="qcurve" smooth="yes"/>
      <point x="323" y="105"/>
      <point x="334" y="167" type="qcurve" smooth="yes"/>
      <point x="367" y="348"/>
      <point x="415" y="729" type="qcurve"/>
      <point x="557" y="732"/>
      <point x="673" y="732" type="qcurve" smooth="yes"/>
      <point x="712" y="732"/>
      <point x="738" y="704" type="qcurve" smooth="yes"/>
      <point x="760" y="680"/>
      <point x="760" y="654" type="qcurve" smooth="yes"/>
      <point x="760" y="621"/>
      <point x="731" y="592" type="qcurve" smooth="yes"/>
      <point x="696" y="557"/>
      <point x="645" y="560" type="qcurve" smooth="yes"/>
      <point x="509" y="567" type="line"/>
    </contour>
    <contour>
      <point x="630" y="637" type="qcurve" smooth="yes"/>
      <point x="630" y="662"/>
      <point x="593" y="699"/>
      <point x="568" y="699" type="qcurve" smooth="yes"/>
      <point x="526" y="699"/>
      <point x="526" y="628" type="qcurve" smooth="yes"/>
      <point x="526" y="588"/>
      <point x="565" y="588" type="qcurve" smooth="yes"/>
      <point x="630" y="588"/>
    </contour>
  </outline>
</glyph>
<glyph name="lu-ethi" format="2">
  <advance width="843"/>
  <unicode hex="1209"/>
  <outline>
    <contour>
      <point x="559" y="0" type="line"/>
      <point x="439" y="0" type="line"/>
      <point x="441" y="64"/>
      <point x="438" y="352" type="qcurve" smooth="yes"/>
      <point x="437" y="420"/>
      <point x="386" y="483" type="qcurve"/>
      <point x="299" y="435"/>
      <point x="249" y="331" type="qcurve" smooth="yes"/>
      <point x="208" y="245"/>
      <point x="197" y="138" type="qcurve" smooth="yes"/>
      <point x="183" y="0" type="line"/>
      <point x="53" y="0" type="line"/>
      <point x="67" y="115" type="line" smooth="yes"/>
      <point x="77" y="191"/>
      <point x="83" y="225" type="qcurve" smooth="yes"/>
      <point x="96" y="303"/>
      <point x="115" y="345" type="qcurve" smooth="yes"/>
      <point x="140" y="400"/>
      <point x="195" y="463" type="qcurve" smooth="yes"/>
      <point x="229" y="502"/>
      <point x="285" y="554" type="qcurve" smooth="yes"/>
      <point x="327" y="593"/>
      <point x="327" y="597" type="qcurve" smooth="yes"/>
      <point x="327" y="607"/>
      <point x="314" y="636" type="qcurve" smooth="yes"/>
      <point x="293" y="681"/>
      <point x="288" y="694" type="qcurve"/>
      <point x="310" y="710"/>
      <point x="387" y="747" type="qcurve"/>
      <point x="471" y="579" type="line" smooth="yes"/>
      <point x="515" y="492"/>
      <point x="534" y="432" type="qcurve" smooth="yes"/>
      <point x="553.86" y="370.36"/>
      <point x="559.18" y="283.87" type="qcurve"/>
      <point x="620" y="283" type="line"/>
      <point x="628" y="284"/>
      <point x="664" y="294" type="qcurve"/>
      <point x="712" y="310"/>
      <point x="751" y="310" type="qcurve" smooth="yes"/>
      <point x="792" y="310"/>
      <point x="792" y="295" type="qcurve"/>
      <point x="791.86" y="292.08"/>
      <point x="790" y="289" type="qcurve" smooth="yes"/>
      <point x="762.71" y="244.15"/>
      <point x="760" y="238" type="qcurve" smooth="yes"/>
      <point x="742.51" y="199.04"/>
      <point x="746" y="157" type="qcurve" smooth="yes"/>
      <point x="746.66" y="148.98"/>
      <point x="734" y="149" type="qcurve" smooth="yes"/>
      <point x="718" y="149.01"/>
      <point x="670" y="170"/>
      <point x="646" y="195"/>
      <point x="622" y="257" type="qcurve"/>
      <point x="560.46" y="257" type="line"/>
      <point x="561.42" y="229.18"/>
      <point x="561" y="199" type="qcurve" smooth="yes"/>
    </contour>
  </outline>
</glyph>
<glyph name="li-ethi" format="2">
  <advance width="852"/>
  <unicode hex="120A"/>
  <outline>
    <contour>
      <point x="769" y="-46" type="qcurve"/>
      <point x="769" y="-62"/>
      <point x="699" y="-62" type="qcurve" smooth="yes"/>
      <point x="629.46" y="-61.57"/>
      <point x="614" y="-45" type="qcurve" smooth="yes"/>
      <point x="601.45" y="-31.55"/>
      <point x="570" y="-1" type="qcurve"/>
      <point x="439" y="0" type="line"/>
      <point x="441" y="64"/>
      <point x="438" y="352" type="qcurve" smooth="yes"/>
      <point x="437" y="420"/>
      <point x="386" y="483" type="qcurve"/>
      <point x="299" y="435"/>
      <point x="249" y="331" type="qcurve" smooth="yes"/>
      <point x="208" y="245"/>
      <point x="197" y="138" type="qcurve" smooth="yes"/>
      <point x="183" y="0" type="line"/>
      <point x="53" y="0" type="line"/>
      <point x="67" y="115" type="line" smooth="yes"/>
      <point x="77" y="191"/>
      <point x="83" y="225" type="qcurve" smooth="yes"/>
      <point x="96" y="303"/>
      <point x="115" y="345" type="qcurve" smooth="yes"/>
      <point x="140" y="400"/>
      <point x="195" y="463" type="qcurve" smooth="yes"/>
      <point x="229" y="502"/>
      <point x="285" y="554" type="qcurve" smooth="yes"/>
      <point x="327" y="593"/>
      <point x="327" y="597" type="qcurve" smooth="yes"/>
      <point x="327" y="607"/>
      <point x="314" y="636" type="qcurve" smooth="yes"/>
      <point x="293" y="681"/>
      <point x="288" y="694" type="qcurve"/>
      <point x="310" y="710"/>
      <point x="387" y="747" type="qcurve"/>
      <point x="471" y="579" type="line" smooth="yes"/>
      <point x="515" y="492"/>
      <point x="534" y="432" type="qcurve" smooth="yes"/>
      <point x="563" y="342"/>
      <point x="561" y="199" type="qcurve" smooth="yes"/>
      <point x="559.25" y="25.21" type="line"/>
      <point x="574" y="25" type="line"/>
      <point x="609" y="40"/>
      <point x="673" y="65" type="qcurve"/>
      <point x="724" y="81"/>
      <point x="772" y="81" type="qcurve" smooth="yes"/>
      <point x="820" y="81"/>
      <point x="820" y="66" type="qcurve" smooth="yes"/>
      <point x="820" y="65"/>
      <point x="768" y="-11"/>
    </contour>
  </outline>
</glyph>
<glyph name="laa-ethi" format="2">
  <advance width="631"/>
  <unicode hex="120B"/>
  <unicode hex="F049"/>
  <outline>
    <contour>
      <point x="66" y="185" type="line"/>
      <point x="66" y="200"/>
      <point x="69" y="253" type="qcurve"/>
      <point x="80" y="365"/>
      <point x="140" y="442" type="qcurve" smooth="yes"/>
      <point x="166" y="474"/>
      <point x="289" y="583" type="qcurve" smooth="yes"/>
      <point x="300" y="593" type="line"/>
      <point x="241" y="700" type="line"/>
      <point x="349" y="760" type="line"/>
      <point x="428" y="619" type="line"/>
      <point x="463" y="559"/>
      <point x="497" y="499" type="qcurve"/>
      <point x="539" y="418"/>
      <point x="539" y="361" type="qcurve" smooth="yes"/>
      <point x="539" y="0" type="line"/>
      <point x="415" y="0" type="line"/>
      <point x="415" y="354" type="line"/>
      <point x="396" y="439" type="line"/>
      <point x="355" y="495" type="line"/>
      <point x="239" y="392"/>
      <point x="211" y="327" type="qcurve" smooth="yes"/>
      <point x="190" y="279"/>
      <point x="190" y="185" type="qcurve"/>
    </contour>
  </outline>
</glyph>
<glyph name="lee-ethi" format="2">
  <advance width="669"/>
  <unicode hex="120C"/>
  <outline>
    <contour>
      <point x="559" y="0" type="line"/>
      <point x="439" y="0" type="line"/>
      <point x="441" y="64"/>
      <point x="438" y="352" type="qcurve" smooth="yes"/>
      <point x="437" y="420"/>
      <point x="386" y="483" type="qcurve"/>
      <point x="299" y="435"/>
      <point x="249" y="331" type="qcurve" smooth="yes"/>
      <point x="208" y="245"/>
      <point x="197" y="138" type="qcurve" smooth="yes"/>
      <point x="183" y="0" type="line"/>
      <point x="53" y="0" type="line"/>
      <point x="67" y="115" type="line" smooth="yes"/>
      <point x="77" y="191"/>
      <point x="83" y="225" type="qcurve" smooth="yes"/>
      <point x="96" y="303"/>
      <point x="115" y="345" type="qcurve" smooth="yes"/>
      <point x="140" y="400"/>
      <point x="195" y="463" type="qcurve" smooth="yes"/>
      <point x="229" y="502"/>
      <point x="285" y="554" type="qcurve" smooth="yes"/>
      <point x="327" y="593"/>
      <point x="327" y="597" type="qcurve" smooth="yes"/>
      <point x="327" y="607"/>
      <point x="314" y="636" type="qcurve" smooth="yes"/>
      <point x="293" y="681"/>
      <point x="288" y="694" type="qcurve"/>
      <point x="310" y="710"/>
      <point x="387" y="747" type="qcurve"/>
      <point x="471" y="579" type="line" smooth="yes"/>
      <point x="515" y="492"/>
      <point x="534" y="432" type="qcurve" smooth="yes"/>
      <point x="563" y="342"/>
      <point x="561" y="199" type="qcurve" smooth="yes"/>
    </contour>
    <contour>
      <point x="768" y="79" type="qcurve" smooth="yes"/>
      <point x="768" y="51"/>
      <point x="729" y="0"/>
      <point x="707" y="0" type="qcurve" smooth="yes"/>
      <point x="500" y="0" type="line"/>
      <point x="500" y="154" type="line"/>
      <point x="566" y="158" type="line"/>
      <point x="574.041" y="157.754"/>
      <point x="623" y="166" type="qcurve" smooth="yes"/>
      <point x="669.039" y="173.948"/>
      <point x="680" y="174" type="qcurve" smooth="yes"/>
      <point x="720.727" y="174.002"/>
      <point x="747" y="137" type="qcurve" smooth="yes"/>
      <point x="767.729" y="107.806"/>
    </contour>
    <contour>
      <point x="632" y="48" type="qcurve"/>
      <point x="639" y="54"/>
      <point x="638" y="82" type="qcurve"/>
      <point x="638" y="110"/>
      <point x="632" y="118" type="qcurve" smooth="yes"/>
      <point x="614" y="142"/>
      <point x="581" y="142" type="qcurve" smooth="yes"/>
      <point x="552" y="142"/>
      <point x="512" y="93"/>
      <point x="512" y="70" type="qcurve" smooth="yes"/>
      <point x="512" y="57"/>
      <point x="548" y="23"/>
      <point x="569" y="23" type="qcurve" smooth="yes"/>
      <point x="607" y="23"/>
    </contour>
  </outline>
</glyph>
<glyph name="le-ethi" format="2">
  <advance width="652"/>
  <unicode hex="120D"/>
  <unicode hex="F04A"/>
  <outline>
    <contour>
      <point x="495" y="1" type="line"/>
      <point x="494" y="279" type="line"/>
      <point x="494" y="328"/>
      <point x="475" y="403" type="qcurve" smooth="yes"/>
      <point x="453" y="488"/>
      <point x="426" y="515" type="qcurve"/>
      <point x="363" y="457"/>
      <point x="348" y="443" type="qcurve" smooth="yes"/>
      <point x="305" y="401"/>
      <point x="277" y="364" type="qcurve" smooth="yes"/>
      <point x="198" y="260"/>
      <point x="190" y="165" type="qcurve"/>
      <point x="289" y="182"/>
      <point x="310" y="182" type="qcurve" smooth="yes"/>
      <point x="349" y="182"/>
      <point x="372" y="152" type="qcurve" smooth="yes"/>
      <point x="392" y="126"/>
      <point x="392" y="94" type="qcurve" smooth="yes"/>
      <point x="392" y="14"/>
      <point x="331" y="2" type="qcurve" smooth="yes"/>
      <point x="301" y="-4"/>
      <point x="255" y="-4" type="qcurve" smooth="yes"/>
      <point x="132" y="-4" type="line" smooth="yes"/>
      <point x="85" y="-4"/>
      <point x="73" y="0" type="qcurve" smooth="yes"/>
      <point x="44" y="9"/>
      <point x="41" y="44" type="qcurve" smooth="yes"/>
      <point x="40" y="61"/>
      <point x="40" y="78" type="qcurve" smooth="yes"/>
      <point x="40" y="231"/>
      <point x="138" y="384" type="qcurve" smooth="yes"/>
      <point x="220" y="512"/>
      <point x="335" y="592" type="qcurve" smooth="yes"/>
      <point x="342" y="597"/>
      <point x="367" y="634" type="qcurve"/>
      <point x="307" y="728" type="line"/>
      <point x="430" y="787" type="line"/>
      <point x="464" y="695"/>
      <point x="487" y="662" type="qcurve" smooth="yes"/>
      <point x="607" y="485"/>
      <point x="612" y="306" type="qcurve"/>
      <point x="612" y="305"/>
      <point x="612" y="211" type="qcurve" smooth="yes"/>
      <point x="612" y="2" type="line"/>
    </contour>
    <contour>
      <point x="261" y="119" type="qcurve" smooth="yes"/>
      <point x="244" y="142"/>
      <point x="212" y="142" type="qcurve" smooth="yes"/>
      <point x="165" y="142"/>
      <point x="165" y="75" type="qcurve" smooth="yes"/>
      <point x="165" y="31"/>
      <point x="201" y="31" type="qcurve" smooth="yes"/>
      <point x="237" y="31"/>
      <point x="261" y="53" type="qcurve" smooth="yes"/>
      <point x="268" y="60"/>
      <point x="268" y="86" type="qcurve"/>
      <point x="267" y="112"/>
    </contour>
  </outline>
</glyph>
<glyph name="hha-ethi" format="2">
  <advance width="806"/>
  <unicode hex="1210"/>
  <unicode hex="F04B"/>
  <outline>
    <contour>
      <point x="707" y="221" type="qcurve" smooth="yes"/>
      <point x="677" y="0" type="line"/>
      <point x="558" y="0" type="line"/>
      <point x="587" y="267" type="line"/>
      <point x="587" y="316"/>
      <point x="567" y="352" type="qcurve" smooth="yes"/>
      <point x="542" y="396"/>
      <point x="494" y="396" type="qcurve" smooth="yes"/>
      <point x="485" y="396"/>
      <point x="476" y="395" type="qcurve"/>
      <point x="425" y="0" type="line"/>
      <point x="306" y="0" type="line"/>
      <point x="353" y="404" type="line"/>
      <point x="314" y="408"/>
      <point x="275" y="375" type="qcurve" smooth="yes"/>
      <point x="233" y="338"/>
      <point x="208" y="270" type="qcurve" smooth="yes"/>
      <point x="201" y="250"/>
      <point x="179" y="52" type="qcurve" smooth="yes"/>
      <point x="173" y="0" type="line"/>
      <point x="40" y="0" type="line"/>
      <point x="56" y="103"/>
      <point x="91" y="267" type="qcurve"/>
      <point x="112" y="336"/>
      <point x="169" y="378" type="qcurve" smooth="yes"/>
      <point x="221" y="416"/>
      <point x="276" y="418" type="qcurve" smooth="yes"/>
      <point x="357" y="421" type="line"/>
      <point x="395" y="731" type="line"/>
      <point x="524" y="742" type="line"/>
      <point x="482" y="418" type="line"/>
      <point x="558" y="418" type="line" smooth="yes"/>
      <point x="629" y="418"/>
      <point x="710" y="335"/>
      <point x="710" y="261" type="qcurve" smooth="yes"/>
      <point x="710" y="242"/>
    </contour>
  </outline>
</glyph>
<glyph name="hhu-ethi" format="2">
  <advance width="806"/>
  <unicode hex="1211"/>
  <outline>
    <contour>
      <point x="707" y="221" type="qcurve" smooth="yes"/>
      <point x="677" y="0" type="line"/>
      <point x="558" y="0" type="line"/>
      <point x="587" y="267" type="line"/>
      <point x="587" y="316"/>
      <point x="567" y="352" type="qcurve" smooth="yes"/>
      <point x="542" y="396"/>
      <point x="494" y="396" type="qcurve" smooth="yes"/>
      <point x="485" y="396"/>
      <point x="476" y="395" type="qcurve"/>
      <point x="425" y="0" type="line"/>
      <point x="306" y="0" type="line"/>
      <point x="353" y="404" type="line"/>
      <point x="314" y="408"/>
      <point x="275" y="375" type="qcurve" smooth="yes"/>
      <point x="233" y="338"/>
      <point x="208" y="270" type="qcurve" smooth="yes"/>
      <point x="201" y="250"/>
      <point x="179" y="52" type="qcurve" smooth="yes"/>
      <point x="173" y="0" type="line"/>
      <point x="40" y="0" type="line"/>
      <point x="56" y="103"/>
      <point x="91" y="267" type="qcurve"/>
      <point x="112" y="336"/>
      <point x="169" y="378" type="qcurve" smooth="yes"/>
      <point x="221" y="416"/>
      <point x="276" y="418" type="qcurve" smooth="yes"/>
      <point x="357" y="421" type="line"/>
      <point x="395" y="731" type="line"/>
      <point x="524" y="742" type="line"/>
      <point x="482" y="418" type="line"/>
      <point x="558" y="418" type="line" smooth="yes"/>
      <point x="629" y="418"/>
      <point x="710" y="335"/>
      <point x="710" y="261" type="qcurve" smooth="yes"/>
      <point x="710" y="242"/>
    </contour>
    <contour>
      <point x="687" y="284" type="line"/>
      <point x="757" y="283" type="line"/>
      <point x="765" y="284"/>
      <point x="801" y="294" type="qcurve"/>
      <point x="849" y="310"/>
      <point x="888" y="310" type="qcurve" smooth="yes"/>
      <point x="929" y="310"/>
      <point x="929" y="295" type="qcurve" smooth="yes"/>
      <point x="928.865" y="292.086"/>
      <point x="927" y="289" type="qcurve" smooth="yes"/>
      <point x="899.71" y="244.152"/>
      <point x="897" y="238" type="qcurve" smooth="yes"/>
      <point x="879.513" y="199.041"/>
      <point x="883" y="157" type="qcurve" smooth="yes"/>
      <point x="883.666" y="148.985"/>
      <point x="871" y="149" type="qcurve" smooth="yes"/>
      <point x="855" y="149.019"/>
      <point x="807" y="170"/>
      <point x="783" y="195"/>
      <point x="759" y="257" type="qcurve"/>
      <point x="677" y="257" type="line"/>
    </contour>
  </outline>
</glyph>
<glyph name="hhi-ethi" format="2">
  <advance width="806"/>
  <unicode hex="1212"/>
  <outline>
    <contour>
      <point x="707" y="221" type="qcurve" smooth="yes"/>
      <point x="677" y="0" type="line"/>
      <point x="558" y="0" type="line"/>
      <point x="587" y="267" type="line"/>
      <point x="587" y="316"/>
      <point x="567" y="352" type="qcurve" smooth="yes"/>
      <point x="542" y="396"/>
      <point x="494" y="396" type="qcurve" smooth="yes"/>
      <point x="485" y="396"/>
      <point x="476" y="395" type="qcurve"/>
      <point x="425" y="0" type="line"/>
      <point x="306" y="0" type="line"/>
      <point x="353" y="404" type="line"/>
      <point x="314" y="408"/>
      <point x="275" y="375" type="qcurve" smooth="yes"/>
      <point x="233" y="338"/>
      <point x="208" y="270" type="qcurve" smooth="yes"/>
      <point x="201" y="250"/>
      <point x="179" y="52" type="qcurve" smooth="yes"/>
      <point x="173" y="0" type="line"/>
      <point x="40" y="0" type="line"/>
      <point x="56" y="103"/>
      <point x="91" y="267" type="qcurve"/>
      <point x="112" y="336"/>
      <point x="169" y="378" type="qcurve" smooth="yes"/>
      <point x="221" y="416"/>
      <point x="276" y="418" type="qcurve" smooth="yes"/>
      <point x="357" y="421" type="line"/>
      <point x="395" y="731" type="line"/>
      <point x="524" y="742" type="line"/>
      <point x="482" y="418" type="line"/>
      <point x="558" y="418" type="line" smooth="yes"/>
      <point x="629" y="418"/>
      <point x="710" y="335"/>
      <point x="710" y="261" type="qcurve" smooth="yes"/>
      <point x="710" y="242"/>
    </contour>
    <contour>
      <point x="641" y="26" type="line"/>
      <point x="711" y="25" type="line"/>
      <point x="746" y="40"/>
      <point x="810" y="65" type="qcurve"/>
      <point x="861" y="81"/>
      <point x="909" y="81" type="qcurve" smooth="yes"/>
      <point x="957" y="81"/>
      <point x="957" y="66" type="qcurve"/>
      <point x="957" y="65"/>
      <point x="905" y="-11"/>
      <point x="906" y="-46" type="qcurve"/>
      <point x="906" y="-62"/>
      <point x="836" y="-62" type="qcurve" smooth="yes"/>
      <point x="766.469" y="-61.5742"/>
      <point x="751" y="-45" type="qcurve" smooth="yes"/>
      <point x="738.456" y="-31.5597"/>
      <point x="707" y="-1" type="qcurve"/>
      <point x="631" y="-1" type="line"/>
    </contour>
  </outline>
</glyph>
<glyph name="hhaa-ethi" format="2">
  <advance width="732"/>
  <unicode hex="1213"/>
  <unicode hex="F04C"/>
  <outline>
    <contour>
      <point x="689" y="221" type="qcurve" smooth="yes"/>
      <point x="658" y="0" type="line"/>
      <point x="540" y="0" type="line"/>
      <point x="569" y="267" type="line"/>
      <point x="569" y="314"/>
      <point x="549" y="347" type="qcurve" smooth="yes"/>
      <point x="524" y="388"/>
      <point x="477" y="388" type="qcurve" smooth="yes"/>
      <point x="467" y="388"/>
      <point x="457" y="386" type="qcurve"/>
      <point x="422" y="123" type="line"/>
      <point x="304" y="123" type="line"/>
      <point x="334" y="395" type="line"/>
      <point x="245" y="405"/>
      <point x="198" y="273" type="qcurve" smooth="yes"/>
      <point x="186" y="240"/>
      <point x="179" y="175" type="qcurve" smooth="yes"/>
      <point x="173" y="123" type="line"/>
      <point x="40" y="123" type="line"/>
      <point x="46" y="164"/>
      <point x="72" y="267" type="qcurve"/>
      <point x="93" y="335"/>
      <point x="151" y="374" type="qcurve" smooth="yes"/>
      <point x="200" y="407"/>
      <point x="257" y="409" type="qcurve" smooth="yes"/>
      <point x="338" y="412" type="line"/>
      <point x="376" y="731" type="line"/>
      <point x="505" y="742" type="line"/>
      <point x="463" y="409" type="line"/>
      <point x="547" y="412" type="line" smooth="yes"/>
      <point x="617" y="415"/>
      <point x="692" y="338"/>
      <point x="692" y="265" type="qcurve" smooth="yes"/>
      <point x="692" y="244"/>
    </contour>
  </outline>
</glyph>
<glyph name="hhe-ethi" format="2">
  <advance width="753"/>
  <unicode hex="1215"/>
  <unicode hex="F04D"/>
  <outline>
    <contour>
      <point x="710" y="234" type="qcurve" smooth="yes"/>
      <point x="677" y="0" type="line"/>
      <point x="558" y="0" type="line"/>
      <point x="587" y="267" type="line"/>
      <point x="587" y="317"/>
      <point x="569" y="352" type="qcurve" smooth="yes"/>
      <point x="546" y="396"/>
      <point x="498" y="396" type="qcurve" smooth="yes"/>
      <point x="489" y="396"/>
      <point x="480" y="395" type="qcurve"/>
      <point x="419" y="0" type="line"/>
      <point x="301" y="0" type="line"/>
      <point x="353" y="395" type="line"/>
      <point x="264" y="405"/>
      <point x="217" y="273" type="qcurve" smooth="yes"/>
      <point x="203" y="235"/>
      <point x="191" y="137" type="qcurve" smooth="yes"/>
      <point x="173" y="0" type="line"/>
      <point x="40" y="0" type="line"/>
      <point x="56" y="106"/>
      <point x="92" y="273" type="qcurve"/>
      <point x="131" y="397"/>
      <point x="277" y="412" type="qcurve"/>
      <point x="340" y="423"/>
      <point x="359" y="421" type="qcurve"/>
      <point x="359" y="420"/>
      <point x="385" y="586" type="qcurve"/>
      <point x="280" y="583" type="line"/>
      <point x="301" y="731" type="line"/>
      <point x="428" y="731" type="line"/>
      <point x="411" y="606" type="line"/>
      <point x="515" y="612" type="line"/>
      <point x="486" y="421" type="line"/>
      <point x="511" y="422"/>
      <point x="561" y="415" type="qcurve"/>
      <point x="713" y="403"/>
      <point x="713" y="274" type="qcurve" smooth="yes"/>
      <point x="713" y="255"/>
    </contour>
  </outline>
</glyph>
<glyph name="hho-ethi" format="2">
  <advance width="746"/>
  <unicode hex="1216"/>
  <unicode hex="F04E"/>
  <outline>
    <contour>
      <point x="704" y="231" type="qcurve"/>
      <point x="694" y="128" type="line"/>
      <point x="570" y="128" type="line"/>
      <point x="582" y="245"/>
      <point x="582" y="264" type="qcurve" smooth="yes"/>
      <point x="582" y="313"/>
      <point x="563" y="348" type="qcurve" smooth="yes"/>
      <point x="540" y="393"/>
      <point x="492" y="393" type="qcurve" smooth="yes"/>
      <point x="484" y="393"/>
      <point x="474" y="391" type="qcurve"/>
      <point x="434" y="128" type="line"/>
      <point x="315" y="128" type="line"/>
      <point x="347" y="380" type="line"/>
      <point x="254" y="391"/>
      <point x="211" y="270" type="qcurve" smooth="yes"/>
      <point x="192" y="217"/>
      <point x="185" y="133" type="qcurve" smooth="yes"/>
      <point x="173" y="0" type="line"/>
      <point x="40" y="0" type="line"/>
      <point x="46" y="61"/>
      <point x="53" y="111" type="qcurve" smooth="yes"/>
      <point x="68" y="229"/>
      <point x="80" y="267" type="qcurve" smooth="yes"/>
      <point x="101" y="334"/>
      <point x="169" y="375" type="qcurve" smooth="yes"/>
      <point x="222" y="406"/>
      <point x="286" y="414" type="qcurve" smooth="yes"/>
      <point x="353" y="423" type="line"/>
      <point x="393" y="730" type="line"/>
      <point x="521" y="733" type="line"/>
      <point x="483" y="426" type="line"/>
      <point x="509" y="427"/>
      <point x="559" y="423" type="qcurve"/>
      <point x="631" y="420"/>
      <point x="670" y="375" type="qcurve" smooth="yes"/>
      <point x="706" y="332"/>
      <point x="706" y="260" type="qcurve" smooth="yes"/>
      <point x="706" y="245"/>
    </contour>
  </outline>
</glyph>
<glyph name="ma-ethi" format="2">
  <advance width="943"/>
  <unicode hex="1218"/>
  <outline>
    <contour>
      <point x="901" y="557" type="qcurve"/>
      <point x="892" y="480"/>
      <point x="883" y="416" type="qcurve" smooth="yes"/>
      <point x="863" y="260"/>
      <point x="846" y="187" type="qcurve"/>
      <point x="837" y="144"/>
      <point x="792" y="123" type="qcurve" smooth="yes"/>
      <point x="757" y="106"/>
      <point x="698" y="92" type="qcurve" smooth="yes"/>
      <point x="647" y="81"/>
      <point x="627" y="81" type="qcurve" smooth="yes"/>
      <point x="507" y="81"/>
      <point x="507" y="167" type="qcurve" smooth="yes"/>
      <point x="507" y="175"/>
      <point x="508" y="184" type="qcurve" smooth="yes"/>
      <point x="574" y="647" type="line"/>
      <point x="564" y="675"/>
      <point x="508" y="675" type="qcurve" smooth="yes"/>
      <point x="450" y="675"/>
      <point x="447" y="654" type="qcurve" smooth="yes"/>
      <point x="372" y="190" type="line" smooth="yes"/>
      <point x="362" y="128"/>
      <point x="273" y="101" type="qcurve"/>
      <point x="230" y="89"/>
      <point x="145" y="83" type="qcurve" smooth="yes"/>
      <point x="85" y="79"/>
      <point x="57" y="119" type="qcurve"/>
      <point x="36" y="151"/>
      <point x="41" y="188" type="qcurve" smooth="yes"/>
      <point x="90" y="553" type="line" smooth="yes"/>
      <point x="97" y="605"/>
      <point x="145" y="650" type="qcurve" smooth="yes"/>
      <point x="189" y="692"/>
      <point x="242" y="704" type="qcurve" smooth="yes"/>
      <point x="274" y="711"/>
      <point x="326" y="711" type="qcurve" smooth="yes"/>
      <point x="371" y="711"/>
      <point x="429" y="698" type="qcurve"/>
      <point x="459" y="711"/>
      <point x="537" y="711" type="qcurve" smooth="yes"/>
      <point x="604" y="711"/>
      <point x="627" y="698" type="qcurve"/>
      <point x="758" y="707" type="line"/>
      <point x="821" y="707"/>
      <point x="903" y="637"/>
      <point x="903" y="579" type="qcurve" smooth="yes"/>
      <point x="903" y="568"/>
    </contour>
    <contour>
      <point x="694" y="665" type="qcurve"/>
      <point x="627" y="200" type="line"/>
      <point x="625" y="181"/>
      <point x="645" y="131"/>
      <point x="662" y="128" type="qcurve"/>
      <point x="689" y="125"/>
      <point x="708" y="151" type="qcurve" smooth="yes"/>
      <point x="724" y="173"/>
      <point x="728" y="202" type="qcurve" smooth="yes"/>
      <point x="774" y="562" type="line"/>
      <point x="778" y="587"/>
      <point x="778" y="604" type="qcurve" smooth="yes"/>
      <point x="778" y="667"/>
      <point x="721" y="667" type="qcurve" smooth="yes"/>
      <point x="709" y="667"/>
    </contour>
    <contour>
      <point x="326" y="658" type="line"/>
      <point x="313" y="663"/>
      <point x="292" y="663" type="qcurve" smooth="yes"/>
      <point x="228" y="663"/>
      <point x="210" y="538" type="qcurve" smooth="yes"/>
      <point x="159" y="184" type="line" smooth="yes"/>
      <point x="156" y="162"/>
      <point x="183" y="128"/>
      <point x="199" y="128" type="qcurve" smooth="yes"/>
      <point x="218" y="128"/>
      <point x="257" y="176"/>
      <point x="262" y="212" type="qcurve" smooth="yes"/>
    </contour>
  </outline>
</glyph>
<glyph name="mu-ethi" format="2">
  <advance width="1151"/>
  <unicode hex="1219"/>
  <unicode hex="F050"/>
  <outline>
    <contour>
      <point x="694" y="658" type="qcurve"/>
      <point x="627" y="193" type="line"/>
      <point x="625" y="174"/>
      <point x="645" y="124"/>
      <point x="662" y="121" type="qcurve"/>
      <point x="689" y="118"/>
      <point x="708" y="144" type="qcurve" smooth="yes"/>
      <point x="724" y="166"/>
      <point x="728" y="195" type="qcurve" smooth="yes"/>
      <point x="774" y="555" type="line"/>
      <point x="778" y="580"/>
      <point x="778" y="597" type="qcurve" smooth="yes"/>
      <point x="778" y="660"/>
      <point x="721" y="660" type="qcurve" smooth="yes"/>
      <point x="709" y="660"/>
    </contour>
    <contour>
      <point x="326" y="651" type="line"/>
      <point x="313" y="656"/>
      <point x="292" y="656" type="qcurve" smooth="yes"/>
      <point x="228" y="656"/>
      <point x="210" y="531" type="qcurve" smooth="yes"/>
      <point x="159" y="177" type="line" smooth="yes"/>
      <point x="156" y="155"/>
      <point x="183" y="121"/>
      <point x="199" y="121" type="qcurve" smooth="yes"/>
      <point x="218" y="121"/>
      <point x="257" y="169"/>
      <point x="262" y="205" type="qcurve" smooth="yes"/>
    </contour>
    <contour>
      <point x="887" y="454" type="line"/>
      <point x="954" y="454" type="line"/>
      <point x="978" y="463"/>
      <point x="1051" y="463" type="qcurve" smooth="yes"/>
      <point x="1111" y="463"/>
      <point x="1111" y="448" type="qcurve" smooth="yes"/>
      <point x="1111" y="446"/>
      <point x="1110" y="444" type="qcurve" smooth="yes"/>
      <point x="1083" y="399"/>
      <point x="1080" y="393" type="qcurve" smooth="yes"/>
      <point x="1063" y="354"/>
      <point x="1066" y="312" type="qcurve"/>
      <point x="1066" y="304"/>
      <point x="1052" y="304" type="qcurve" smooth="yes"/>
      <point x="1035" y="304"/>
      <point x="985" y="323"/>
      <point x="962" y="348"/>
      <point x="924" y="412" type="qcurve"/>
      <point x="881" y="412" type="line"/>
      <point x="846" y="180" type="line" smooth="yes"/>
      <point x="839" y="132"/>
      <point x="754" y="100" type="qcurve" smooth="yes"/>
      <point x="685" y="74"/>
      <point x="627" y="74" type="qcurve" smooth="yes"/>
      <point x="507" y="74"/>
      <point x="507" y="160" type="qcurve" smooth="yes"/>
      <point x="507" y="168"/>
      <point x="508" y="177" type="qcurve" smooth="yes"/>
      <point x="574" y="640" type="line"/>
      <point x="564" y="668"/>
      <point x="508" y="668" type="qcurve" smooth="yes"/>
      <point x="450" y="668"/>
      <point x="447" y="647" type="qcurve" smooth="yes"/>
      <point x="372" y="183" type="line" smooth="yes"/>
      <point x="362" y="121"/>
      <point x="273" y="94" type="qcurve"/>
      <point x="230" y="82"/>
      <point x="145" y="76" type="qcurve" smooth="yes"/>
      <point x="85" y="72"/>
      <point x="57" y="112" type="qcurve"/>
      <point x="36" y="144"/>
      <point x="41" y="181" type="qcurve" smooth="yes"/>
      <point x="90" y="546" type="line" smooth="yes"/>
      <point x="97" y="598"/>
      <point x="145" y="643" type="qcurve" smooth="yes"/>
      <point x="189" y="685"/>
      <point x="242" y="697" type="qcurve" smooth="yes"/>
      <point x="274" y="704"/>
      <point x="326" y="704" type="qcurve" smooth="yes"/>
      <point x="371" y="704"/>
      <point x="429" y="691" type="qcurve"/>
      <point x="452" y="701"/>
      <point x="535" y="704" type="qcurve"/>
      <point x="528" y="704"/>
      <point x="537" y="704" type="qcurve" smooth="yes"/>
      <point x="548" y="704" type="line"/>
      <point x="535" y="704" type="line"/>
      <point x="563" y="702"/>
      <point x="581" y="700" type="qcurve" smooth="yes"/>
      <point x="616" y="697"/>
      <point x="627" y="691" type="qcurve"/>
      <point x="758" y="700" type="line" smooth="yes"/>
      <point x="820" y="705"/>
      <point x="903" y="631"/>
      <point x="903" y="572" type="qcurve" smooth="yes"/>
      <point x="903" y="561"/>
      <point x="901" y="550" type="qcurve" smooth="yes"/>
    </contour>
  </outline>
</glyph>
<glyph name="maa-ethi" format="2">
  <advance width="912"/>
  <unicode hex="121B"/>
  <outline>
    <contour>
      <point x="670" y="2" type="line"/>
      <point x="704" y="259" type="line"/>
      <point x="672" y="244"/>
      <point x="631" y="244" type="qcurve" smooth="yes"/>
      <point x="579" y="244"/>
      <point x="546" y="268" type="qcurve" smooth="yes"/>
      <point x="508" y="295"/>
      <point x="508" y="349" type="qcurve" smooth="yes"/>
      <point x="508" y="358"/>
      <point x="509" y="367" type="qcurve" smooth="yes"/>
      <point x="545" y="693" type="line"/>
      <point x="523" y="705"/>
      <point x="494" y="705" type="qcurve" smooth="yes"/>
      <point x="451" y="705"/>
      <point x="423" y="682" type="qcurve"/>
      <point x="377" y="376" type="line" smooth="yes"/>
      <point x="368" y="317"/>
      <point x="251" y="247"/>
      <point x="165" y="246" type="qcurve" smooth="yes"/>
      <point x="99" y="245"/>
      <point x="40" y="288"/>
      <point x="40" y="339" type="qcurve" smooth="yes"/>
      <point x="40" y="351"/>
      <point x="42" y="365" type="qcurve"/>
      <point x="48" y="428"/>
      <point x="54" y="490" type="qcurve"/>
      <point x="63" y="567"/>
      <point x="83" y="615" type="qcurve" smooth="yes"/>
      <point x="109" y="679"/>
      <point x="158" y="711" type="qcurve"/>
      <point x="173" y="722"/>
      <point x="255" y="744"/>
      <point x="275" y="744" type="qcurve" smooth="yes"/>
      <point x="292" y="744"/>
      <point x="363" y="721"/>
      <point x="380" y="721" type="qcurve" smooth="yes"/>
      <point x="402" y="721"/>
      <point x="490" y="744"/>
      <point x="513" y="744" type="qcurve" smooth="yes"/>
      <point x="532" y="744"/>
      <point x="608" y="728"/>
      <point x="628" y="728" type="qcurve" smooth="yes"/>
      <point x="643" y="728"/>
      <point x="703" y="744"/>
      <point x="719" y="744" type="qcurve" smooth="yes"/>
      <point x="777" y="744"/>
      <point x="822" y="707" type="qcurve" smooth="yes"/>
      <point x="872" y="667"/>
      <point x="872" y="606" type="qcurve" smooth="yes"/>
      <point x="872" y="597"/>
      <point x="871" y="588" type="qcurve" smooth="yes"/>
      <point x="792" y="2" type="line"/>
    </contour>
    <contour>
      <point x="675" y="690" type="qcurve"/>
      <point x="659" y="614"/>
      <point x="621" y="339" type="qcurve" smooth="yes"/>
      <point x="615" y="299"/>
      <point x="660" y="296" type="qcurve" smooth="yes"/>
      <point x="688" y="294"/>
      <point x="715" y="318" type="qcurve"/>
      <point x="754" y="625" type="line" smooth="yes"/>
      <point x="759" y="663"/>
      <point x="733" y="680" type="qcurve" smooth="yes"/>
      <point x="711" y="694"/>
    </contour>
    <contour>
      <point x="303" y="693" type="line"/>
      <point x="295" y="694"/>
      <point x="287" y="694" type="qcurve" smooth="yes"/>
      <point x="228" y="694"/>
      <point x="204" y="636" type="qcurve" smooth="yes"/>
      <point x="196" y="618"/>
      <point x="190" y="569" type="qcurve"/>
      <point x="160" y="352" type="line"/>
      <point x="159" y="342"/>
      <point x="159" y="334" type="qcurve" smooth="yes"/>
      <point x="159" y="286"/>
      <point x="200" y="290" type="qcurve" smooth="yes"/>
      <point x="248" y="294"/>
      <point x="258" y="366" type="qcurve" smooth="yes"/>
    </contour>
  </outline>
</glyph>
<glyph name="mee-ethi" format="2">
  <advance width="1077"/>
  <unicode hex="121C"/>
  <outline>
    <contour>
      <point x="675" y="674" type="qcurve"/>
      <point x="659" y="599"/>
      <point x="621" y="324" type="qcurve" smooth="yes"/>
      <point x="615" y="283"/>
      <point x="660" y="280" type="qcurve" smooth="yes"/>
      <point x="688" y="278"/>
      <point x="715" y="303" type="qcurve"/>
      <point x="754" y="609" type="line" smooth="yes"/>
      <point x="759" y="648"/>
      <point x="733" y="665" type="qcurve"/>
      <point x="711" y="678"/>
    </contour>
    <contour>
      <point x="303" y="678" type="line"/>
      <point x="295" y="679"/>
      <point x="287" y="679" type="qcurve" smooth="yes"/>
      <point x="228" y="679"/>
      <point x="204" y="621" type="qcurve" smooth="yes"/>
      <point x="196" y="602"/>
      <point x="190" y="553" type="qcurve"/>
      <point x="160" y="336" type="line"/>
      <point x="159" y="327"/>
      <point x="159" y="318" type="qcurve" smooth="yes"/>
      <point x="159" y="270"/>
      <point x="200" y="274" type="qcurve" smooth="yes"/>
      <point x="248" y="278"/>
      <point x="258" y="350" type="qcurve" smooth="yes"/>
    </contour>
    <contour>
      <point x="1036" y="81" type="qcurve"/>
      <point x="1040" y="54"/>
      <point x="1000" y="2"/>
      <point x="977" y="-2" type="qcurve"/>
      <point x="936" y="-7"/>
      <point x="833" y="-4" type="qcurve" smooth="yes"/>
      <point x="782" y="-3"/>
      <point x="730" y="-2" type="qcurve"/>
      <point x="681" y="6"/>
      <point x="681" y="53" type="qcurve" smooth="yes"/>
      <point x="681" y="60"/>
      <point x="682" y="68" type="qcurve" smooth="yes"/>
      <point x="704" y="243" type="line"/>
      <point x="672" y="228"/>
      <point x="631" y="228" type="qcurve" smooth="yes"/>
      <point x="579" y="228"/>
      <point x="546" y="252" type="qcurve" smooth="yes"/>
      <point x="508" y="280"/>
      <point x="508" y="334" type="qcurve" smooth="yes"/>
      <point x="508" y="342"/>
      <point x="509" y="351" type="qcurve" smooth="yes"/>
      <point x="545" y="678" type="line"/>
      <point x="523" y="689"/>
      <point x="494" y="689" type="qcurve" smooth="yes"/>
      <point x="451" y="689"/>
      <point x="423" y="666" type="qcurve"/>
      <point x="377" y="361" type="line" smooth="yes"/>
      <point x="368" y="302"/>
      <point x="251" y="232"/>
      <point x="165" y="230" type="qcurve"/>
      <point x="99" y="230"/>
      <point x="40" y="272"/>
      <point x="40" y="323" type="qcurve" smooth="yes"/>
      <point x="40" y="335"/>
      <point x="42" y="350" type="qcurve"/>
      <point x="48" y="412"/>
      <point x="54" y="474" type="qcurve"/>
      <point x="63" y="551"/>
      <point x="83" y="600" type="qcurve" smooth="yes"/>
      <point x="109" y="663"/>
      <point x="158" y="696" type="qcurve" smooth="yes"/>
      <point x="173" y="706"/>
      <point x="255" y="728"/>
      <point x="275" y="728" type="qcurve" smooth="yes"/>
      <point x="292" y="728"/>
      <point x="363" y="705"/>
      <point x="380" y="705" type="qcurve" smooth="yes"/>
      <point x="402" y="705"/>
      <point x="490" y="728"/>
      <point x="513" y="728" type="qcurve" smooth="yes"/>
      <point x="532" y="728"/>
      <point x="608" y="712"/>
      <point x="628" y="712" type="qcurve" smooth="yes"/>
      <point x="643" y="712"/>
      <point x="703" y="728"/>
      <point x="719" y="728" type="qcurve" smooth="yes"/>
      <point x="777" y="728"/>
      <point x="820" y="693" type="qcurve" smooth="yes"/>
      <point x="867" y="655"/>
      <point x="867" y="595" type="qcurve" smooth="yes"/>
      <point x="867" y="586"/>
      <point x="865" y="577" type="qcurve"/>
      <point x="814" y="152" type="line"/>
      <point x="829" y="153"/>
      <point x="914" y="175" type="qcurve" smooth="yes"/>
      <point x="956" y="186"/>
      <point x="985" y="169" type="qcurve" smooth="yes"/>
      <point x="1029" y="143"/>
    </contour>
    <contour>
      <point x="900" y="50" type="qcurve"/>
      <point x="907" y="56"/>
      <point x="904" y="81" type="qcurve" smooth="yes"/>
      <point x="901" y="105"/>
      <point x="895" y="113" type="qcurve" smooth="yes"/>
      <point x="879" y="134"/>
      <point x="850" y="134" type="qcurve" smooth="yes"/>
      <point x="808" y="134"/>
      <point x="803" y="91" type="qcurve" smooth="yes"/>
      <point x="800" y="63"/>
      <point x="809" y="33" type="qcurve"/>
      <point x="813" y="28"/>
      <point x="845" y="28" type="qcurve" smooth="yes"/>
      <point x="877" y="28"/>
    </contour>
  </outline>
</glyph>
<glyph name="me-ethi" format="2">
  <advance width="916"/>
  <unicode hex="121D"/>
  <outline>
    <contour>
      <point x="681" y="708" type="qcurve"/>
      <point x="628" y="458"/>
      <point x="628" y="362" type="qcurve" smooth="yes"/>
      <point x="628" y="348"/>
      <point x="630" y="344" type="qcurve"/>
      <point x="627" y="303"/>
      <point x="669" y="300" type="qcurve" smooth="yes"/>
      <point x="683" y="299"/>
      <point x="728" y="334"/>
      <point x="730" y="354" type="qcurve" smooth="yes"/>
      <point x="757" y="626" type="line" smooth="yes"/>
      <point x="766" y="711"/>
      <point x="700" y="711" type="qcurve" smooth="yes"/>
      <point x="691" y="711"/>
    </contour>
    <contour>
      <point x="307" y="703" type="line"/>
      <point x="299" y="704"/>
      <point x="291" y="704" type="qcurve" smooth="yes"/>
      <point x="232" y="704"/>
      <point x="207" y="643" type="qcurve" smooth="yes"/>
      <point x="200" y="625"/>
      <point x="192" y="573" type="qcurve"/>
      <point x="161" y="349" type="line"/>
      <point x="159" y="342"/>
      <point x="159" y="335" type="qcurve" smooth="yes"/>
      <point x="159" y="283"/>
      <point x="207" y="287" type="qcurve" smooth="yes"/>
      <point x="256" y="291"/>
      <point x="265" y="363" type="qcurve" smooth="yes"/>
    </contour>
    <contour>
      <point x="44" y="369" type="qcurve" smooth="yes"/>
      <point x="61" y="524"/>
      <point x="70" y="559" type="qcurve" smooth="yes"/>
      <point x="98" y="669"/>
      <point x="166" y="716" type="qcurve"/>
      <point x="182" y="726"/>
      <point x="264" y="748"/>
      <point x="284" y="748" type="qcurve" smooth="yes"/>
      <point x="301" y="748"/>
      <point x="372" y="732"/>
      <point x="389" y="732" type="qcurve" smooth="yes"/>
      <point x="411" y="732"/>
      <point x="499" y="748"/>
      <point x="522" y="748" type="qcurve" smooth="yes"/>
      <point x="541" y="748"/>
      <point x="617" y="732"/>
      <point x="636" y="732" type="qcurve" smooth="yes"/>
      <point x="652" y="732"/>
      <point x="712" y="748"/>
      <point x="728" y="748" type="qcurve" smooth="yes"/>
      <point x="786" y="748"/>
      <point x="829" y="714" type="qcurve" smooth="yes"/>
      <point x="876" y="676"/>
      <point x="876" y="617" type="qcurve" smooth="yes"/>
      <point x="876" y="607"/>
      <point x="874" y="597" type="qcurve"/>
      <point x="844" y="379" type="line"/>
      <point x="837" y="357"/>
      <point x="825" y="339" type="qcurve" smooth="yes"/>
      <point x="796" y="297"/>
      <point x="749" y="281" type="qcurve" smooth="yes"/>
      <point x="674" y="256"/>
      <point x="625" y="256" type="qcurve" smooth="yes"/>
      <point x="572" y="256"/>
      <point x="547" y="272" type="qcurve" smooth="yes"/>
      <point x="516" y="293"/>
      <point x="516" y="346" type="qcurve" smooth="yes"/>
      <point x="516" y="358"/>
      <point x="518" y="371" type="qcurve"/>
      <point x="554" y="698" type="line"/>
      <point x="525" y="712"/>
      <point x="489" y="712" type="qcurve" smooth="yes"/>
      <point x="448" y="712"/>
      <point x="425" y="693" type="qcurve"/>
      <point x="393" y="451" type="line"/>
      <point x="382" y="375"/>
      <point x="356" y="306" type="qcurve" smooth="yes"/>
      <point x="351" y="293"/>
      <point x="294" y="200" type="qcurve" smooth="yes"/>
      <point x="170" y="0" type="line"/>
      <point x="40" y="0" type="line"/>
      <point x="208" y="242" type="line"/>
      <point x="116" y="245"/>
      <point x="84" y="260" type="qcurve" smooth="yes"/>
      <point x="42" y="281"/>
      <point x="42" y="341" type="qcurve" smooth="yes"/>
      <point x="42" y="354"/>
    </contour>
  </outline>
</glyph>
<glyph name="mo-ethi" format="2">
  <advance width="921"/>
  <unicode hex="121E"/>
  <outline>
    <contour>
      <point x="684" y="687" type="qcurve"/>
      <point x="667" y="612"/>
      <point x="630" y="337" type="qcurve" smooth="yes"/>
      <point x="624" y="297"/>
      <point x="669" y="294" type="qcurve" smooth="yes"/>
      <point x="720" y="290"/>
      <point x="730" y="365" type="qcurve" smooth="yes"/>
      <point x="763" y="622" type="line" smooth="yes"/>
      <point x="768" y="661"/>
      <point x="741" y="678" type="qcurve" smooth="yes"/>
      <point x="719" y="692"/>
    </contour>
    <contour>
      <point x="312" y="691" type="line"/>
      <point x="303" y="692"/>
      <point x="295" y="692" type="qcurve" smooth="yes"/>
      <point x="237" y="692"/>
      <point x="213" y="634" type="qcurve" smooth="yes"/>
      <point x="207" y="620"/>
      <point x="198" y="566" type="qcurve" smooth="yes"/>
      <point x="163" y="351" type="line"/>
      <point x="161" y="342"/>
      <point x="161" y="335" type="qcurve" smooth="yes"/>
      <point x="161" y="283"/>
      <point x="209" y="287" type="qcurve" smooth="yes"/>
      <point x="254" y="291"/>
      <point x="264" y="362" type="qcurve" smooth="yes"/>
    </contour>
    <contour>
      <point x="709" y="261" type="qcurve" smooth="yes"/>
      <point x="663" y="250"/>
      <point x="625" y="250" type="qcurve" smooth="yes"/>
      <point x="508" y="250"/>
      <point x="508" y="350" type="qcurve" smooth="yes"/>
      <point x="508" y="363"/>
      <point x="510" y="377" type="qcurve" smooth="yes"/>
      <point x="554" y="691" type="line"/>
      <point x="531" y="702"/>
      <point x="499" y="702" type="qcurve" smooth="yes"/>
      <point x="451" y="702"/>
      <point x="423" y="680" type="qcurve"/>
      <point x="324" y="-1" type="line"/>
      <point x="203" y="-2" type="line"/>
      <point x="235" y="250" type="line"/>
      <point x="206" y="247"/>
      <point x="181" y="247" type="qcurve" smooth="yes"/>
      <point x="40" y="247"/>
      <point x="40" y="342" type="qcurve" smooth="yes"/>
      <point x="40" y="352"/>
      <point x="41" y="362" type="qcurve"/>
      <point x="64" y="529"/>
      <point x="70" y="552" type="qcurve" smooth="yes"/>
      <point x="98" y="663"/>
      <point x="166" y="709" type="qcurve"/>
      <point x="181" y="720"/>
      <point x="263" y="741"/>
      <point x="283" y="741" type="qcurve" smooth="yes"/>
      <point x="301" y="741"/>
      <point x="371" y="719"/>
      <point x="389" y="719" type="qcurve" smooth="yes"/>
      <point x="411" y="719"/>
      <point x="499" y="741"/>
      <point x="521" y="741" type="qcurve" smooth="yes"/>
      <point x="540" y="741"/>
      <point x="617" y="725"/>
      <point x="636" y="725" type="qcurve" smooth="yes"/>
      <point x="651" y="725"/>
      <point x="712" y="741"/>
      <point x="727" y="741" type="qcurve" smooth="yes"/>
      <point x="791" y="741"/>
      <point x="837" y="701" type="qcurve" smooth="yes"/>
      <point x="888" y="656"/>
      <point x="880" y="588" type="qcurve" smooth="yes"/>
      <point x="860" y="412" type="line" smooth="yes"/>
      <point x="852" y="344"/>
      <point x="811" y="307" type="qcurve" smooth="yes"/>
      <point x="777" y="277"/>
    </contour>
  </outline>
</glyph>
<glyph name="mwa-ethi" format="2">
  <advance width="1023"/>
  <unicode hex="121F"/>
  <outline>
    <contour>
      <point x="981" y="-90" type="qcurve"/>
      <point x="983" y="-94"/>
      <point x="983" y="-96" type="qcurve" smooth="yes"/>
      <point x="983" y="-109"/>
      <point x="957" y="-109" type="qcurve" smooth="yes"/>
      <point x="923" y="-109"/>
      <point x="890" y="-87" type="qcurve" smooth="yes"/>
      <point x="849" y="-59"/>
      <point x="836" y="-12" type="qcurve"/>
      <point x="624" y="-12" type="line"/>
      <point x="612" y="-59"/>
      <point x="570" y="-86" type="qcurve" smooth="yes"/>
      <point x="536" y="-108"/>
      <point x="501" y="-108" type="qcurve" smooth="yes"/>
      <point x="472" y="-108"/>
      <point x="472" y="-94" type="qcurve" smooth="yes"/>
      <point x="472" y="-91"/>
      <point x="474" y="-87" type="qcurve" smooth="yes"/>
      <point x="493" y="-51"/>
      <point x="513" y="12" type="qcurve"/>
      <point x="668" y="12" type="line"/>
      <point x="704" y="259" type="line"/>
      <point x="672" y="244"/>
      <point x="631" y="244" type="qcurve" smooth="yes"/>
      <point x="579" y="244"/>
      <point x="546" y="268" type="qcurve" smooth="yes"/>
      <point x="508" y="295"/>
      <point x="508" y="349" type="qcurve" smooth="yes"/>
      <point x="508" y="358"/>
      <point x="509" y="367" type="qcurve" smooth="yes"/>
      <point x="545" y="693" type="line"/>
      <point x="523" y="705"/>
      <point x="494" y="705" type="qcurve" smooth="yes"/>
      <point x="451" y="705"/>
      <point x="423" y="682" type="qcurve"/>
      <point x="377" y="376" type="line" smooth="yes"/>
      <point x="368" y="317"/>
      <point x="251" y="247"/>
      <point x="165" y="246" type="qcurve" smooth="yes"/>
      <point x="99" y="245"/>
      <point x="40" y="288"/>
      <point x="40" y="339" type="qcurve" smooth="yes"/>
      <point x="40" y="351"/>
      <point x="42" y="365" type="qcurve"/>
      <point x="48" y="428"/>
      <point x="54" y="490" type="qcurve"/>
      <point x="63" y="567"/>
      <point x="83" y="615" type="qcurve" smooth="yes"/>
      <point x="109" y="679"/>
      <point x="158" y="711" type="qcurve"/>
      <point x="173" y="722"/>
      <point x="255" y="744"/>
      <point x="275" y="744" type="qcurve" smooth="yes"/>
      <point x="292" y="744"/>
      <point x="363" y="721"/>
      <point x="380" y="721" type="qcurve" smooth="yes"/>
      <point x="402" y="721"/>
      <point x="490" y="744"/>
      <point x="513" y="744" type="qcurve" smooth="yes"/>
      <point x="532" y="744"/>
      <point x="608" y="728"/>
      <point x="628" y="728" type="qcurve" smooth="yes"/>
      <point x="643" y="728"/>
      <point x="703" y="744"/>
      <point x="719" y="744" type="qcurve" smooth="yes"/>
      <point x="777" y="744"/>
      <point x="822" y="707" type="qcurve" smooth="yes"/>
      <point x="872" y="667"/>
      <point x="872" y="607" type="qcurve" smooth="yes"/>
      <point x="872" y="597"/>
      <point x="871" y="588" type="qcurve"/>
      <point x="790" y="12" type="line"/>
      <point x="946" y="12" type="line"/>
      <point x="957" y="-27"/>
    </contour>
    <contour>
      <point x="754" y="625" type="line" smooth="yes"/>
      <point x="759" y="663"/>
      <point x="733" y="680" type="qcurve" smooth="yes"/>
      <point x="711" y="694"/>
      <point x="675" y="690" type="qcurve"/>
      <point x="659" y="614"/>
      <point x="621" y="339" type="qcurve" smooth="yes"/>
      <point x="615" y="299"/>
      <point x="660" y="296" type="qcurve" smooth="yes"/>
      <point x="688" y="294"/>
      <point x="715" y="318" type="qcurve"/>
    </contour>
    <contour>
      <point x="303" y="693" type="line"/>
      <point x="295" y="694"/>
      <point x="287" y="694" type="qcurve" smooth="yes"/>
      <point x="228" y="694"/>
      <point x="204" y="636" type="qcurve" smooth="yes"/>
      <point x="196" y="618"/>
      <point x="190" y="569" type="qcurve"/>
      <point x="160" y="352" type="line"/>
      <point x="159" y="342"/>
      <point x="159" y="334" type="qcurve" smooth="yes"/>
      <point x="159" y="286"/>
      <point x="200" y="290" type="qcurve" smooth="yes"/>
      <point x="248" y="294"/>
      <point x="258" y="366" type="qcurve" smooth="yes"/>
    </contour>
  </outline>
</glyph>
<glyph name="sza-ethi" format="2">
  <advance width="817"/>
  <unicode hex="1220"/>
  <outline>
    <contour>
      <point x="784" y="701" type="line"/>
      <point x="655" y="701" type="line"/>
      <point x="617" y="357" type="line" smooth="yes"/>
      <point x="611" y="305"/>
      <point x="583" y="266" type="qcurve" smooth="yes"/>
      <point x="553" y="224"/>
      <point x="509" y="219" type="qcurve" smooth="yes"/>
      <point x="488" y="217"/>
      <point x="467" y="236" type="qcurve"/>
      <point x="442" y="257"/>
      <point x="446" y="288" type="qcurve" smooth="yes"/>
      <point x="502" y="701" type="line"/>
      <point x="381" y="698" type="line"/>
      <point x="319" y="246" type="line" smooth="yes"/>
      <point x="307" y="160"/>
      <point x="220" y="147" type="qcurve" smooth="yes"/>
      <point x="153" y="138"/>
      <point x="153" y="203" type="qcurve" smooth="yes"/>
      <point x="153" y="212"/>
      <point x="155" y="223" type="qcurve"/>
      <point x="224" y="694" type="line"/>
      <point x="99" y="691" type="line"/>
      <point x="40" y="218" type="line"/>
      <point x="40" y="171"/>
      <point x="58" y="132" type="qcurve" smooth="yes"/>
      <point x="84" y="75"/>
      <point x="139" y="75" type="qcurve" smooth="yes"/>
      <point x="217" y="75"/>
      <point x="374" y="174" type="qcurve"/>
      <point x="385" y="172"/>
      <point x="398" y="172" type="qcurve" smooth="yes"/>
      <point x="456" y="172"/>
      <point x="600" y="216" type="qcurve"/>
      <point x="636" y="226"/>
      <point x="672" y="236" type="qcurve"/>
      <point x="704" y="247"/>
      <point x="720" y="270" type="qcurve" smooth="yes"/>
      <point x="738" y="297"/>
      <point x="745" y="354" type="qcurve" smooth="yes"/>
    </contour>
  </outline>
</glyph>
<glyph name="szu-ethi" format="2">
  <advance width="817"/>
  <unicode hex="1221"/>
  <outline>
    <contour>
      <point x="784" y="701" type="line"/>
      <point x="655" y="701" type="line"/>
      <point x="617" y="357" type="line" smooth="yes"/>
      <point x="611" y="305"/>
      <point x="583" y="266" type="qcurve" smooth="yes"/>
      <point x="553" y="224"/>
      <point x="509" y="219" type="qcurve" smooth="yes"/>
      <point x="488" y="217"/>
      <point x="467" y="236" type="qcurve"/>
      <point x="442" y="257"/>
      <point x="446" y="288" type="qcurve" smooth="yes"/>
      <point x="502" y="701" type="line"/>
      <point x="381" y="698" type="line"/>
      <point x="319" y="246" type="line" smooth="yes"/>
      <point x="307" y="160"/>
      <point x="220" y="147" type="qcurve" smooth="yes"/>
      <point x="153" y="138"/>
      <point x="153" y="203" type="qcurve" smooth="yes"/>
      <point x="153" y="212"/>
      <point x="155" y="223" type="qcurve"/>
      <point x="224" y="694" type="line"/>
      <point x="99" y="691" type="line"/>
      <point x="40" y="218" type="line"/>
      <point x="40" y="171"/>
      <point x="58" y="132" type="qcurve" smooth="yes"/>
      <point x="84" y="75"/>
      <point x="139" y="75" type="qcurve" smooth="yes"/>
      <point x="217" y="75"/>
      <point x="374" y="174" type="qcurve"/>
      <point x="385" y="172"/>
      <point x="398" y="172" type="qcurve" smooth="yes"/>
      <point x="456" y="172"/>
      <point x="600" y="216" type="qcurve"/>
      <point x="636" y="226"/>
      <point x="672" y="236" type="qcurve"/>
      <point x="704" y="247"/>
      <point x="720" y="270" type="qcurve" smooth="yes"/>
      <point x="738" y="297"/>
      <point x="745" y="354" type="qcurve" smooth="yes"/>
    </contour>
    <contour>
      <point x="698" y="284" type="line"/>
      <point x="768" y="283" type="line"/>
      <point x="776" y="284"/>
      <point x="812" y="294" type="qcurve"/>
      <point x="860" y="310"/>
      <point x="899" y="310" type="qcurve" smooth="yes"/>
      <point x="940" y="310"/>
      <point x="940" y="295" type="qcurve" smooth="yes"/>
      <point x="939.865" y="292.086"/>
      <point x="938" y="289" type="qcurve" smooth="yes"/>
      <point x="910.71" y="244.152"/>
      <point x="908" y="238" type="qcurve" smooth="yes"/>
      <point x="890.513" y="199.041"/>
      <point x="894" y="157" type="qcurve" smooth="yes"/>
      <point x="894.666" y="148.985"/>
      <point x="882" y="149" type="qcurve" smooth="yes"/>
      <point x="866" y="149.019"/>
      <point x="818" y="170"/>
      <point x="794" y="195"/>
      <point x="770" y="257" type="qcurve"/>
      <point x="688" y="257" type="line"/>
    </contour>
  </outline>
</glyph>
<glyph name="szee-ethi" format="2">
  <advance width="787"/>
  <unicode hex="1224"/>
  <outline>
    <contour>
      <point x="520" y="0" type="line"/>
      <point x="655" y="0" type="line"/>
      <point x="756" y="731" type="line"/>
      <point x="628" y="731" type="line"/>
      <point x="602" y="488" type="line" smooth="yes"/>
      <point x="596" y="433"/>
      <point x="582" y="408" type="qcurve" smooth="yes"/>
      <point x="563" y="375"/>
      <point x="517" y="364" type="qcurve" smooth="yes"/>
      <point x="513" y="363"/>
      <point x="507" y="363" type="qcurve" smooth="yes"/>
      <point x="484" y="363"/>
      <point x="466" y="376" type="qcurve" smooth="yes"/>
      <point x="444" y="392"/>
      <point x="448" y="419" type="qcurve" smooth="yes"/>
      <point x="491" y="731" type="line"/>
      <point x="370" y="727" type="line"/>
      <point x="320" y="377" type="line" smooth="yes"/>
      <point x="308" y="291"/>
      <point x="222" y="279" type="qcurve" smooth="yes"/>
      <point x="155" y="269"/>
      <point x="155" y="334" type="qcurve" smooth="yes"/>
      <point x="155" y="343"/>
      <point x="157" y="354" type="qcurve"/>
      <point x="212" y="724" type="line"/>
      <point x="88" y="721" type="line"/>
      <point x="42" y="349" type="line" smooth="yes"/>
      <point x="40" y="335"/>
      <point x="40" y="322" type="qcurve" smooth="yes"/>
      <point x="40" y="220"/>
      <point x="134" y="220" type="qcurve" smooth="yes"/>
      <point x="218" y="220"/>
      <point x="386" y="324" type="qcurve"/>
      <point x="398" y="323"/>
      <point x="414" y="323" type="qcurve" smooth="yes"/>
      <point x="475" y="323"/>
      <point x="576" y="344" type="qcurve"/>
    </contour>
    <contour>
      <point x="886" y="79" type="qcurve" smooth="yes"/>
      <point x="886" y="51"/>
      <point x="847" y="0"/>
      <point x="825" y="0" type="qcurve" smooth="yes"/>
      <point x="618" y="0" type="line"/>
      <point x="618" y="154" type="line"/>
      <point x="684" y="158" type="line"/>
      <point x="692.041" y="157.754"/>
      <point x="741" y="166" type="qcurve" smooth="yes"/>
      <point x="787.039" y="173.948"/>
      <point x="798" y="174" type="qcurve" smooth="yes"/>
      <point x="838.727" y="174.002"/>
      <point x="865" y="137" type="qcurve" smooth="yes"/>
      <point x="885.729" y="107.806"/>
    </contour>
    <contour>
      <point x="750" y="48" type="qcurve"/>
      <point x="757" y="54"/>
      <point x="756" y="82" type="qcurve"/>
      <point x="756" y="110"/>
      <point x="750" y="118" type="qcurve" smooth="yes"/>
      <point x="732" y="142"/>
      <point x="699" y="142" type="qcurve" smooth="yes"/>
      <point x="670" y="142"/>
      <point x="630" y="93"/>
      <point x="630" y="70" type="qcurve" smooth="yes"/>
      <point x="630" y="57"/>
      <point x="666" y="23"/>
      <point x="687" y="23" type="qcurve" smooth="yes"/>
      <point x="725" y="23"/>
    </contour>
  </outline>
</glyph>
<glyph name="sze-ethi" format="2">
  <advance width="974"/>
  <unicode hex="1225"/>
  <unicode hex="F059"/>
  <outline>
    <contour>
      <point x="279" y="232" type="line"/>
      <point x="290" y="231"/>
      <point x="302" y="231" type="qcurve" smooth="yes"/>
      <point x="347" y="231"/>
      <point x="404" y="252" type="qcurve" smooth="yes"/>
      <point x="473" y="278"/>
      <point x="541" y="334" type="qcurve"/>
      <point x="561" y="330"/>
      <point x="582" y="330" type="qcurve" smooth="yes"/>
      <point x="623" y="330"/>
      <point x="731" y="357" type="qcurve" smooth="yes"/>
      <point x="811" y="377"/>
      <point x="843" y="401" type="qcurve" smooth="yes"/>
      <point x="887" y="434"/>
      <point x="898" y="504" type="qcurve" smooth="yes"/>
      <point x="934" y="731" type="line"/>
      <point x="803" y="731" type="line"/>
      <point x="774" y="495" type="line" smooth="yes"/>
      <point x="760" y="382"/>
      <point x="676" y="370" type="qcurve" smooth="yes"/>
      <point x="659" y="368"/>
      <point x="650" y="368" type="qcurve" smooth="yes"/>
      <point x="618" y="368"/>
      <point x="618" y="407" type="qcurve" smooth="yes"/>
      <point x="618" y="419"/>
      <point x="620" y="436" type="qcurve" smooth="yes"/>
      <point x="656" y="731" type="line"/>
      <point x="535" y="727" type="line"/>
      <point x="486" y="396" type="line" smooth="yes"/>
      <point x="479" y="351"/>
      <point x="464" y="332" type="qcurve" smooth="yes"/>
      <point x="446" y="309"/>
      <point x="397" y="295" type="qcurve" smooth="yes"/>
      <point x="372" y="288"/>
      <point x="359" y="288" type="qcurve" smooth="yes"/>
      <point x="326" y="288"/>
      <point x="326" y="329" type="qcurve" smooth="yes"/>
      <point x="326" y="340"/>
      <point x="328" y="354" type="qcurve" smooth="yes"/>
      <point x="384" y="724" type="line"/>
      <point x="253" y="721" type="line"/>
      <point x="207" y="369" type="line" smooth="yes"/>
      <point x="204" y="348"/>
      <point x="207" y="328" type="qcurve"/>
      <point x="40" y="-3" type="line"/>
      <point x="181" y="-3" type="line"/>
    </contour>
  </outline>
</glyph>
<glyph name="szo-ethi" format="2">
  <advance width="804"/>
  <unicode hex="1226"/>
  <outline>
    <contour>
      <point x="423" y="324" type="line"/>
      <point x="502" y="324"/>
      <point x="613" y="373" type="qcurve" smooth="yes"/>
      <point x="683" y="404"/>
      <point x="696" y="418" type="qcurve" smooth="yes"/>
      <point x="720" y="443"/>
      <point x="731" y="518" type="qcurve" smooth="yes"/>
      <point x="764" y="740" type="line"/>
      <point x="635" y="737" type="line"/>
      <point x="610" y="498" type="line" smooth="yes"/>
      <point x="604" y="446"/>
      <point x="586" y="419" type="qcurve"/>
      <point x="564" y="388"/>
      <point x="518" y="373" type="qcurve"/>
      <point x="503" y="369"/>
      <point x="491" y="369" type="qcurve" smooth="yes"/>
      <point x="448" y="369"/>
      <point x="448" y="418" type="qcurve" smooth="yes"/>
      <point x="448" y="425"/>
      <point x="449" y="432" type="qcurve" smooth="yes"/>
      <point x="492" y="740" type="line"/>
      <point x="367" y="734" type="line"/>
      <point x="328" y="390" type="line" smooth="yes"/>
      <point x="317" y="297"/>
      <point x="230" y="285" type="qcurve" smooth="yes"/>
      <point x="209" y="282"/>
      <point x="192" y="294" type="qcurve" smooth="yes"/>
      <point x="169" y="310"/>
      <point x="169" y="348" type="qcurve" smooth="yes"/>
      <point x="169" y="358"/>
      <point x="171" y="370" type="qcurve" smooth="yes"/>
      <point x="226" y="737" type="line"/>
      <point x="95" y="731" type="line"/>
      <point x="43" y="364" type="line" smooth="yes"/>
      <point x="40" y="343"/>
      <point x="40" y="325" type="qcurve" smooth="yes"/>
      <point x="40" y="222"/>
      <point x="131" y="226" type="qcurve" smooth="yes"/>
      <point x="165" y="227"/>
      <point x="285" y="262" type="qcurve"/>
      <point x="105" y="-3" type="line"/>
      <point x="236" y="-3" type="line"/>
    </contour>
  </outline>
</glyph>
<glyph name="ra-ethi" format="2">
  <advance width="609"/>
  <unicode hex="1228"/>
  <outline>
    <contour>
      <point x="522" y="-23" type="qcurve"/>
      <point x="514" y="-49"/>
      <point x="486" y="-56" type="qcurve" smooth="yes"/>
      <point x="471" y="-60"/>
      <point x="433" y="-60" type="qcurve" smooth="yes"/>
      <point x="378" y="-60"/>
      <point x="363" y="-45" type="qcurve"/>
      <point x="344" y="-17"/>
      <point x="326" y="11" type="qcurve"/>
      <point x="317" y="11"/>
      <point x="241" y="-4"/>
      <point x="231" y="-5" type="qcurve"/>
      <point x="158" y="-8"/>
      <point x="103" y="29" type="qcurve" smooth="yes"/>
      <point x="40" y="70"/>
      <point x="40" y="140" type="qcurve" smooth="yes"/>
      <point x="40" y="189"/>
      <point x="91" y="260" type="qcurve"/>
      <point x="96" y="268"/>
      <point x="214" y="409" type="qcurve" smooth="yes"/>
      <point x="291" y="502"/>
      <point x="315" y="566" type="qcurve" smooth="yes"/>
      <point x="345" y="645"/>
      <point x="345" y="681" type="qcurve"/>
      <point x="344" y="732" type="line"/>
      <point x="469" y="731" type="line"/>
      <point x="469" y="681" type="line" smooth="yes"/>
      <point x="469" y="569"/>
      <point x="386" y="435" type="qcurve"/>
      <point x="361" y="403"/>
      <point x="315" y="340" type="qcurve"/>
      <point x="276" y="296"/>
      <point x="238" y="252" type="qcurve"/>
      <point x="168" y="164"/>
      <point x="168" y="126" type="qcurve" smooth="yes"/>
      <point x="168" y="90"/>
      <point x="202" y="60" type="qcurve" smooth="yes"/>
      <point x="233" y="32"/>
      <point x="263" y="32" type="qcurve" smooth="yes"/>
      <point x="344" y="32" type="line"/>
      <point x="366" y="49"/>
      <point x="412" y="74" type="qcurve"/>
      <point x="448" y="84"/>
      <point x="491" y="84" type="qcurve" smooth="yes"/>
      <point x="557" y="84"/>
      <point x="545" y="85" type="qcurve"/>
      <point x="569" y="84"/>
      <point x="569" y="74" type="qcurve" smooth="yes"/>
      <point x="569" y="72"/>
      <point x="548" y="32" type="qcurve" smooth="yes"/>
      <point x="525" y="-11"/>
    </contour>
  </outline>
</glyph>
<glyph name="ru-ethi" format="2">
  <advance width="649"/>
  <unicode hex="1229"/>
  <outline>
    <contour>
      <point x="601" y="231" type="qcurve" smooth="yes"/>
      <point x="582" y="207"/>
      <point x="570" y="158" type="qcurve" smooth="yes"/>
      <point x="560" y="117"/>
      <point x="550" y="112" type="qcurve"/>
      <point x="535" y="105"/>
      <point x="498" y="134" type="qcurve" smooth="yes"/>
      <point x="453" y="170"/>
      <point x="426" y="231" type="qcurve"/>
      <point x="337" y="232" type="line"/>
      <point x="314" y="-6" type="line"/>
      <point x="183" y="-6" type="line"/>
      <point x="220" y="232" type="line"/>
      <point x="125" y="230"/>
      <point x="93" y="239" type="qcurve"/>
      <point x="44" y="255"/>
      <point x="40" y="310" type="qcurve" smooth="yes"/>
      <point x="39" y="322"/>
      <point x="58" y="371"/>
      <point x="66" y="380" type="qcurve"/>
      <point x="67" y="381"/>
      <point x="169" y="467" type="qcurve" smooth="yes"/>
      <point x="255" y="540"/>
      <point x="274" y="585" type="qcurve" smooth="yes"/>
      <point x="301" y="650"/>
      <point x="296" y="722" type="qcurve"/>
      <point x="418" y="722" type="line"/>
      <point x="418" y="658" type="line" smooth="yes"/>
      <point x="418" y="627"/>
      <point x="394" y="555"/>
      <point x="380" y="537" type="qcurve" smooth="yes"/>
      <point x="349" y="495"/>
      <point x="286" y="421" type="qcurve"/>
      <point x="251" y="387"/>
      <point x="217" y="353" type="qcurve"/>
      <point x="187" y="321"/>
      <point x="188" y="302" type="qcurve"/>
      <point x="192" y="258"/>
      <point x="320" y="263" type="qcurve" smooth="yes"/>
      <point x="521" y="271" type="line" smooth="yes"/>
      <point x="609" y="275"/>
      <point x="609" y="249" type="qcurve" smooth="yes"/>
      <point x="609" y="241"/>
    </contour>
  </outline>
</glyph>
<glyph name="ri-ethi" format="2">
  <advance width="579"/>
  <unicode hex="122A"/>
  <outline>
    <contour>
      <point x="539" y="124" type="qcurve" smooth="yes"/>
      <point x="539" y="69"/>
      <point x="476" y="33" type="qcurve" smooth="yes"/>
      <point x="417" y="-2"/>
      <point x="330" y="-5" type="qcurve"/>
      <point x="330" y="-5"/>
      <point x="206" y="-5" type="qcurve" smooth="yes"/>
      <point x="142" y="-5"/>
      <point x="95" y="27" type="qcurve" smooth="yes"/>
      <point x="40" y="63"/>
      <point x="40" y="124" type="qcurve" smooth="yes"/>
      <point x="40" y="196"/>
      <point x="113" y="293" type="qcurve"/>
      <point x="161" y="350"/>
      <point x="209" y="406" type="qcurve"/>
      <point x="327" y="574"/>
      <point x="327" y="662" type="qcurve" smooth="yes"/>
      <point x="327" y="726" type="line"/>
      <point x="464" y="725" type="line"/>
      <point x="465" y="673" type="line" smooth="yes"/>
      <point x="466" y="543"/>
      <point x="339" y="377" type="qcurve" smooth="yes"/>
      <point x="283" y="305"/>
      <point x="227" y="233" type="qcurve"/>
      <point x="175" y="159"/>
      <point x="175" y="116" type="qcurve" smooth="yes"/>
      <point x="175" y="25"/>
      <point x="294" y="25" type="qcurve" smooth="yes"/>
      <point x="336" y="25"/>
      <point x="375" y="45" type="qcurve" smooth="yes"/>
      <point x="421" y="70"/>
      <point x="421" y="108" type="qcurve" smooth="yes"/>
      <point x="421" y="133"/>
      <point x="373" y="180" type="qcurve"/>
      <point x="403" y="189"/>
      <point x="465" y="201" type="qcurve" smooth="yes"/>
      <point x="470" y="202"/>
      <point x="474" y="202" type="qcurve" smooth="yes"/>
      <point x="500" y="202"/>
      <point x="539" y="153"/>
    </contour>
  </outline>
</glyph>
<glyph name="raa-ethi" format="2">
  <advance width="695"/>
  <unicode hex="122B"/>
  <outline>
    <contour>
      <point x="457" y="186" type="line"/>
      <point x="437" y="128"/>
      <point x="401" y="38" type="qcurve"/>
      <point x="396" y="23"/>
      <point x="390" y="7" type="qcurve"/>
      <point x="383" y="-2"/>
      <point x="353" y="-2" type="qcurve"/>
      <point x="210" y="0" type="line" smooth="yes"/>
      <point x="40" y="2"/>
      <point x="40" y="125" type="qcurve" smooth="yes"/>
      <point x="40" y="163"/>
      <point x="58" y="207" type="qcurve"/>
      <point x="69" y="232"/>
      <point x="125" y="299" type="qcurve" smooth="yes"/>
      <point x="204" y="394"/>
      <point x="228" y="427" type="qcurve" smooth="yes"/>
      <point x="341" y="581"/>
      <point x="342" y="679" type="qcurve"/>
      <point x="335" y="675"/>
      <point x="343" y="727" type="qcurve"/>
      <point x="457" y="726" type="line"/>
      <point x="457" y="665" type="line" smooth="yes"/>
      <point x="457" y="590"/>
      <point x="422" y="517" type="qcurve" smooth="yes"/>
      <point x="399" y="467"/>
      <point x="341" y="386" type="qcurve"/>
      <point x="282" y="309"/>
      <point x="167" y="154"/>
      <point x="167" y="113" type="qcurve" smooth="yes"/>
      <point x="167" y="75"/>
      <point x="207" y="31"/>
      <point x="235" y="31" type="qcurve" smooth="yes"/>
      <point x="284" y="31" type="line"/>
      <point x="306" y="87"/>
      <point x="345" y="195" type="qcurve"/>
      <point x="354" y="218"/>
      <point x="358" y="223" type="qcurve"/>
      <point x="371" y="236"/>
      <point x="403" y="236" type="qcurve"/>
      <point x="576" y="242" type="line" smooth="yes"/>
      <point x="626" y="244"/>
      <point x="629" y="244" type="qcurve"/>
      <point x="655" y="243"/>
      <point x="655" y="233" type="qcurve" smooth="yes"/>
      <point x="655" y="228"/>
      <point x="649" y="220" type="qcurve" smooth="yes"/>
      <point x="627" y="191"/>
      <point x="618" y="134" type="qcurve" smooth="yes"/>
      <point x="613" y="99"/>
      <point x="590" y="99" type="qcurve" smooth="yes"/>
      <point x="581" y="99"/>
      <point x="567" y="104" type="qcurve" smooth="yes"/>
      <point x="506" y="127"/>
      <point x="497" y="188" type="qcurve"/>
    </contour>
  </outline>
</glyph>
<glyph name="ree-ethi" format="2">
  <advance width="613"/>
  <unicode hex="122C"/>
  <unicode hex="F05F"/>
  <outline>
    <contour>
      <point x="573" y="135" type="qcurve" smooth="yes"/>
      <point x="573" y="50"/>
      <point x="506" y="19" type="qcurve" smooth="yes"/>
      <point x="477" y="5"/>
      <point x="396" y="-3" type="qcurve" smooth="yes"/>
      <point x="360" y="-6"/>
      <point x="326" y="3" type="qcurve"/>
      <point x="275" y="-12"/>
      <point x="219" y="-12" type="qcurve" smooth="yes"/>
      <point x="156" y="-12"/>
      <point x="107" y="12" type="qcurve" smooth="yes"/>
      <point x="36" y="47"/>
      <point x="40" y="121" type="qcurve" smooth="yes"/>
      <point x="45" y="206"/>
      <point x="104" y="285" type="qcurve"/>
      <point x="161" y="353"/>
      <point x="218" y="421" type="qcurve"/>
      <point x="339" y="587"/>
      <point x="334" y="662" type="qcurve"/>
      <point x="325" y="702"/>
      <point x="331" y="723" type="qcurve"/>
      <point x="448" y="724" type="line"/>
      <point x="448" y="716"/>
      <point x="447" y="653" type="qcurve" smooth="yes"/>
      <point x="446" y="564"/>
      <point x="390" y="465" type="qcurve" smooth="yes"/>
      <point x="365" y="420"/>
      <point x="276" y="302" type="qcurve"/>
      <point x="242" y="259"/>
      <point x="208" y="217" type="qcurve"/>
      <point x="163" y="156"/>
      <point x="163" y="111" type="qcurve" smooth="yes"/>
      <point x="163" y="28"/>
      <point x="284" y="28" type="qcurve" smooth="yes"/>
      <point x="298" y="28"/>
      <point x="313" y="29" type="qcurve"/>
      <point x="315" y="42"/>
      <point x="312" y="71" type="qcurve"/>
      <point x="310" y="108"/>
      <point x="310" y="122" type="qcurve" smooth="yes"/>
      <point x="310" y="193"/>
      <point x="351" y="221" type="qcurve" smooth="yes"/>
      <point x="377" y="238"/>
      <point x="499" y="238" type="qcurve" smooth="yes"/>
      <point x="540" y="238"/>
      <point x="560" y="196" type="qcurve" smooth="yes"/>
      <point x="573" y="167"/>
    </contour>
    <contour>
      <point x="481" y="146" type="qcurve" smooth="yes"/>
      <point x="481" y="158"/>
      <point x="473" y="177" type="qcurve" smooth="yes"/>
      <point x="462" y="202"/>
      <point x="445" y="202" type="qcurve" smooth="yes"/>
      <point x="419" y="202"/>
      <point x="400" y="160" type="qcurve" smooth="yes"/>
      <point x="385" y="127"/>
      <point x="385" y="103" type="qcurve" smooth="yes"/>
      <point x="385" y="76"/>
      <point x="403" y="44" type="qcurve"/>
      <point x="437" y="44" type="line"/>
      <point x="462" y="43"/>
      <point x="470" y="78" type="qcurve" smooth="yes"/>
      <point x="481" y="127"/>
    </contour>
  </outline>
</glyph>
<glyph name="re-ethi" format="2">
  <advance width="673"/>
  <unicode hex="122D"/>
  <unicode hex="F060"/>
  <outline>
    <contour>
      <point x="631" y="715" type="qcurve" smooth="yes"/>
      <point x="592" y="659"/>
      <point x="592" y="623" type="qcurve" smooth="yes"/>
      <point x="592" y="617"/>
      <point x="594" y="602"/>
      <point x="594" y="600" type="qcurve" smooth="yes"/>
      <point x="594" y="584"/>
      <point x="554" y="584" type="qcurve" smooth="yes"/>
      <point x="515" y="584"/>
      <point x="457" y="656"/>
      <point x="459" y="695" type="qcurve"/>
      <point x="371" y="695"/>
      <point x="339" y="685" type="qcurve" smooth="yes"/>
      <point x="278" y="667"/>
      <point x="248" y="602" type="qcurve" smooth="yes"/>
      <point x="224" y="552"/>
      <point x="192" y="390" type="qcurve" smooth="yes"/>
      <point x="159" y="222"/>
      <point x="159" y="140" type="qcurve" smooth="yes"/>
      <point x="159" y="36"/>
      <point x="261" y="36" type="qcurve" smooth="yes"/>
      <point x="275" y="36"/>
      <point x="292" y="38" type="qcurve"/>
      <point x="322" y="57"/>
      <point x="383" y="75" type="qcurve" smooth="yes"/>
      <point x="435" y="91"/>
      <point x="457" y="92" type="qcurve" smooth="yes"/>
      <point x="532" y="97"/>
      <point x="532" y="76" type="qcurve" smooth="yes"/>
      <point x="532" y="70"/>
      <point x="526" y="61" type="qcurve" smooth="yes"/>
      <point x="514" y="44"/>
      <point x="492" y="-9" type="qcurve" smooth="yes"/>
      <point x="477" y="-45"/>
      <point x="458" y="-50" type="qcurve" smooth="yes"/>
      <point x="427" y="-58"/>
      <point x="400" y="-58" type="qcurve" smooth="yes"/>
      <point x="322" y="-58"/>
      <point x="297" y="0" type="qcurve"/>
      <point x="221" y="0" type="line" smooth="yes"/>
      <point x="40" y="0"/>
      <point x="40" y="172" type="qcurve" smooth="yes"/>
      <point x="40" y="220"/>
      <point x="68" y="377" type="qcurve" smooth="yes"/>
      <point x="94" y="525"/>
      <point x="106" y="558" type="qcurve" smooth="yes"/>
      <point x="125" y="612"/>
      <point x="166" y="656" type="qcurve"/>
      <point x="213" y="704"/>
      <point x="273" y="724" type="qcurve" smooth="yes"/>
      <point x="308" y="735"/>
      <point x="359" y="735" type="qcurve" smooth="yes"/>
      <point x="544" y="735" type="line"/>
      <point x="633" y="739"/>
      <point x="633" y="721" type="qcurve" smooth="yes"/>
      <point x="633" y="718"/>
    </contour>
  </outline>
</glyph>
<glyph name="ro-ethi" format="2">
  <advance width="690"/>
  <unicode hex="122E"/>
  <unicode hex="F061"/>
  <outline>
    <contour>
      <point x="650" y="638" type="qcurve" smooth="yes"/>
      <point x="650" y="570"/>
      <point x="593" y="525" type="qcurve" smooth="yes"/>
      <point x="541" y="483"/>
      <point x="476" y="483" type="qcurve" smooth="yes"/>
      <point x="375" y="483"/>
      <point x="375" y="614" type="qcurve" smooth="yes"/>
      <point x="375" y="645"/>
      <point x="381" y="691" type="qcurve"/>
      <point x="270" y="700"/>
      <point x="240" y="597" type="qcurve" smooth="yes"/>
      <point x="159" y="320"/>
      <point x="159" y="158" type="qcurve" smooth="yes"/>
      <point x="159" y="97"/>
      <point x="174" y="73" type="qcurve" smooth="yes"/>
      <point x="200" y="30"/>
      <point x="281" y="30" type="qcurve"/>
      <point x="392" y="87"/>
      <point x="462" y="88" type="qcurve"/>
      <point x="542" y="93"/>
      <point x="535" y="60" type="qcurve" smooth="yes"/>
      <point x="532" y="47"/>
      <point x="518" y="30" type="qcurve" smooth="yes"/>
      <point x="502" y="10"/>
      <point x="496" y="-2" type="qcurve"/>
      <point x="495" y="-6"/>
      <point x="489" y="-30" type="qcurve" smooth="yes"/>
      <point x="485" y="-45"/>
      <point x="478" y="-50" type="qcurve" smooth="yes"/>
      <point x="467" y="-58"/>
      <point x="424" y="-58" type="qcurve" smooth="yes"/>
      <point x="318" y="-58"/>
      <point x="300" y="-4" type="qcurve"/>
      <point x="297" y="-3"/>
      <point x="210" y="0" type="qcurve" smooth="yes"/>
      <point x="140" y="2"/>
      <point x="113" y="18" type="qcurve" smooth="yes"/>
      <point x="40" y="60"/>
      <point x="40" y="190" type="qcurve" smooth="yes"/>
      <point x="40" y="323"/>
      <point x="100" y="552" type="qcurve" smooth="yes"/>
      <point x="124" y="645"/>
      <point x="217" y="694" type="qcurve" smooth="yes"/>
      <point x="297" y="737"/>
      <point x="402" y="737" type="qcurve" smooth="yes"/>
      <point x="574" y="737" type="line" smooth="yes"/>
      <point x="614" y="737"/>
      <point x="635" y="694" type="qcurve" smooth="yes"/>
      <point x="650" y="665"/>
    </contour>
    <contour>
      <point x="555" y="629" type="qcurve" smooth="yes"/>
      <point x="555" y="689"/>
      <point x="520" y="689" type="qcurve" smooth="yes"/>
      <point x="493" y="689"/>
      <point x="475" y="655" type="qcurve" smooth="yes"/>
      <point x="460" y="626"/>
      <point x="460" y="594" type="qcurve" smooth="yes"/>
      <point x="460" y="531"/>
      <point x="496" y="531" type="qcurve" smooth="yes"/>
      <point x="523" y="531"/>
      <point x="541" y="572" type="qcurve" smooth="yes"/>
      <point x="555" y="605"/>
    </contour>
  </outline>
</glyph>
<glyph name="rwa-ethi" format="2">
  <advance width="695"/>
  <unicode hex="122F"/>
  <outline>
    <contour>
      <point x="555" y="702" type="qcurve" smooth="yes"/>
      <point x="594" y="702"/>
      <point x="607" y="716" type="qcurve"/>
      <point x="614" y="723"/>
      <point x="623" y="757" type="qcurve" smooth="yes"/>
      <point x="633" y="796"/>
      <point x="654" y="827" type="qcurve"/>
      <point x="589" y="829"/>
      <point x="594" y="830" type="qcurve"/>
      <point x="580" y="828"/>
      <point x="548" y="807" type="qcurve" smooth="yes"/>
      <point x="532" y="796"/>
      <point x="516" y="774" type="qcurve"/>
      <point x="496" y="749"/>
      <point x="482" y="736" type="qcurve"/>
      <point x="448" y="736"/>
      <point x="407" y="735" type="qcurve"/>
      <point x="322" y="735"/>
      <point x="302" y="735" type="qcurve"/>
      <point x="289" y="744"/>
      <point x="252" y="800"/>
      <point x="234" y="811" type="qcurve" smooth="yes"/>
      <point x="207" y="828"/>
      <point x="160" y="828" type="qcurve" smooth="yes"/>
      <point x="148" y="828"/>
      <point x="134" y="827" type="qcurve"/>
      <point x="162" y="786"/>
      <point x="178" y="713"/>
      <point x="179" y="712" type="qcurve"/>
      <point x="185" y="703"/>
      <point x="241" y="703" type="qcurve" smooth="yes"/>
      <point x="324" y="703" type="line"/>
      <point x="327" y="669" type="line" smooth="yes"/>
      <point x="336" y="574"/>
      <point x="228" y="427" type="qcurve" smooth="yes"/>
      <point x="204" y="394"/>
      <point x="125" y="299" type="qcurve" smooth="yes"/>
      <point x="69" y="232"/>
      <point x="58" y="207" type="qcurve"/>
      <point x="40" y="163"/>
      <point x="40" y="125" type="qcurve" smooth="yes"/>
      <point x="40" y="2"/>
      <point x="210" y="0" type="qcurve" smooth="yes"/>
      <point x="353" y="-2" type="line"/>
      <point x="383" y="-2"/>
      <point x="390" y="7" type="qcurve"/>
      <point x="396" y="23"/>
      <point x="401" y="38" type="qcurve"/>
      <point x="418" y="81"/>
      <point x="457" y="186" type="qcurve"/>
      <point x="497" y="188" type="line"/>
      <point x="506" y="127"/>
      <point x="567" y="104" type="qcurve" smooth="yes"/>
      <point x="581" y="99"/>
      <point x="590" y="99" type="qcurve" smooth="yes"/>
      <point x="613" y="99"/>
      <point x="618" y="134" type="qcurve" smooth="yes"/>
      <point x="627" y="191"/>
      <point x="649" y="220" type="qcurve" smooth="yes"/>
      <point x="655" y="228"/>
      <point x="655" y="233" type="qcurve" smooth="yes"/>
      <point x="655" y="243"/>
      <point x="629" y="244" type="qcurve"/>
      <point x="626" y="244"/>
      <point x="576" y="242" type="qcurve" smooth="yes"/>
      <point x="403" y="236" type="line"/>
      <point x="371" y="236"/>
      <point x="358" y="223" type="qcurve"/>
      <point x="354" y="218"/>
      <point x="345" y="195" type="qcurve"/>
      <point x="329" y="146"/>
      <point x="284" y="31" type="qcurve"/>
      <point x="235" y="31" type="line" smooth="yes"/>
      <point x="207" y="31"/>
      <point x="167" y="75"/>
      <point x="167" y="113" type="qcurve" smooth="yes"/>
      <point x="167" y="154"/>
      <point x="282" y="309"/>
      <point x="341" y="386" type="qcurve"/>
      <point x="400" y="469"/>
      <point x="423" y="514" type="qcurve" smooth="yes"/>
      <point x="458" y="585"/>
      <point x="461" y="659" type="qcurve" smooth="yes"/>
      <point x="463" y="700" type="line"/>
      <point x="481" y="711"/>
      <point x="498" y="711" type="qcurve" smooth="yes"/>
      <point x="507" y="711"/>
      <point x="543" y="702"/>
    </contour>
  </outline>
</glyph>
<glyph name="sa-ethi" format="2">
  <advance width="619"/>
  <unicode hex="1230"/>
  <unicode hex="F063"/>
  <outline>
    <contour>
      <point x="546" y="398" type="qcurve" smooth="yes"/>
      <point x="489" y="1" type="line"/>
      <point x="365" y="0" type="line"/>
      <point x="416" y="352" type="line" smooth="yes"/>
      <point x="428" y="437"/>
      <point x="428" y="461" type="qcurve" smooth="yes"/>
      <point x="428" y="534"/>
      <point x="352" y="534" type="qcurve" smooth="yes"/>
      <point x="293" y="534"/>
      <point x="255" y="474" type="qcurve" smooth="yes"/>
      <point x="222" y="422"/>
      <point x="210" y="337" type="qcurve" smooth="yes"/>
      <point x="165" y="4" type="line"/>
      <point x="40" y="3" type="line"/>
      <point x="83" y="313" type="line" smooth="yes"/>
      <point x="89" y="358"/>
      <point x="105" y="411" type="qcurve" smooth="yes"/>
      <point x="138" y="518"/>
      <point x="283" y="570" type="qcurve"/>
      <point x="304" y="722" type="line"/>
      <point x="431" y="722" type="line"/>
      <point x="428" y="722"/>
      <point x="414" y="586" type="qcurve"/>
      <point x="441" y="574"/>
      <point x="495" y="552"/>
      <point x="511" y="536" type="qcurve" smooth="yes"/>
      <point x="549" y="500"/>
      <point x="549" y="434" type="qcurve" smooth="yes"/>
      <point x="549" y="416"/>
    </contour>
  </outline>
</glyph>
<glyph name="su-ethi" format="2">
  <advance width="619"/>
  <unicode hex="1231"/>
  <outline>
    <contour>
      <point x="546" y="398" type="qcurve" smooth="yes"/>
      <point x="489" y="1" type="line"/>
      <point x="365" y="0" type="line"/>
      <point x="416" y="352" type="line" smooth="yes"/>
      <point x="428" y="437"/>
      <point x="428" y="461" type="qcurve" smooth="yes"/>
      <point x="428" y="534"/>
      <point x="352" y="534" type="qcurve" smooth="yes"/>
      <point x="293" y="534"/>
      <point x="255" y="474" type="qcurve" smooth="yes"/>
      <point x="222" y="422"/>
      <point x="210" y="337" type="qcurve" smooth="yes"/>
      <point x="165" y="4" type="line"/>
      <point x="40" y="3" type="line"/>
      <point x="83" y="313" type="line" smooth="yes"/>
      <point x="89" y="358"/>
      <point x="105" y="411" type="qcurve" smooth="yes"/>
      <point x="138" y="518"/>
      <point x="283" y="570" type="qcurve"/>
      <point x="304" y="722" type="line"/>
      <point x="431" y="722" type="line"/>
      <point x="428" y="722"/>
      <point x="414" y="586" type="qcurve"/>
      <point x="441" y="574"/>
      <point x="495" y="552"/>
      <point x="511" y="536" type="qcurve"/>
      <point x="549" y="500"/>
      <point x="549" y="434" type="qcurve" smooth="yes"/>
      <point x="549" y="416"/>
    </contour>
    <contour>
      <point x="500" y="284" type="line"/>
      <point x="570" y="283" type="line"/>
      <point x="578" y="284"/>
      <point x="614" y="294" type="qcurve"/>
      <point x="662" y="310"/>
      <point x="701" y="310" type="qcurve" smooth="yes"/>
      <point x="742" y="310"/>
      <point x="742" y="295" type="qcurve" smooth="yes"/>
      <point x="741.865" y="292.086"/>
      <point x="740" y="289" type="qcurve" smooth="yes"/>
      <point x="712.71" y="244.152"/>
      <point x="710" y="238" type="qcurve" smooth="yes"/>
      <point x="692.513" y="199.041"/>
      <point x="696" y="157" type="qcurve" smooth="yes"/>
      <point x="696.666" y="148.985"/>
      <point x="684" y="149" type="qcurve" smooth="yes"/>
      <point x="668" y="149.019"/>
      <point x="620" y="170"/>
      <point x="596" y="195"/>
      <point x="572" y="257" type="qcurve"/>
      <point x="490" y="257" type="line"/>
    </contour>
  </outline>
</glyph>
<glyph name="si-ethi" format="2">
  <advance width="619"/>
  <unicode hex="1232"/>
  <outline>
    <contour>
      <point x="546" y="398" type="qcurve" smooth="yes"/>
      <point x="489" y="1" type="line"/>
      <point x="365" y="0" type="line"/>
      <point x="416" y="352" type="line" smooth="yes"/>
      <point x="428" y="437"/>
      <point x="428" y="461" type="qcurve" smooth="yes"/>
      <point x="428" y="534"/>
      <point x="352" y="534" type="qcurve" smooth="yes"/>
      <point x="293" y="534"/>
      <point x="255" y="474" type="qcurve" smooth="yes"/>
      <point x="222" y="422"/>
      <point x="210" y="337" type="qcurve" smooth="yes"/>
      <point x="165" y="4" type="line"/>
      <point x="40" y="3" type="line"/>
      <point x="83" y="313" type="line" smooth="yes"/>
      <point x="89" y="358"/>
      <point x="105" y="411" type="qcurve" smooth="yes"/>
      <point x="138" y="518"/>
      <point x="283" y="570" type="qcurve"/>
      <point x="304" y="722" type="line"/>
      <point x="431" y="722" type="line"/>
      <point x="428" y="722"/>
      <point x="414" y="586" type="qcurve"/>
      <point x="441" y="574"/>
      <point x="495" y="552"/>
      <point x="511" y="536" type="qcurve"/>
      <point x="549" y="500"/>
      <point x="549" y="434" type="qcurve" smooth="yes"/>
      <point x="549" y="416"/>
    </contour>
    <contour>
      <point x="454" y="26" type="line"/>
      <point x="524" y="25" type="line"/>
      <point x="559" y="40"/>
      <point x="623" y="65" type="qcurve"/>
      <point x="674" y="81"/>
      <point x="722" y="81" type="qcurve" smooth="yes"/>
      <point x="770" y="81"/>
      <point x="770" y="66" type="qcurve"/>
      <point x="770" y="65"/>
      <point x="718" y="-11"/>
      <point x="719" y="-46" type="qcurve"/>
      <point x="719" y="-62"/>
      <point x="649" y="-62" type="qcurve" smooth="yes"/>
      <point x="579.469" y="-61.5742"/>
      <point x="564" y="-45" type="qcurve" smooth="yes"/>
      <point x="551.456" y="-31.5597"/>
      <point x="520" y="-1" type="qcurve"/>
      <point x="444" y="-1" type="line"/>
    </contour>
  </outline>
</glyph>
<glyph name="saa-ethi" format="2">
  <advance width="547"/>
  <unicode hex="1233"/>
  <outline>
    <contour>
      <point x="504" y="398" type="qcurve"/>
      <point x="446" y="1" type="line"/>
      <point x="323" y="0" type="line"/>
      <point x="328" y="74" type="line"/>
      <point x="328" y="84"/>
      <point x="395" y="461"/>
      <point x="395" y="470" type="qcurve" smooth="yes"/>
      <point x="395" y="543"/>
      <point x="319" y="543" type="qcurve" smooth="yes"/>
      <point x="259" y="543"/>
      <point x="220" y="482" type="qcurve" smooth="yes"/>
      <point x="186" y="428"/>
      <point x="177" y="343" type="qcurve"/>
      <point x="158" y="183" type="line"/>
      <point x="40" y="183" type="line"/>
      <point x="61" y="361" type="line" smooth="yes"/>
      <point x="69" y="423"/>
      <point x="109" y="479" type="qcurve"/>
      <point x="163" y="551"/>
      <point x="252" y="573" type="qcurve"/>
      <point x="273" y="725" type="line"/>
      <point x="389" y="722" type="line"/>
      <point x="386" y="722"/>
      <point x="371" y="586" type="qcurve"/>
      <point x="402" y="573"/>
      <point x="463" y="546"/>
      <point x="479" y="531" type="qcurve" smooth="yes"/>
      <point x="507" y="504"/>
      <point x="507" y="446" type="qcurve" smooth="yes"/>
      <point x="507" y="424"/>
    </contour>
  </outline>
</glyph>
<glyph name="see-ethi" format="2">
  <advance width="619"/>
  <unicode hex="1234"/>
  <outline>
    <contour>
      <point x="546" y="398" type="qcurve" smooth="yes"/>
      <point x="489" y="1" type="line"/>
      <point x="365" y="0" type="line"/>
      <point x="416" y="352" type="line" smooth="yes"/>
      <point x="428" y="437"/>
      <point x="428" y="461" type="qcurve" smooth="yes"/>
      <point x="428" y="534"/>
      <point x="352" y="534" type="qcurve" smooth="yes"/>
      <point x="293" y="534"/>
      <point x="255" y="474" type="qcurve" smooth="yes"/>
      <point x="222" y="422"/>
      <point x="210" y="337" type="qcurve" smooth="yes"/>
      <point x="165" y="4" type="line"/>
      <point x="40" y="3" type="line"/>
      <point x="83" y="313" type="line" smooth="yes"/>
      <point x="89" y="358"/>
      <point x="105" y="411" type="qcurve" smooth="yes"/>
      <point x="138" y="518"/>
      <point x="283" y="570" type="qcurve"/>
      <point x="304" y="722" type="line"/>
      <point x="431" y="722" type="line"/>
      <point x="428" y="722"/>
      <point x="414" y="586" type="qcurve"/>
      <point x="441" y="574"/>
      <point x="495" y="552"/>
      <point x="511" y="536" type="qcurve"/>
      <point x="549" y="500"/>
      <point x="549" y="434" type="qcurve" smooth="yes"/>
      <point x="549" y="416"/>
    </contour>
    <contour>
      <point x="718" y="79" type="qcurve" smooth="yes"/>
      <point x="718" y="51"/>
      <point x="679" y="0"/>
      <point x="657" y="0" type="qcurve" smooth="yes"/>
      <point x="450" y="0" type="line"/>
      <point x="450" y="154" type="line"/>
      <point x="516" y="158" type="line"/>
      <point x="524" y="158"/>
      <point x="573" y="166" type="qcurve" smooth="yes"/>
      <point x="619" y="174"/>
      <point x="630" y="174" type="qcurve" smooth="yes"/>
      <point x="671" y="174"/>
      <point x="697" y="137" type="qcurve" smooth="yes"/>
      <point x="718" y="108"/>
    </contour>
    <contour>
      <point x="582" y="48" type="qcurve"/>
      <point x="589" y="54"/>
      <point x="588" y="82" type="qcurve"/>
      <point x="588" y="110"/>
      <point x="582" y="118" type="qcurve" smooth="yes"/>
      <point x="564" y="142"/>
      <point x="531" y="142" type="qcurve" smooth="yes"/>
      <point x="502" y="142"/>
      <point x="462" y="93"/>
      <point x="462" y="70" type="qcurve" smooth="yes"/>
      <point x="462" y="57"/>
      <point x="498" y="23"/>
      <point x="519" y="23" type="qcurve" smooth="yes"/>
      <point x="557" y="23"/>
    </contour>
  </outline>
</glyph>
<glyph name="se-ethi" format="2">
  <advance width="578"/>
  <unicode hex="1235"/>
  <outline>
    <contour>
      <point x="533" y="398" type="qcurve" smooth="yes"/>
      <point x="475" y="1" type="line"/>
      <point x="352" y="0" type="line"/>
      <point x="367" y="96"/>
      <point x="406" y="352" type="qcurve"/>
      <point x="422" y="451"/>
      <point x="422" y="479" type="qcurve" smooth="yes"/>
      <point x="422" y="549"/>
      <point x="340" y="549" type="qcurve" smooth="yes"/>
      <point x="233" y="549"/>
      <point x="204" y="334" type="qcurve" smooth="yes"/>
      <point x="158" y="1" type="line"/>
      <point x="40" y="1" type="line"/>
      <point x="83" y="311" type="line" smooth="yes"/>
      <point x="92" y="380"/>
      <point x="101" y="407" type="qcurve"/>
      <point x="123" y="481"/>
      <point x="223" y="571"/>
      <point x="282" y="573" type="qcurve"/>
      <point x="167" y="731" type="line"/>
      <point x="306" y="731" type="line"/>
      <point x="304" y="731"/>
      <point x="416" y="588" type="qcurve"/>
      <point x="424" y="584"/>
      <point x="469" y="567" type="qcurve" smooth="yes"/>
      <point x="494" y="558"/>
      <point x="509" y="543" type="qcurve" smooth="yes"/>
      <point x="538" y="515"/>
      <point x="538" y="462" type="qcurve" smooth="yes"/>
      <point x="538" y="435"/>
    </contour>
  </outline>
</glyph>
<glyph name="so-ethi" format="2">
  <advance width="580"/>
  <unicode hex="1236"/>
  <outline>
    <contour>
      <point x="536" y="398" type="qcurve" smooth="yes"/>
      <point x="507" y="182" type="line"/>
      <point x="383" y="181" type="line"/>
      <point x="412" y="410" type="line" smooth="yes"/>
      <point x="417" y="450"/>
      <point x="417" y="471" type="qcurve" smooth="yes"/>
      <point x="417" y="558"/>
      <point x="347" y="553" type="qcurve" smooth="yes"/>
      <point x="280" y="549"/>
      <point x="249" y="491" type="qcurve" smooth="yes"/>
      <point x="225" y="446"/>
      <point x="210" y="337" type="qcurve" smooth="yes"/>
      <point x="165" y="4" type="line"/>
      <point x="40" y="3" type="line"/>
      <point x="83" y="313" type="line" smooth="yes"/>
      <point x="89" y="358"/>
      <point x="105" y="411" type="qcurve" smooth="yes"/>
      <point x="130" y="491"/>
      <point x="183" y="533" type="qcurve" smooth="yes"/>
      <point x="229" y="571"/>
      <point x="283" y="570" type="qcurve"/>
      <point x="304" y="741" type="line"/>
      <point x="431" y="741" type="line"/>
      <point x="428" y="741"/>
      <point x="414" y="586" type="qcurve"/>
      <point x="540" y="565"/>
      <point x="540" y="448" type="qcurve" smooth="yes"/>
      <point x="540" y="426"/>
    </contour>
  </outline>
</glyph>
<glyph name="swa-ethi" format="2">
  <advance width="710"/>
  <unicode hex="1237"/>
  <outline>
    <contour>
      <point x="515" y="402" type="line" smooth="yes"/>
      <point x="519" y="428"/>
      <point x="519" y="450" type="qcurve" smooth="yes"/>
      <point x="519" y="505"/>
      <point x="490" y="533" type="qcurve" smooth="yes"/>
      <point x="464" y="558"/>
      <point x="378" y="586" type="qcurve"/>
      <point x="392" y="722"/>
      <point x="395" y="722" type="qcurve"/>
      <point x="268" y="722" type="line"/>
      <point x="262" y="578" type="line"/>
      <point x="236" y="565"/>
      <point x="210" y="553" type="qcurve"/>
      <point x="181" y="538"/>
      <point x="165" y="524" type="qcurve" smooth="yes"/>
      <point x="80" y="450"/>
      <point x="68" y="355" type="qcurve" smooth="yes"/>
      <point x="40" y="128" type="line"/>
      <point x="165" y="128" type="line"/>
      <point x="189" y="340" type="line" smooth="yes"/>
      <point x="199" y="425"/>
      <point x="231" y="477" type="qcurve" smooth="yes"/>
      <point x="269" y="537"/>
      <point x="328" y="537" type="qcurve" smooth="yes"/>
      <point x="401" y="537"/>
      <point x="401" y="470" type="qcurve" smooth="yes"/>
      <point x="401" y="443"/>
      <point x="386" y="349" type="qcurve" smooth="yes"/>
      <point x="329" y="0" type="line"/>
      <point x="174" y="0" type="line"/>
      <point x="178" y="-10"/>
      <point x="178" y="-21" type="qcurve" smooth="yes"/>
      <point x="178" y="-40"/>
      <point x="151" y="-97"/>
      <point x="151" y="-105" type="qcurve" smooth="yes"/>
      <point x="151" y="-122"/>
      <point x="174" y="-122" type="qcurve" smooth="yes"/>
      <point x="209" y="-122"/>
      <point x="242" y="-100" type="qcurve" smooth="yes"/>
      <point x="284" y="-73"/>
      <point x="285" y="-28" type="qcurve"/>
      <point x="513" y="-28" type="line"/>
      <point x="528" y="-70"/>
      <point x="538" y="-83" type="qcurve" smooth="yes"/>
      <point x="557" y="-109"/>
      <point x="599" y="-119" type="qcurve" smooth="yes"/>
      <point x="615" y="-123"/>
      <point x="633" y="-123" type="qcurve" smooth="yes"/>
      <point x="670" y="-123"/>
      <point x="670" y="-110" type="qcurve" smooth="yes"/>
      <point x="670" y="-106"/>
      <point x="666" y="-102" type="qcurve"/>
      <point x="648" y="-81"/>
      <point x="636" y="-20"/>
      <point x="631" y="-14" type="qcurve" smooth="yes"/>
      <point x="619" y="0"/>
      <point x="580" y="0" type="qcurve" smooth="yes"/>
      <point x="453" y="0" type="line"/>
    </contour>
  </outline>
</glyph>
<glyph name="shu-ethi" format="2">
  <advance width="657"/>
  <unicode hex="1239"/>
  <outline>
    <contour>
      <point x="418" y="704" type="line"/>
      <point x="409" y="589" type="line"/>
      <point x="413" y="587"/>
      <point x="471" y="564" type="qcurve" smooth="yes"/>
      <point x="504" y="550"/>
      <point x="520" y="535" type="qcurve" smooth="yes"/>
      <point x="551" y="505"/>
      <point x="551" y="442" type="qcurve" smooth="yes"/>
      <point x="551" y="422"/>
      <point x="547" y="398" type="qcurve" smooth="yes"/>
      <point x="490" y="1" type="line"/>
      <point x="367" y="1" type="line"/>
      <point x="417" y="352" type="line" smooth="yes"/>
      <point x="429" y="437"/>
      <point x="429" y="461" type="qcurve" smooth="yes"/>
      <point x="429" y="543"/>
      <point x="364" y="543" type="qcurve" smooth="yes"/>
      <point x="304" y="543"/>
      <point x="261" y="479" type="qcurve" smooth="yes"/>
      <point x="223" y="421"/>
      <point x="211" y="337" type="qcurve"/>
      <point x="166" y="1" type="line"/>
      <point x="40" y="1" type="line"/>
      <point x="84" y="313" type="line" smooth="yes"/>
      <point x="91" y="359"/>
      <point x="106" y="411" type="qcurve"/>
      <point x="141" y="522"/>
      <point x="292" y="577" type="qcurve"/>
      <point x="300" y="704" type="line"/>
      <point x="254" y="704" type="line"/>
      <point x="185" y="659"/>
      <point x="134" y="661" type="qcurve" smooth="yes"/>
      <point x="89" y="662" type="line"/>
      <point x="101" y="701"/>
      <point x="101" y="739" type="qcurve" smooth="yes"/>
      <point x="101" y="772"/>
      <point x="90" y="791" type="qcurve"/>
      <point x="93" y="791"/>
      <point x="132" y="803"/>
      <point x="141" y="803" type="qcurve" smooth="yes"/>
      <point x="180" y="803"/>
      <point x="209" y="783" type="qcurve"/>
      <point x="230" y="764"/>
      <point x="251" y="746" type="qcurve"/>
      <point x="376" y="745"/>
      <point x="455" y="746" type="qcurve"/>
      <point x="473" y="760"/>
      <point x="491" y="774" type="qcurve" smooth="yes"/>
      <point x="514" y="792"/>
      <point x="551" y="801"/>
      <point x="583" y="801" type="qcurve" smooth="yes"/>
      <point x="635" y="801"/>
      <point x="635" y="786" type="qcurve" smooth="yes"/>
      <point x="635" y="782"/>
      <point x="631" y="778" type="qcurve"/>
      <point x="616" y="760"/>
      <point x="607" y="724" type="qcurve" smooth="yes"/>
      <point x="597" y="683"/>
      <point x="588" y="667" type="qcurve"/>
      <point x="581" y="656"/>
      <point x="567" y="656" type="qcurve" smooth="yes"/>
      <point x="563" y="656"/>
      <point x="541" y="659"/>
      <point x="535" y="659" type="qcurve" smooth="yes"/>
      <point x="520" y="659"/>
      <point x="469" y="687"/>
      <point x="455" y="704" type="qcurve"/>
    </contour>
    <contour>
      <point x="538" y="284" type="line"/>
      <point x="608" y="283" type="line"/>
      <point x="616" y="284"/>
      <point x="652" y="294" type="qcurve"/>
      <point x="700" y="310"/>
      <point x="739" y="310" type="qcurve" smooth="yes"/>
      <point x="780" y="310"/>
      <point x="780" y="295" type="qcurve" smooth="yes"/>
      <point x="779.865" y="292.086"/>
      <point x="778" y="289" type="qcurve" smooth="yes"/>
      <point x="750.71" y="244.152"/>
      <point x="748" y="238" type="qcurve" smooth="yes"/>
      <point x="730.513" y="199.041"/>
      <point x="734" y="157" type="qcurve" smooth="yes"/>
      <point x="734.666" y="148.985"/>
      <point x="722" y="149" type="qcurve" smooth="yes"/>
      <point x="706" y="149.019"/>
      <point x="658" y="170"/>
      <point x="634" y="195"/>
      <point x="610" y="257" type="qcurve"/>
      <point x="528" y="257" type="line"/>
    </contour>
  </outline>
</glyph>
<glyph name="shi-ethi" format="2">
  <advance width="657"/>
  <unicode hex="123A"/>
  <outline>
    <contour>
      <point x="418" y="704" type="line"/>
      <point x="409" y="589" type="line"/>
      <point x="413" y="587"/>
      <point x="471" y="564" type="qcurve" smooth="yes"/>
      <point x="504" y="550"/>
      <point x="520" y="535" type="qcurve" smooth="yes"/>
      <point x="551" y="505"/>
      <point x="551" y="442" type="qcurve" smooth="yes"/>
      <point x="551" y="422"/>
      <point x="547" y="398" type="qcurve" smooth="yes"/>
      <point x="490" y="1" type="line"/>
      <point x="367" y="1" type="line"/>
      <point x="417" y="352" type="line" smooth="yes"/>
      <point x="429" y="437"/>
      <point x="429" y="461" type="qcurve" smooth="yes"/>
      <point x="429" y="543"/>
      <point x="364" y="543" type="qcurve" smooth="yes"/>
      <point x="304" y="543"/>
      <point x="261" y="479" type="qcurve" smooth="yes"/>
      <point x="223" y="421"/>
      <point x="211" y="337" type="qcurve"/>
      <point x="166" y="1" type="line"/>
      <point x="40" y="1" type="line"/>
      <point x="84" y="313" type="line" smooth="yes"/>
      <point x="91" y="359"/>
      <point x="106" y="411" type="qcurve"/>
      <point x="141" y="522"/>
      <point x="292" y="577" type="qcurve"/>
      <point x="300" y="704" type="line"/>
      <point x="254" y="704" type="line"/>
      <point x="185" y="659"/>
      <point x="134" y="661" type="qcurve" smooth="yes"/>
      <point x="89" y="662" type="line"/>
      <point x="101" y="701"/>
      <point x="101" y="739" type="qcurve" smooth="yes"/>
      <point x="101" y="772"/>
      <point x="90" y="791" type="qcurve"/>
      <point x="93" y="791"/>
      <point x="132" y="803"/>
      <point x="141" y="803" type="qcurve" smooth="yes"/>
      <point x="180" y="803"/>
      <point x="209" y="783" type="qcurve"/>
      <point x="230" y="764"/>
      <point x="251" y="746" type="qcurve"/>
      <point x="376" y="745"/>
      <point x="455" y="746" type="qcurve"/>
      <point x="473" y="760"/>
      <point x="491" y="774" type="qcurve" smooth="yes"/>
      <point x="514" y="792"/>
      <point x="551" y="801"/>
      <point x="583" y="801" type="qcurve" smooth="yes"/>
      <point x="635" y="801"/>
      <point x="635" y="786" type="qcurve" smooth="yes"/>
      <point x="635" y="782"/>
      <point x="631" y="778" type="qcurve"/>
      <point x="616" y="760"/>
      <point x="607" y="724" type="qcurve" smooth="yes"/>
      <point x="597" y="683"/>
      <point x="588" y="667" type="qcurve"/>
      <point x="581" y="656"/>
      <point x="567" y="656" type="qcurve" smooth="yes"/>
      <point x="563" y="656"/>
      <point x="541" y="659"/>
      <point x="535" y="659" type="qcurve" smooth="yes"/>
      <point x="520" y="659"/>
      <point x="469" y="687"/>
      <point x="455" y="704" type="qcurve"/>
    </contour>
    <contour>
      <point x="492" y="26" type="line"/>
      <point x="562" y="25" type="line"/>
      <point x="597" y="40"/>
      <point x="661" y="65" type="qcurve"/>
      <point x="712" y="81"/>
      <point x="760" y="81" type="qcurve" smooth="yes"/>
      <point x="808" y="81"/>
      <point x="808" y="66" type="qcurve"/>
      <point x="808" y="65"/>
      <point x="756" y="-11"/>
      <point x="757" y="-46" type="qcurve"/>
      <point x="757" y="-62"/>
      <point x="687" y="-62" type="qcurve" smooth="yes"/>
      <point x="617.469" y="-61.5742"/>
      <point x="602" y="-45" type="qcurve" smooth="yes"/>
      <point x="589.456" y="-31.5597"/>
      <point x="558" y="-1" type="qcurve"/>
      <point x="482" y="-1" type="line"/>
    </contour>
  </outline>
</glyph>
<glyph name="shaa-ethi" format="2">
  <advance width="676"/>
  <unicode hex="123B"/>
  <unicode hex="F069"/>
  <outline>
    <contour>
      <point x="381" y="704" type="line"/>
      <point x="372" y="589" type="line"/>
      <point x="376" y="587"/>
      <point x="434" y="564" type="qcurve"/>
      <point x="466" y="550"/>
      <point x="482" y="535" type="qcurve" smooth="yes"/>
      <point x="513" y="505"/>
      <point x="513" y="442" type="qcurve" smooth="yes"/>
      <point x="513" y="422"/>
      <point x="510" y="398" type="qcurve" smooth="yes"/>
      <point x="452" y="1" type="line"/>
      <point x="329" y="1" type="line"/>
      <point x="380" y="352" type="line" smooth="yes"/>
      <point x="392" y="437"/>
      <point x="392" y="461" type="qcurve" smooth="yes"/>
      <point x="392" y="543"/>
      <point x="326" y="543" type="qcurve" smooth="yes"/>
      <point x="267" y="543"/>
      <point x="228" y="480" type="qcurve" smooth="yes"/>
      <point x="194" y="426"/>
      <point x="181" y="340" type="qcurve" smooth="yes"/>
      <point x="158" y="178" type="line"/>
      <point x="40" y="178" type="line"/>
      <point x="54" y="313" type="line" smooth="yes"/>
      <point x="57" y="343"/>
      <point x="81" y="419" type="qcurve" smooth="yes"/>
      <point x="114" y="526"/>
      <point x="254" y="577" type="qcurve"/>
      <point x="262" y="704" type="line"/>
      <point x="217" y="704" type="line"/>
      <point x="148" y="659"/>
      <point x="97" y="661" type="qcurve" smooth="yes"/>
      <point x="51" y="662" type="line"/>
      <point x="63" y="701"/>
      <point x="63" y="739" type="qcurve" smooth="yes"/>
      <point x="63" y="772"/>
      <point x="53" y="791" type="qcurve"/>
      <point x="55" y="791"/>
      <point x="95" y="803"/>
      <point x="104" y="803" type="qcurve" smooth="yes"/>
      <point x="142" y="803"/>
      <point x="172" y="783" type="qcurve"/>
      <point x="193" y="764"/>
      <point x="214" y="746" type="qcurve"/>
      <point x="361" y="745"/>
      <point x="456" y="747" type="qcurve"/>
      <point x="474" y="761"/>
      <point x="492" y="775" type="qcurve" smooth="yes"/>
      <point x="515" y="793"/>
      <point x="552" y="802"/>
      <point x="583" y="802" type="qcurve" smooth="yes"/>
      <point x="636" y="802"/>
      <point x="636" y="787" type="qcurve" smooth="yes"/>
      <point x="636" y="783"/>
      <point x="632" y="779" type="qcurve" smooth="yes"/>
      <point x="617" y="761"/>
      <point x="608" y="725" type="qcurve" smooth="yes"/>
      <point x="598" y="684"/>
      <point x="588" y="668" type="qcurve" smooth="yes"/>
      <point x="582" y="657"/>
      <point x="568" y="657" type="qcurve" smooth="yes"/>
      <point x="564" y="657"/>
      <point x="542" y="660"/>
      <point x="536" y="660" type="qcurve" smooth="yes"/>
      <point x="521" y="660"/>
      <point x="470" y="688"/>
      <point x="456" y="705" type="qcurve"/>
    </contour>
  </outline>
</glyph>
<glyph name="shee-ethi" format="2">
  <advance width="657"/>
  <unicode hex="123C"/>
  <outline>
    <contour>
      <point x="418" y="704" type="line"/>
      <point x="409" y="589" type="line"/>
      <point x="413" y="587"/>
      <point x="471" y="564" type="qcurve" smooth="yes"/>
      <point x="504" y="550"/>
      <point x="520" y="535" type="qcurve" smooth="yes"/>
      <point x="551" y="505"/>
      <point x="551" y="442" type="qcurve" smooth="yes"/>
      <point x="551" y="422"/>
      <point x="547" y="398" type="qcurve" smooth="yes"/>
      <point x="490" y="1" type="line"/>
      <point x="367" y="1" type="line"/>
      <point x="417" y="352" type="line" smooth="yes"/>
      <point x="429" y="437"/>
      <point x="429" y="461" type="qcurve" smooth="yes"/>
      <point x="429" y="543"/>
      <point x="364" y="543" type="qcurve" smooth="yes"/>
      <point x="304" y="543"/>
      <point x="261" y="479" type="qcurve" smooth="yes"/>
      <point x="223" y="421"/>
      <point x="211" y="337" type="qcurve"/>
      <point x="166" y="1" type="line"/>
      <point x="40" y="1" type="line"/>
      <point x="84" y="313" type="line" smooth="yes"/>
      <point x="91" y="359"/>
      <point x="106" y="411" type="qcurve"/>
      <point x="141" y="522"/>
      <point x="292" y="577" type="qcurve"/>
      <point x="300" y="704" type="line"/>
      <point x="254" y="704" type="line"/>
      <point x="185" y="659"/>
      <point x="134" y="661" type="qcurve" smooth="yes"/>
      <point x="89" y="662" type="line"/>
      <point x="101" y="701"/>
      <point x="101" y="739" type="qcurve" smooth="yes"/>
      <point x="101" y="772"/>
      <point x="90" y="791" type="qcurve"/>
      <point x="93" y="791"/>
      <point x="132" y="803"/>
      <point x="141" y="803" type="qcurve" smooth="yes"/>
      <point x="180" y="803"/>
      <point x="209" y="783" type="qcurve"/>
      <point x="230" y="764"/>
      <point x="251" y="746" type="qcurve"/>
      <point x="376" y="745"/>
      <point x="455" y="746" type="qcurve"/>
      <point x="473" y="760"/>
      <point x="491" y="774" type="qcurve" smooth="yes"/>
      <point x="514" y="792"/>
      <point x="551" y="801"/>
      <point x="583" y="801" type="qcurve" smooth="yes"/>
      <point x="635" y="801"/>
      <point x="635" y="786" type="qcurve" smooth="yes"/>
      <point x="635" y="782"/>
      <point x="631" y="778" type="qcurve"/>
      <point x="616" y="760"/>
      <point x="607" y="724" type="qcurve" smooth="yes"/>
      <point x="597" y="683"/>
      <point x="588" y="667" type="qcurve"/>
      <point x="581" y="656"/>
      <point x="567" y="656" type="qcurve" smooth="yes"/>
      <point x="563" y="656"/>
      <point x="541" y="659"/>
      <point x="535" y="659" type="qcurve" smooth="yes"/>
      <point x="520" y="659"/>
      <point x="469" y="687"/>
      <point x="455" y="704" type="qcurve"/>
    </contour>
    <contour>
      <point x="756" y="79" type="qcurve" smooth="yes"/>
      <point x="756" y="51"/>
      <point x="717" y="0"/>
      <point x="695" y="0" type="qcurve" smooth="yes"/>
      <point x="488" y="0" type="line"/>
      <point x="488" y="154" type="line"/>
      <point x="554" y="158" type="line"/>
      <point x="562.041" y="157.754"/>
      <point x="611" y="166" type="qcurve" smooth="yes"/>
      <point x="657.039" y="173.948"/>
      <point x="668" y="174" type="qcurve" smooth="yes"/>
      <point x="708.727" y="174.002"/>
      <point x="735" y="137" type="qcurve" smooth="yes"/>
      <point x="755.729" y="107.806"/>
    </contour>
    <contour>
      <point x="620" y="48" type="qcurve"/>
      <point x="627" y="54"/>
      <point x="626" y="82" type="qcurve"/>
      <point x="626" y="110"/>
      <point x="620" y="118" type="qcurve" smooth="yes"/>
      <point x="602" y="142"/>
      <point x="569" y="142" type="qcurve" smooth="yes"/>
      <point x="540" y="142"/>
      <point x="500" y="93"/>
      <point x="500" y="70" type="qcurve" smooth="yes"/>
      <point x="500" y="57"/>
      <point x="536" y="23"/>
      <point x="557" y="23" type="qcurve" smooth="yes"/>
      <point x="595" y="23"/>
    </contour>
  </outline>
</glyph>
<glyph name="she-ethi" format="2">
  <advance width="663"/>
  <unicode hex="123D"/>
  <unicode hex="F06A"/>
  <outline>
    <contour>
      <point x="389" y="704" type="line"/>
      <point x="488" y="580" type="line"/>
      <point x="558" y="556"/>
      <point x="579" y="537" type="qcurve" smooth="yes"/>
      <point x="605" y="515"/>
      <point x="605" y="467" type="qcurve" smooth="yes"/>
      <point x="605" y="442"/>
      <point x="598" y="398" type="qcurve"/>
      <point x="541" y="1" type="line"/>
      <point x="417" y="1" type="line"/>
      <point x="468" y="352" type="line" smooth="yes"/>
      <point x="480" y="437"/>
      <point x="480" y="461" type="qcurve" smooth="yes"/>
      <point x="480" y="543"/>
      <point x="415" y="543" type="qcurve" smooth="yes"/>
      <point x="334" y="543"/>
      <point x="303" y="479" type="qcurve" smooth="yes"/>
      <point x="288" y="447"/>
      <point x="273" y="337" type="qcurve" smooth="yes"/>
      <point x="228" y="1" type="line"/>
      <point x="102" y="1" type="line"/>
      <point x="146" y="313" type="line" smooth="yes"/>
      <point x="162" y="426"/>
      <point x="192" y="473" type="qcurve" smooth="yes"/>
      <point x="235" y="540"/>
      <point x="348" y="574" type="qcurve"/>
      <point x="251" y="704" type="line"/>
      <point x="206" y="704" type="line"/>
      <point x="137" y="659"/>
      <point x="86" y="661" type="qcurve" smooth="yes"/>
      <point x="40" y="662" type="line"/>
      <point x="52" y="701"/>
      <point x="52" y="739" type="qcurve" smooth="yes"/>
      <point x="52" y="772"/>
      <point x="42" y="791" type="qcurve"/>
      <point x="44" y="791"/>
      <point x="84" y="803"/>
      <point x="93" y="803" type="qcurve" smooth="yes"/>
      <point x="131" y="803"/>
      <point x="161" y="783" type="qcurve"/>
      <point x="182" y="764"/>
      <point x="202" y="746" type="qcurve"/>
      <point x="349" y="745"/>
      <point x="443" y="746" type="qcurve"/>
      <point x="461" y="760"/>
      <point x="479" y="774" type="qcurve" smooth="yes"/>
      <point x="502" y="792"/>
      <point x="539" y="801"/>
      <point x="571" y="801" type="qcurve" smooth="yes"/>
      <point x="623" y="801"/>
      <point x="623" y="786" type="qcurve" smooth="yes"/>
      <point x="623" y="782"/>
      <point x="619" y="778" type="qcurve" smooth="yes"/>
      <point x="604" y="760"/>
      <point x="595" y="724" type="qcurve" smooth="yes"/>
      <point x="585" y="683"/>
      <point x="576" y="667" type="qcurve" smooth="yes"/>
      <point x="569" y="656"/>
      <point x="555" y="656" type="qcurve" smooth="yes"/>
      <point x="551" y="656"/>
      <point x="529" y="659"/>
      <point x="523" y="659" type="qcurve" smooth="yes"/>
      <point x="508" y="659"/>
      <point x="457" y="687"/>
      <point x="443" y="704" type="qcurve"/>
    </contour>
  </outline>
</glyph>
<glyph name="sho-ethi" format="2">
  <advance width="715"/>
  <unicode hex="123E"/>
  <unicode hex="F06B"/>
  <outline>
    <contour>
      <point x="418" y="704" type="line"/>
      <point x="409" y="589" type="line"/>
      <point x="413" y="587"/>
      <point x="471" y="564" type="qcurve" smooth="yes"/>
      <point x="504" y="550"/>
      <point x="520" y="535" type="qcurve" smooth="yes"/>
      <point x="551" y="505"/>
      <point x="551" y="443" type="qcurve" smooth="yes"/>
      <point x="551" y="422"/>
      <point x="547" y="398" type="qcurve" smooth="yes"/>
      <point x="513" y="185" type="line"/>
      <point x="390" y="185" type="line"/>
      <point x="417" y="352" type="line" smooth="yes"/>
      <point x="429" y="427"/>
      <point x="429" y="461" type="qcurve" smooth="yes"/>
      <point x="429" y="543"/>
      <point x="364" y="543" type="qcurve" smooth="yes"/>
      <point x="304" y="543"/>
      <point x="261" y="479" type="qcurve" smooth="yes"/>
      <point x="223" y="421"/>
      <point x="211" y="337" type="qcurve"/>
      <point x="166" y="1" type="line"/>
      <point x="40" y="1" type="line"/>
      <point x="84" y="313" type="line" smooth="yes"/>
      <point x="91" y="359"/>
      <point x="106" y="411" type="qcurve"/>
      <point x="141" y="522"/>
      <point x="292" y="577" type="qcurve"/>
      <point x="300" y="704" type="line"/>
      <point x="239" y="704" type="line"/>
      <point x="174" y="652"/>
      <point x="135" y="653" type="qcurve"/>
      <point x="81" y="656" type="line"/>
      <point x="98" y="710"/>
      <point x="98" y="751" type="qcurve" smooth="yes"/>
      <point x="98" y="777"/>
      <point x="90" y="791" type="qcurve"/>
      <point x="97" y="791"/>
      <point x="141" y="792" type="qcurve" smooth="yes"/>
      <point x="185" y="793"/>
      <point x="206" y="777" type="qcurve"/>
      <point x="223" y="760"/>
      <point x="240" y="744" type="qcurve"/>
      <point x="398" y="742"/>
      <point x="499" y="743" type="qcurve"/>
      <point x="504" y="747"/>
      <point x="533" y="773" type="qcurve" smooth="yes"/>
      <point x="555" y="793"/>
      <point x="591" y="802"/>
      <point x="623" y="802" type="qcurve" smooth="yes"/>
      <point x="675" y="802"/>
      <point x="675" y="787" type="qcurve" smooth="yes"/>
      <point x="675" y="784"/>
      <point x="672" y="779" type="qcurve"/>
      <point x="657" y="762"/>
      <point x="650" y="724" type="qcurve" smooth="yes"/>
      <point x="642" y="683"/>
      <point x="633" y="666" type="qcurve" smooth="yes"/>
      <point x="628" y="658"/>
      <point x="614" y="656" type="qcurve" smooth="yes"/>
      <point x="604" y="654"/>
      <point x="586" y="656" type="qcurve"/>
      <point x="562" y="657"/>
      <point x="559" y="657" type="qcurve" smooth="yes"/>
      <point x="533" y="657"/>
      <point x="497" y="704" type="qcurve"/>
    </contour>
  </outline>
</glyph>
<glyph name="shwa-ethi" format="2">
  <advance width="710"/>
  <unicode hex="123F"/>
  <outline>
    <contour>
      <point x="634" y="-1" type="line"/>
      <point x="632" y="-7"/>
      <point x="632" y="-14" type="qcurve" smooth="yes"/>
      <point x="632" y="-35"/>
      <point x="646" y="-65" type="qcurve" smooth="yes"/>
      <point x="658" y="-91"/>
      <point x="670" y="-117" type="qcurve"/>
      <point x="660" y="-119"/>
      <point x="648" y="-119" type="qcurve" smooth="yes"/>
      <point x="550" y="-119"/>
      <point x="515" y="-32" type="qcurve"/>
      <point x="513" y="-32"/>
      <point x="306" y="-32"/>
      <point x="306" y="-32" type="qcurve"/>
      <point x="295" y="-48"/>
      <point x="285" y="-64" type="qcurve"/>
      <point x="261" y="-97"/>
      <point x="230" y="-114" type="qcurve" smooth="yes"/>
      <point x="216" y="-122"/>
      <point x="180" y="-122" type="qcurve" smooth="yes"/>
      <point x="146" y="-122"/>
      <point x="146" y="-111" type="qcurve" smooth="yes"/>
      <point x="146" y="-107"/>
      <point x="173" y="-18"/>
      <point x="174" y="1" type="qcurve"/>
      <point x="345" y="-1"/>
      <point x="341" y="0" type="qcurve"/>
      <point x="391" y="352" type="line" smooth="yes"/>
      <point x="403" y="438"/>
      <point x="403" y="461" type="qcurve" smooth="yes"/>
      <point x="403" y="536"/>
      <point x="335" y="536" type="qcurve" smooth="yes"/>
      <point x="214" y="536"/>
      <point x="181" y="281" type="qcurve"/>
      <point x="161" y="119" type="line"/>
      <point x="40" y="119" type="line"/>
      <point x="56" y="271" type="line" smooth="yes"/>
      <point x="69" y="395"/>
      <point x="109" y="459" type="qcurve" smooth="yes"/>
      <point x="156" y="537"/>
      <point x="266" y="577" type="qcurve"/>
      <point x="277" y="690" type="line"/>
      <point x="201" y="690"/>
      <point x="126" y="690" type="qcurve"/>
      <point x="119" y="727"/>
      <point x="87" y="807" type="qcurve"/>
      <point x="90" y="807"/>
      <point x="99" y="817"/>
      <point x="110" y="817" type="qcurve" smooth="yes"/>
      <point x="156" y="817"/>
      <point x="205" y="776" type="qcurve"/>
      <point x="205" y="776"/>
      <point x="265" y="716" type="qcurve"/>
      <point x="417" y="716" type="line"/>
      <point x="443" y="745"/>
      <point x="470" y="774" type="qcurve" smooth="yes"/>
      <point x="507" y="813"/>
      <point x="533" y="818" type="qcurve" smooth="yes"/>
      <point x="548" y="821"/>
      <point x="563" y="821" type="qcurve" smooth="yes"/>
      <point x="596" y="821"/>
      <point x="596" y="806" type="qcurve" smooth="yes"/>
      <point x="596" y="802"/>
      <point x="594" y="797" type="qcurve"/>
      <point x="580" y="773"/>
      <point x="566" y="749" type="qcurve" smooth="yes"/>
      <point x="548" y="717"/>
      <point x="545" y="690" type="qcurve"/>
      <point x="492" y="688"/>
      <point x="396" y="690" type="qcurve"/>
      <point x="396" y="687"/>
      <point x="382" y="588" type="qcurve"/>
      <point x="407" y="580"/>
      <point x="428" y="571" type="qcurve" smooth="yes"/>
      <point x="477" y="551"/>
      <point x="494" y="535" type="qcurve" smooth="yes"/>
      <point x="525" y="505"/>
      <point x="525" y="442" type="qcurve" smooth="yes"/>
      <point x="525" y="421"/>
      <point x="522" y="398" type="qcurve" smooth="yes"/>
      <point x="466" y="0" type="line"/>
    </contour>
  </outline>
</glyph>
<glyph name="qaa-ethi" format="2">
  <advance width="779"/>
  <unicode hex="1243"/>
  <unicode hex="F06E"/>
  <outline>
    <contour>
      <point x="739" y="384" type="qcurve" smooth="yes"/>
      <point x="731" y="287"/>
      <point x="582" y="262" type="qcurve" smooth="yes"/>
      <point x="560" y="258"/>
      <point x="465" y="255" type="qcurve"/>
      <point x="457" y="205"/>
      <point x="447" y="183" type="qcurve" smooth="yes"/>
      <point x="432" y="153"/>
      <point x="403" y="143" type="qcurve" smooth="yes"/>
      <point x="335" y="119"/>
      <point x="208" y="93" type="qcurve"/>
      <point x="200" y="42"/>
      <point x="193" y="20"/>
      <point x="178" y="2" type="qcurve" smooth="yes"/>
      <point x="145" y="-37"/>
      <point x="126" y="-46" type="qcurve" smooth="yes"/>
      <point x="101" y="-57"/>
      <point x="40" y="-57" type="qcurve"/>
      <point x="59" y="9"/>
      <point x="59" y="56" type="qcurve" smooth="yes"/>
      <point x="59" y="83"/>
      <point x="52" y="98" type="qcurve"/>
      <point x="214" y="114"/>
      <point x="294" y="145" type="qcurve" smooth="yes"/>
      <point x="355" y="168"/>
      <point x="352" y="248" type="qcurve"/>
      <point x="217" y="246"/>
      <point x="168" y="292" type="qcurve" smooth="yes"/>
      <point x="116" y="340"/>
      <point x="116" y="386" type="qcurve" smooth="yes"/>
      <point x="116" y="409"/>
      <point x="126" y="436" type="qcurve" smooth="yes"/>
      <point x="152" y="506"/>
      <point x="302" y="526" type="qcurve" smooth="yes"/>
      <point x="336" y="531"/>
      <point x="384" y="537" type="qcurve"/>
      <point x="406" y="740" type="line"/>
      <point x="530" y="741" type="line"/>
      <point x="506" y="534" type="line"/>
      <point x="549" y="529"/>
      <point x="634" y="517" type="qcurve"/>
      <point x="680" y="509"/>
      <point x="742" y="428"/>
    </contour>
    <contour>
      <point x="612" y="388" type="qcurve" smooth="yes"/>
      <point x="612" y="426"/>
      <point x="597" y="455" type="qcurve" smooth="yes"/>
      <point x="578" y="492"/>
      <point x="540" y="494" type="qcurve" smooth="yes"/>
      <point x="498" y="497" type="line"/>
      <point x="468" y="287" type="line"/>
      <point x="530" y="289" type="line"/>
      <point x="557" y="289"/>
      <point x="586" y="327" type="qcurve" smooth="yes"/>
      <point x="612" y="362"/>
    </contour>
    <contour>
      <point x="381" y="497" type="line"/>
      <point x="315" y="489" type="line" smooth="yes"/>
      <point x="278" y="485"/>
      <point x="253" y="440" type="qcurve" smooth="yes"/>
      <point x="231" y="401"/>
      <point x="231" y="357" type="qcurve" smooth="yes"/>
      <point x="231" y="299"/>
      <point x="306" y="292" type="qcurve"/>
      <point x="358" y="290" type="line"/>
    </contour>
  </outline>
</glyph>
<glyph name="qee-ethi" format="2">
  <advance width="736"/>
  <unicode hex="1244"/>
  <outline>
    <contour>
      <point x="696" y="384" type="qcurve" smooth="yes"/>
      <point x="692" y="333"/>
      <point x="648" y="292" type="qcurve" smooth="yes"/>
      <point x="602" y="248"/>
      <point x="533" y="237" type="qcurve" smooth="yes"/>
      <point x="511" y="233"/>
      <point x="422" y="238" type="qcurve"/>
      <point x="393" y="1" type="line"/>
      <point x="260" y="1" type="line"/>
      <point x="290" y="234" type="line"/>
      <point x="214" y="233"/>
      <point x="197" y="238" type="qcurve" smooth="yes"/>
      <point x="125" y="259"/>
      <point x="104" y="280" type="qcurve"/>
      <point x="90" y="295"/>
      <point x="61" y="357"/>
      <point x="61" y="372" type="qcurve" smooth="yes"/>
      <point x="61" y="414"/>
      <point x="74" y="440" type="qcurve" smooth="yes"/>
      <point x="94" y="480"/>
      <point x="150" y="505" type="qcurve" smooth="yes"/>
      <point x="200" y="527"/>
      <point x="257" y="529" type="qcurve" smooth="yes"/>
      <point x="336" y="532" type="line"/>
      <point x="363" y="740" type="line"/>
      <point x="497" y="740" type="line"/>
      <point x="469" y="530" type="line"/>
      <point x="509" y="527"/>
      <point x="591" y="517" type="qcurve"/>
      <point x="637" y="509"/>
      <point x="699" y="428"/>
    </contour>
    <contour>
      <point x="569" y="388" type="qcurve" smooth="yes"/>
      <point x="569" y="423"/>
      <point x="548" y="452" type="qcurve" smooth="yes"/>
      <point x="524" y="485"/>
      <point x="485" y="483" type="qcurve" smooth="yes"/>
      <point x="458" y="482" type="line"/>
      <point x="429" y="283" type="line"/>
      <point x="479" y="283" type="line" smooth="yes"/>
      <point x="507" y="283"/>
      <point x="569" y="363"/>
    </contour>
    <contour>
      <point x="325" y="478" type="line"/>
      <point x="281" y="482"/>
      <point x="258" y="476" type="qcurve"/>
      <point x="188" y="460"/>
      <point x="188" y="357" type="qcurve" smooth="yes"/>
      <point x="188" y="324"/>
      <point x="227" y="281"/>
      <point x="260" y="278" type="qcurve"/>
      <point x="301" y="278" type="line"/>
    </contour>
    <contour>
      <point x="626" y="79" type="qcurve" smooth="yes"/>
      <point x="626" y="51"/>
      <point x="588" y="0"/>
      <point x="566" y="0" type="qcurve" smooth="yes"/>
      <point x="359" y="0" type="line"/>
      <point x="359" y="154" type="line"/>
      <point x="425" y="158" type="line"/>
      <point x="433.041" y="157.754"/>
      <point x="482" y="166" type="qcurve" smooth="yes"/>
      <point x="528.039" y="173.948"/>
      <point x="539" y="174" type="qcurve" smooth="yes"/>
      <point x="580" y="174.194"/>
      <point x="605" y="137" type="qcurve"/>
      <point x="626" y="108"/>
    </contour>
    <contour>
      <point x="491" y="48" type="qcurve"/>
      <point x="498" y="54"/>
      <point x="497" y="82" type="qcurve"/>
      <point x="497" y="110"/>
      <point x="491" y="118" type="qcurve" smooth="yes"/>
      <point x="473" y="142"/>
      <point x="440" y="142" type="qcurve" smooth="yes"/>
      <point x="411" y="142"/>
      <point x="371" y="93"/>
      <point x="371" y="70" type="qcurve" smooth="yes"/>
      <point x="371" y="57"/>
      <point x="407" y="23"/>
      <point x="428" y="23" type="qcurve" smooth="yes"/>
      <point x="465" y="23"/>
    </contour>
  </outline>
</glyph>
<glyph name="qe-ethi" format="2">
  <advance width="710"/>
  <unicode hex="1245"/>
  <unicode hex="F06F"/>
  <outline>
    <contour>
      <point x="669" y="383" type="qcurve" smooth="yes"/>
      <point x="666" y="333"/>
      <point x="580" y="254"/>
      <point x="510" y="243" type="qcurve" smooth="yes"/>
      <point x="488" y="239"/>
      <point x="391" y="235" type="qcurve"/>
      <point x="362" y="-2" type="line"/>
      <point x="245" y="-1" type="line"/>
      <point x="276" y="237" type="line"/>
      <point x="238" y="239"/>
      <point x="175" y="242" type="qcurve" smooth="yes"/>
      <point x="151" y="243"/>
      <point x="93" y="272"/>
      <point x="77" y="288" type="qcurve" smooth="yes"/>
      <point x="43" y="322"/>
      <point x="43" y="370" type="qcurve" smooth="yes"/>
      <point x="43" y="403"/>
      <point x="59" y="435" type="qcurve" smooth="yes"/>
      <point x="78" y="473"/>
      <point x="151" y="497" type="qcurve" smooth="yes"/>
      <point x="214" y="518"/>
      <point x="261" y="516" type="qcurve"/>
      <point x="298" y="512"/>
      <point x="312" y="513" type="qcurve"/>
      <point x="320" y="571" type="line"/>
      <point x="281" y="574"/>
      <point x="214" y="582" type="qcurve"/>
      <point x="227" y="623"/>
      <point x="227" y="657" type="qcurve" smooth="yes"/>
      <point x="227" y="685"/>
      <point x="219" y="712" type="qcurve"/>
      <point x="307" y="725" type="line" smooth="yes"/>
      <point x="314" y="726"/>
      <point x="320" y="726" type="qcurve" smooth="yes"/>
      <point x="362" y="726"/>
      <point x="362" y="683" type="qcurve" smooth="yes"/>
      <point x="362" y="675"/>
      <point x="360" y="667" type="qcurve" smooth="yes"/>
      <point x="346" y="595" type="line"/>
      <point x="415" y="592"/>
      <point x="444" y="592" type="qcurve"/>
      <point x="436" y="524" type="line"/>
      <point x="469" y="521"/>
      <point x="545" y="510" type="qcurve"/>
      <point x="593" y="502"/>
      <point x="672" y="424"/>
    </contour>
    <contour>
      <point x="546" y="383" type="qcurve" smooth="yes"/>
      <point x="546" y="419"/>
      <point x="527" y="447" type="qcurve" smooth="yes"/>
      <point x="504" y="481"/>
      <point x="465" y="479" type="qcurve"/>
      <point x="431" y="476" type="line"/>
      <point x="399" y="275" type="line"/>
      <point x="465" y="282" type="line"/>
      <point x="493" y="282"/>
      <point x="520" y="321" type="qcurve" smooth="yes"/>
      <point x="546" y="357"/>
    </contour>
    <contour>
      <point x="306" y="473" type="line"/>
      <point x="260" y="479"/>
      <point x="237" y="474" type="qcurve" smooth="yes"/>
      <point x="200" y="465"/>
      <point x="179" y="429" type="qcurve" smooth="yes"/>
      <point x="161" y="397"/>
      <point x="161" y="354" type="qcurve" smooth="yes"/>
      <point x="161" y="331"/>
      <point x="176" y="309" type="qcurve" smooth="yes"/>
      <point x="198" y="279"/>
      <point x="238" y="275" type="qcurve"/>
      <point x="281" y="273" type="line"/>
    </contour>
  </outline>
</glyph>
<glyph name="qo-ethi" format="2">
  <advance width="751"/>
  <unicode hex="1246"/>
  <unicode hex="F070"/>
  <outline>
    <contour>
      <point x="692" y="386" type="qcurve" smooth="yes"/>
      <point x="691" y="328"/>
      <point x="636" y="290" type="qcurve" smooth="yes"/>
      <point x="608" y="271"/>
      <point x="559" y="258" type="qcurve" smooth="yes"/>
      <point x="520" y="248"/>
      <point x="496" y="248" type="qcurve"/>
      <point x="489" y="243"/>
      <point x="417" y="237" type="qcurve"/>
      <point x="398" y="118"/>
      <point x="379" y="-1" type="qcurve"/>
      <point x="260" y="-1" type="line"/>
      <point x="275" y="87"/>
      <point x="297" y="240" type="qcurve"/>
      <point x="220" y="240"/>
      <point x="183" y="253" type="qcurve" smooth="yes"/>
      <point x="141" y="269"/>
      <point x="109" y="296" type="qcurve" smooth="yes"/>
      <point x="64" y="335"/>
      <point x="69" y="378" type="qcurve" smooth="yes"/>
      <point x="82" y="495"/>
      <point x="255" y="521" type="qcurve"/>
      <point x="276" y="523"/>
      <point x="315" y="530" type="qcurve"/>
      <point x="283" y="595"/>
      <point x="283" y="624" type="qcurve" smooth="yes"/>
      <point x="283" y="685"/>
      <point x="344" y="718" type="qcurve" smooth="yes"/>
      <point x="392" y="743"/>
      <point x="456" y="743" type="qcurve" smooth="yes"/>
      <point x="505" y="743"/>
      <point x="576" y="691"/>
      <point x="576" y="652" type="qcurve" smooth="yes"/>
      <point x="576" y="622"/>
      <point x="542" y="581" type="qcurve" smooth="yes"/>
      <point x="518" y="552"/>
      <point x="493" y="524" type="qcurve"/>
      <point x="538" y="513"/>
      <point x="582" y="503" type="qcurve" smooth="yes"/>
      <point x="635" y="490"/>
      <point x="660" y="468" type="qcurve" smooth="yes"/>
      <point x="693" y="439"/>
    </contour>
    <contour>
      <point x="465" y="632" type="qcurve" smooth="yes"/>
      <point x="465" y="695"/>
      <point x="422" y="692" type="qcurve" smooth="yes"/>
      <point x="403" y="690"/>
      <point x="391" y="666" type="qcurve" smooth="yes"/>
      <point x="382" y="647"/>
      <point x="382" y="627" type="qcurve" smooth="yes"/>
      <point x="382" y="592"/>
      <point x="391" y="579" type="qcurve" smooth="yes"/>
      <point x="393" y="576"/>
      <point x="425" y="547" type="qcurve"/>
      <point x="465" y="600"/>
    </contour>
    <contour>
      <point x="568" y="394" type="qcurve" smooth="yes"/>
      <point x="568" y="448"/>
      <point x="528" y="466" type="qcurve" smooth="yes"/>
      <point x="505" y="476"/>
      <point x="451" y="476" type="qcurve"/>
      <point x="445" y="418"/>
      <point x="419" y="280" type="qcurve"/>
      <point x="460" y="277"/>
      <point x="478" y="280" type="qcurve" smooth="yes"/>
      <point x="520" y="286"/>
      <point x="546" y="323" type="qcurve" smooth="yes"/>
      <point x="568" y="355"/>
    </contour>
    <contour>
      <point x="332" y="489" type="qcurve"/>
      <point x="279" y="484" type="line" smooth="yes"/>
      <point x="243" y="480"/>
      <point x="214" y="438" type="qcurve" smooth="yes"/>
      <point x="188" y="400"/>
      <point x="188" y="367" type="qcurve" smooth="yes"/>
      <point x="188" y="341"/>
      <point x="206" y="313" type="qcurve" smooth="yes"/>
      <point x="227" y="279"/>
      <point x="256" y="280" type="qcurve"/>
      <point x="303" y="280" type="line"/>
      <point x="313" y="344"/>
    </contour>
  </outline>
</glyph>
<glyph name="qwa-ethi" format="2">
  <advance width="736"/>
  <unicode hex="1248"/>
  <outline>
    <contour>
      <point x="569" y="388" type="qcurve" smooth="yes"/>
      <point x="569" y="423"/>
      <point x="548" y="452" type="qcurve" smooth="yes"/>
      <point x="524" y="485"/>
      <point x="485" y="483" type="qcurve" smooth="yes"/>
      <point x="458" y="482" type="line"/>
      <point x="429" y="283" type="line"/>
      <point x="479" y="283" type="line"/>
      <point x="507" y="284"/>
      <point x="539" y="325" type="qcurve" smooth="yes"/>
      <point x="569" y="363"/>
    </contour>
    <contour>
      <point x="325" y="478" type="line"/>
      <point x="281" y="482"/>
      <point x="258" y="476" type="qcurve"/>
      <point x="188" y="460"/>
      <point x="188" y="357" type="qcurve" smooth="yes"/>
      <point x="188" y="324"/>
      <point x="227" y="281"/>
      <point x="260" y="278" type="qcurve"/>
      <point x="300" y="278" type="line"/>
    </contour>
    <contour>
      <point x="606" y="98" type="qcurve" smooth="yes"/>
      <point x="606" y="125"/>
      <point x="603" y="133" type="qcurve"/>
      <point x="600" y="145"/>
      <point x="586" y="145" type="qcurve" smooth="yes"/>
      <point x="579" y="145"/>
      <point x="568" y="142" type="qcurve"/>
      <point x="533" y="134"/>
      <point x="533" y="66" type="qcurve" smooth="yes"/>
      <point x="533" y="42"/>
      <point x="536" y="34" type="qcurve"/>
      <point x="541" y="19"/>
      <point x="558" y="19" type="qcurve" smooth="yes"/>
      <point x="577" y="19"/>
      <point x="587" y="32" type="qcurve" smooth="yes"/>
      <point x="606" y="56"/>
    </contour>
    <contour>
      <point x="411" y="150" type="line"/>
      <point x="607" y="177" type="line" smooth="yes"/>
      <point x="615" y="178"/>
      <point x="622" y="178" type="qcurve" smooth="yes"/>
      <point x="683" y="178"/>
      <point x="687" y="102" type="qcurve"/>
      <point x="689" y="42"/>
      <point x="638" y="6" type="qcurve" smooth="yes"/>
      <point x="598" y="-22"/>
      <point x="556" y="-22" type="qcurve" smooth="yes"/>
      <point x="498" y="-22"/>
      <point x="458" y="20"/>
      <point x="458" y="75" type="qcurve" smooth="yes"/>
      <point x="458" y="97"/>
      <point x="460" y="134" type="qcurve"/>
      <point x="408" y="129" type="line"/>
      <point x="393" y="1" type="line"/>
      <point x="260" y="1" type="line"/>
      <point x="290" y="234" type="line"/>
      <point x="214" y="233"/>
      <point x="197" y="238" type="qcurve" smooth="yes"/>
      <point x="125" y="259"/>
      <point x="104" y="280" type="qcurve" smooth="yes"/>
      <point x="89" y="295"/>
      <point x="61" y="357"/>
      <point x="61" y="372" type="qcurve" smooth="yes"/>
      <point x="61" y="414"/>
      <point x="74" y="440" type="qcurve" smooth="yes"/>
      <point x="94" y="480"/>
      <point x="150" y="505" type="qcurve" smooth="yes"/>
      <point x="200" y="527"/>
      <point x="257" y="529" type="qcurve" smooth="yes"/>
      <point x="336" y="532" type="line"/>
      <point x="363" y="740" type="line"/>
      <point x="497" y="740" type="line"/>
      <point x="468" y="530" type="line"/>
      <point x="509" y="527"/>
      <point x="591" y="517" type="qcurve"/>
      <point x="637" y="509"/>
      <point x="699" y="428"/>
      <point x="695" y="384" type="qcurve"/>
      <point x="692" y="333"/>
      <point x="648" y="292" type="qcurve" smooth="yes"/>
      <point x="601" y="248"/>
      <point x="533" y="237" type="qcurve" smooth="yes"/>
      <point x="511" y="233"/>
      <point x="422" y="238" type="qcurve"/>
    </contour>
  </outline>
</glyph>
<glyph name="qwaa-ethi" format="2">
  <advance width="764"/>
  <unicode hex="124B"/>
  <unicode hex="F075"/>
  <outline>
    <contour>
      <point x="531" y="126" type="qcurve"/>
      <point x="531" y="0" type="line"/>
      <point x="396" y="0" type="line"/>
      <point x="397" y="16"/>
      <point x="411" y="84"/>
      <point x="411" y="102" type="qcurve" smooth="yes"/>
      <point x="411" y="128"/>
      <point x="399" y="149" type="qcurve"/>
      <point x="399" y="147"/>
      <point x="281" y="148" type="qcurve"/>
      <point x="280" y="119"/>
      <point x="221" y="60" type="qcurve" smooth="yes"/>
      <point x="189" y="28"/>
      <point x="164" y="29" type="qcurve"/>
      <point x="101" y="29" type="line"/>
      <point x="101" y="37"/>
      <point x="124" y="74"/>
      <point x="126" y="80" type="qcurve"/>
      <point x="131" y="105"/>
      <point x="131" y="153" type="qcurve"/>
      <point x="185" y="161"/>
      <point x="297" y="181" type="qcurve"/>
      <point x="300" y="234" type="line"/>
      <point x="214" y="233"/>
      <point x="197" y="238" type="qcurve" smooth="yes"/>
      <point x="125" y="259"/>
      <point x="104" y="280" type="qcurve" smooth="yes"/>
      <point x="89" y="295"/>
      <point x="61" y="357"/>
      <point x="61" y="372" type="qcurve" smooth="yes"/>
      <point x="61" y="414"/>
      <point x="74" y="440" type="qcurve" smooth="yes"/>
      <point x="94" y="480"/>
      <point x="150" y="505" type="qcurve" smooth="yes"/>
      <point x="200" y="527"/>
      <point x="257" y="529" type="qcurve" smooth="yes"/>
      <point x="346" y="532" type="line"/>
      <point x="373" y="732" type="line"/>
      <point x="498" y="732" type="line"/>
      <point x="468" y="530" type="line"/>
      <point x="509" y="527"/>
      <point x="591" y="517" type="qcurve"/>
      <point x="637" y="509"/>
      <point x="699" y="428"/>
      <point x="695" y="384" type="qcurve"/>
      <point x="692" y="333"/>
      <point x="648" y="292" type="qcurve" smooth="yes"/>
      <point x="601" y="248"/>
      <point x="533" y="237" type="qcurve" smooth="yes"/>
      <point x="511" y="233"/>
      <point x="422" y="238" type="qcurve"/>
      <point x="411" y="175" type="line"/>
      <point x="422" y="175"/>
      <point x="500" y="174"/>
      <point x="513" y="166" type="qcurve"/>
      <point x="532" y="156"/>
    </contour>
    <contour>
      <point x="583" y="381" type="qcurve" smooth="yes"/>
      <point x="583" y="419"/>
      <point x="566" y="451" type="qcurve" smooth="yes"/>
      <point x="544" y="491"/>
      <point x="506" y="488" type="qcurve" smooth="yes"/>
      <point x="460" y="485" type="line"/>
      <point x="429" y="273" type="line"/>
      <point x="485" y="273" type="line"/>
      <point x="513" y="272"/>
      <point x="549" y="315" type="qcurve" smooth="yes"/>
      <point x="583" y="355"/>
    </contour>
    <contour>
      <point x="335" y="478" type="line"/>
      <point x="281" y="482"/>
      <point x="258" y="476" type="qcurve"/>
      <point x="188" y="460"/>
      <point x="188" y="357" type="qcurve" smooth="yes"/>
      <point x="188" y="324"/>
      <point x="227" y="281"/>
      <point x="260" y="278" type="qcurve"/>
      <point x="310" y="278" type="line"/>
    </contour>
  </outline>
</glyph>
<glyph name="qwe-ethi" format="2">
  <advance width="1093"/>
  <unicode hex="124D"/>
  <unicode hex="F074"/>
  <outline>
    <contour>
      <point x="694" y="362" type="line"/>
      <point x="682" y="317"/>
      <point x="596" y="247"/>
      <point x="535" y="237" type="qcurve" smooth="yes"/>
      <point x="513" y="233"/>
      <point x="424" y="238" type="qcurve"/>
      <point x="395" y="1" type="line"/>
      <point x="262" y="1" type="line"/>
      <point x="293" y="234" type="line"/>
      <point x="217" y="233"/>
      <point x="199" y="238" type="qcurve" smooth="yes"/>
      <point x="128" y="259"/>
      <point x="106" y="280" type="qcurve"/>
      <point x="92" y="295"/>
      <point x="64" y="357"/>
      <point x="64" y="372" type="qcurve" smooth="yes"/>
      <point x="64" y="414"/>
      <point x="76" y="440" type="qcurve" smooth="yes"/>
      <point x="96" y="480"/>
      <point x="152" y="505" type="qcurve" smooth="yes"/>
      <point x="202" y="527"/>
      <point x="259" y="529" type="qcurve" smooth="yes"/>
      <point x="338" y="532" type="line"/>
      <point x="365" y="740" type="line"/>
      <point x="500" y="740" type="line"/>
      <point x="471" y="530" type="line"/>
      <point x="511" y="527"/>
      <point x="594" y="517" type="qcurve"/>
      <point x="637" y="510"/>
      <point x="697" y="436"/>
      <point x="698" y="394" type="qcurve"/>
      <point x="713" y="394"/>
      <point x="783" y="395" type="qcurve"/>
      <point x="783" y="521" type="line"/>
      <point x="903" y="524" type="line"/>
      <point x="903" y="394" type="line"/>
      <point x="998" y="394" type="line" smooth="yes"/>
      <point x="1042" y="394"/>
      <point x="1035" y="394" type="qcurve"/>
      <point x="1053" y="393"/>
      <point x="1053" y="386" type="qcurve" smooth="yes"/>
      <point x="1053" y="382"/>
      <point x="1049" y="376" type="qcurve" smooth="yes"/>
      <point x="1031" y="350"/>
      <point x="1019" y="291" type="qcurve" smooth="yes"/>
      <point x="1010" y="242"/>
      <point x="1002" y="242" type="qcurve" smooth="yes"/>
      <point x="955" y="242"/>
      <point x="931" y="258" type="qcurve" smooth="yes"/>
      <point x="893" y="284"/>
      <point x="877" y="362" type="qcurve"/>
    </contour>
    <contour>
      <point x="571" y="388" type="qcurve" smooth="yes"/>
      <point x="571" y="423"/>
      <point x="551" y="452" type="qcurve"/>
      <point x="526" y="485"/>
      <point x="488" y="483" type="qcurve" smooth="yes"/>
      <point x="461" y="482" type="line"/>
      <point x="432" y="283" type="line"/>
      <point x="481" y="283" type="line"/>
      <point x="509" y="284"/>
      <point x="541" y="325" type="qcurve" smooth="yes"/>
      <point x="571" y="363"/>
    </contour>
    <contour>
      <point x="328" y="478" type="line"/>
      <point x="284" y="482"/>
      <point x="261" y="476" type="qcurve"/>
      <point x="191" y="460"/>
      <point x="191" y="357" type="qcurve" smooth="yes"/>
      <point x="191" y="324"/>
      <point x="229" y="281"/>
      <point x="262" y="278" type="qcurve"/>
      <point x="303" y="278" type="line"/>
    </contour>
  </outline>
</glyph>
<glyph name="qhe-ethi" format="2">
  <advance width="774"/>
  <unicode hex="1255"/>
  <unicode hex="F072"/>
  <outline>
    <contour>
      <point x="734" y="383" type="qcurve" smooth="yes"/>
      <point x="730" y="333"/>
      <point x="644" y="254"/>
      <point x="575" y="243" type="qcurve" smooth="yes"/>
      <point x="553" y="239"/>
      <point x="456" y="235" type="qcurve"/>
      <point x="426" y="-2" type="line"/>
      <point x="309" y="-1" type="line"/>
      <point x="340" y="237" type="line"/>
      <point x="302" y="239"/>
      <point x="240" y="242" type="qcurve" smooth="yes"/>
      <point x="216" y="243"/>
      <point x="157" y="272"/>
      <point x="141" y="288" type="qcurve" smooth="yes"/>
      <point x="97" y="332"/>
      <point x="97" y="375" type="qcurve" smooth="yes"/>
      <point x="97" y="402"/>
      <point x="114" y="436" type="qcurve" smooth="yes"/>
      <point x="133" y="474"/>
      <point x="211" y="498" type="qcurve" smooth="yes"/>
      <point x="277" y="518"/>
      <point x="326" y="516" type="qcurve"/>
      <point x="363" y="512"/>
      <point x="376" y="513" type="qcurve"/>
      <point x="381" y="579" type="line"/>
      <point x="344" y="578"/>
      <point x="278" y="582" type="qcurve"/>
      <point x="290" y="618"/>
      <point x="290" y="650" type="qcurve" smooth="yes"/>
      <point x="290" y="679"/>
      <point x="281" y="709" type="qcurve"/>
      <point x="209" y="709"/>
      <point x="199" y="706" type="qcurve"/>
      <point x="178" y="656"/>
      <point x="102" y="656" type="qcurve" smooth="yes"/>
      <point x="65" y="656"/>
      <point x="43" y="667" type="qcurve"/>
      <point x="62" y="698"/>
      <point x="62" y="727" type="qcurve" smooth="yes"/>
      <point x="62" y="761"/>
      <point x="40" y="783" type="qcurve"/>
      <point x="81" y="796"/>
      <point x="110" y="796" type="qcurve" smooth="yes"/>
      <point x="145" y="796"/>
      <point x="169" y="778" type="qcurve" smooth="yes"/>
      <point x="181" y="769"/>
      <point x="204" y="741" type="qcurve"/>
      <point x="453" y="739"/>
      <point x="501" y="743" type="qcurve"/>
      <point x="502" y="760"/>
      <point x="528" y="775" type="qcurve" smooth="yes"/>
      <point x="560" y="793"/>
      <point x="612" y="793" type="qcurve" smooth="yes"/>
      <point x="637" y="793"/>
      <point x="665" y="789" type="qcurve"/>
      <point x="635" y="732"/>
      <point x="635" y="685" type="qcurve" smooth="yes"/>
      <point x="635" y="669"/>
      <point x="638" y="659" type="qcurve"/>
      <point x="616" y="652"/>
      <point x="595" y="652" type="qcurve" smooth="yes"/>
      <point x="522" y="652"/>
      <point x="496" y="709" type="qcurve"/>
      <point x="419" y="709" type="line"/>
      <point x="418" y="667"/>
      <point x="411" y="595" type="qcurve"/>
      <point x="509" y="595" type="line"/>
      <point x="501" y="524" type="line"/>
      <point x="534" y="521"/>
      <point x="609" y="510" type="qcurve" smooth="yes"/>
      <point x="658" y="502"/>
      <point x="737" y="424"/>
    </contour>
    <contour>
      <point x="610" y="383" type="qcurve" smooth="yes"/>
      <point x="610" y="419"/>
      <point x="591" y="447" type="qcurve" smooth="yes"/>
      <point x="568" y="481"/>
      <point x="530" y="479" type="qcurve"/>
      <point x="495" y="476" type="line"/>
      <point x="464" y="275" type="line"/>
      <point x="530" y="282" type="line"/>
      <point x="557" y="282"/>
      <point x="585" y="321" type="qcurve" smooth="yes"/>
      <point x="610" y="357"/>
    </contour>
    <contour>
      <point x="370" y="473" type="line"/>
      <point x="324" y="479"/>
      <point x="301" y="474" type="qcurve" smooth="yes"/>
      <point x="264" y="465"/>
      <point x="244" y="429" type="qcurve" smooth="yes"/>
      <point x="225" y="397"/>
      <point x="225" y="354" type="qcurve" smooth="yes"/>
      <point x="225" y="331"/>
      <point x="241" y="309" type="qcurve" smooth="yes"/>
      <point x="262" y="279"/>
      <point x="302" y="275" type="qcurve"/>
      <point x="346" y="273" type="line"/>
    </contour>
  </outline>
</glyph>
<glyph name="ba-ethi" format="2">
  <advance width="608"/>
  <unicode hex="1260"/>
  <outline>
    <contour>
      <point x="552" y="595" type="qcurve" smooth="yes"/>
      <point x="460" y="0" type="line"/>
      <point x="337" y="0" type="line"/>
      <point x="426" y="631" type="line"/>
      <point x="428" y="636"/>
      <point x="428" y="642" type="qcurve" smooth="yes"/>
      <point x="428" y="666"/>
      <point x="390" y="707"/>
      <point x="366" y="707" type="qcurve" smooth="yes"/>
      <point x="298" y="707"/>
      <point x="263" y="614" type="qcurve" smooth="yes"/>
      <point x="247" y="571"/>
      <point x="229" y="460" type="qcurve" smooth="yes"/>
      <point x="157" y="1" type="line"/>
      <point x="40" y="1" type="line"/>
      <point x="90" y="381" type="line" smooth="yes"/>
      <point x="105" y="496"/>
      <point x="109" y="515" type="qcurve" smooth="yes"/>
      <point x="128" y="607"/>
      <point x="171" y="665" type="qcurve" smooth="yes"/>
      <point x="194" y="697"/>
      <point x="280" y="724" type="qcurve" smooth="yes"/>
      <point x="355" y="747"/>
      <point x="402" y="747" type="qcurve" smooth="yes"/>
      <point x="465" y="747"/>
      <point x="553" y="666"/>
      <point x="553" y="612" type="qcurve" smooth="yes"/>
      <point x="553" y="603"/>
    </contour>
  </outline>
</glyph>
<glyph name="bu-ethi" format="2">
  <advance width="608"/>
  <unicode hex="1261"/>
  <outline>
    <contour>
      <point x="552" y="595" type="qcurve"/>
      <point x="460" y="0" type="line"/>
      <point x="337" y="0" type="line"/>
      <point x="426" y="631" type="line"/>
      <point x="428" y="636"/>
      <point x="428" y="642" type="qcurve" smooth="yes"/>
      <point x="428" y="666"/>
      <point x="390" y="707"/>
      <point x="366" y="707" type="qcurve" smooth="yes"/>
      <point x="298" y="707"/>
      <point x="263" y="614" type="qcurve" smooth="yes"/>
      <point x="247" y="571"/>
      <point x="229" y="460" type="qcurve" smooth="yes"/>
      <point x="157" y="1" type="line"/>
      <point x="40" y="1" type="line"/>
      <point x="90" y="381" type="line" smooth="yes"/>
      <point x="105" y="496"/>
      <point x="109" y="515" type="qcurve" smooth="yes"/>
      <point x="128" y="607"/>
      <point x="171" y="665" type="qcurve" smooth="yes"/>
      <point x="194" y="697"/>
      <point x="280" y="724" type="qcurve" smooth="yes"/>
      <point x="355" y="747"/>
      <point x="402" y="747" type="qcurve" smooth="yes"/>
      <point x="465" y="747"/>
      <point x="553" y="666"/>
      <point x="553" y="612" type="qcurve" smooth="yes"/>
      <point x="553" y="603"/>
    </contour>
    <contour>
      <point x="489" y="284" type="line"/>
      <point x="559" y="283" type="line"/>
      <point x="567" y="284"/>
      <point x="603" y="294" type="qcurve"/>
      <point x="651" y="310"/>
      <point x="690" y="310" type="qcurve" smooth="yes"/>
      <point x="731" y="310"/>
      <point x="731" y="295" type="qcurve" smooth="yes"/>
      <point x="730.865" y="292.086"/>
      <point x="729" y="289" type="qcurve" smooth="yes"/>
      <point x="701.71" y="244.152"/>
      <point x="699" y="238" type="qcurve" smooth="yes"/>
      <point x="681.513" y="199.041"/>
      <point x="685" y="157" type="qcurve" smooth="yes"/>
      <point x="685.666" y="148.985"/>
      <point x="673" y="149" type="qcurve" smooth="yes"/>
      <point x="657" y="149.019"/>
      <point x="609" y="170"/>
      <point x="585" y="195"/>
      <point x="561" y="257" type="qcurve"/>
      <point x="479" y="257" type="line"/>
    </contour>
  </outline>
</glyph>
<glyph name="bi-ethi" format="2">
  <advance width="608"/>
  <unicode hex="1262"/>
  <outline>
    <contour>
      <point x="552" y="595" type="qcurve"/>
      <point x="460" y="0" type="line"/>
      <point x="337" y="0" type="line"/>
      <point x="426" y="631" type="line"/>
      <point x="428" y="636"/>
      <point x="428" y="642" type="qcurve" smooth="yes"/>
      <point x="428" y="666"/>
      <point x="390" y="707"/>
      <point x="366" y="707" type="qcurve" smooth="yes"/>
      <point x="298" y="707"/>
      <point x="263" y="614" type="qcurve" smooth="yes"/>
      <point x="247" y="571"/>
      <point x="229" y="460" type="qcurve" smooth="yes"/>
      <point x="157" y="1" type="line"/>
      <point x="40" y="1" type="line"/>
      <point x="90" y="381" type="line" smooth="yes"/>
      <point x="105" y="496"/>
      <point x="109" y="515" type="qcurve" smooth="yes"/>
      <point x="128" y="607"/>
      <point x="171" y="665" type="qcurve" smooth="yes"/>
      <point x="194" y="697"/>
      <point x="280" y="724" type="qcurve" smooth="yes"/>
      <point x="355" y="747"/>
      <point x="402" y="747" type="qcurve" smooth="yes"/>
      <point x="465" y="747"/>
      <point x="553" y="666"/>
      <point x="553" y="612" type="qcurve" smooth="yes"/>
      <point x="553" y="603"/>
    </contour>
    <contour>
      <point x="443" y="26" type="line"/>
      <point x="513" y="25" type="line"/>
      <point x="548" y="40"/>
      <point x="612" y="65" type="qcurve"/>
      <point x="663" y="81"/>
      <point x="711" y="81" type="qcurve" smooth="yes"/>
      <point x="759" y="81"/>
      <point x="759" y="66" type="qcurve"/>
      <point x="759" y="65"/>
      <point x="707" y="-11"/>
      <point x="708" y="-46" type="qcurve"/>
      <point x="708" y="-62"/>
      <point x="638" y="-62" type="qcurve" smooth="yes"/>
      <point x="568.469" y="-61.5742"/>
      <point x="553" y="-45" type="qcurve" smooth="yes"/>
      <point x="540.456" y="-31.5597"/>
      <point x="509" y="-1" type="qcurve"/>
      <point x="433" y="-1" type="line"/>
    </contour>
  </outline>
</glyph>
<glyph name="baa-ethi" format="2">
  <advance width="555"/>
  <unicode hex="1263"/>
  <unicode hex="F077"/>
  <outline>
    <contour>
      <point x="514" y="595" type="qcurve" smooth="yes"/>
      <point x="423" y="4" type="line"/>
      <point x="300" y="4" type="line"/>
      <point x="388" y="631" type="line"/>
      <point x="390" y="636"/>
      <point x="390" y="642" type="qcurve" smooth="yes"/>
      <point x="390" y="662"/>
      <point x="352" y="691"/>
      <point x="327" y="691" type="qcurve" smooth="yes"/>
      <point x="259" y="691"/>
      <point x="229" y="603" type="qcurve" smooth="yes"/>
      <point x="219" y="574"/>
      <point x="201" y="454" type="qcurve" smooth="yes"/>
      <point x="160" y="185" type="line"/>
      <point x="40" y="182" type="line"/>
      <point x="72" y="425" type="line" smooth="yes"/>
      <point x="86" y="527"/>
      <point x="87" y="534" type="qcurve"/>
      <point x="103" y="601"/>
      <point x="145" y="659" type="qcurve" smooth="yes"/>
      <point x="169" y="691"/>
      <point x="250" y="718" type="qcurve" smooth="yes"/>
      <point x="321" y="741"/>
      <point x="368" y="741" type="qcurve" smooth="yes"/>
      <point x="430" y="741"/>
      <point x="515" y="665"/>
      <point x="515" y="612" type="qcurve" smooth="yes"/>
      <point x="515" y="604"/>
    </contour>
  </outline>
</glyph>
<glyph name="bee-ethi" format="2">
  <advance width="608"/>
  <unicode hex="1264"/>
  <outline>
    <contour>
      <point x="552" y="595" type="qcurve"/>
      <point x="460" y="0" type="line"/>
      <point x="337" y="0" type="line"/>
      <point x="426" y="631" type="line"/>
      <point x="428" y="636"/>
      <point x="428" y="642" type="qcurve" smooth="yes"/>
      <point x="428" y="666"/>
      <point x="390" y="707"/>
      <point x="366" y="707" type="qcurve" smooth="yes"/>
      <point x="298" y="707"/>
      <point x="263" y="614" type="qcurve" smooth="yes"/>
      <point x="247" y="571"/>
      <point x="229" y="460" type="qcurve" smooth="yes"/>
      <point x="157" y="1" type="line"/>
      <point x="40" y="1" type="line"/>
      <point x="90" y="381" type="line" smooth="yes"/>
      <point x="105" y="496"/>
      <point x="109" y="515" type="qcurve" smooth="yes"/>
      <point x="128" y="607"/>
      <point x="171" y="665" type="qcurve" smooth="yes"/>
      <point x="194" y="697"/>
      <point x="280" y="724" type="qcurve" smooth="yes"/>
      <point x="355" y="747"/>
      <point x="402" y="747" type="qcurve" smooth="yes"/>
      <point x="465" y="747"/>
      <point x="553" y="666"/>
      <point x="553" y="612" type="qcurve" smooth="yes"/>
      <point x="553" y="603"/>
    </contour>
    <contour>
      <point x="707" y="79" type="qcurve" smooth="yes"/>
      <point x="707" y="51"/>
      <point x="668" y="0"/>
      <point x="646" y="0" type="qcurve" smooth="yes"/>
      <point x="439" y="0" type="line"/>
      <point x="439" y="154" type="line"/>
      <point x="505" y="158" type="line"/>
      <point x="513.041" y="157.754"/>
      <point x="562" y="166" type="qcurve" smooth="yes"/>
      <point x="608.039" y="173.948"/>
      <point x="619" y="174" type="qcurve" smooth="yes"/>
      <point x="659.727" y="174.002"/>
      <point x="686" y="137" type="qcurve" smooth="yes"/>
      <point x="706.729" y="107.806"/>
    </contour>
    <contour>
      <point x="571" y="48" type="qcurve"/>
      <point x="578" y="54"/>
      <point x="577" y="82" type="qcurve"/>
      <point x="577" y="110"/>
      <point x="571" y="118" type="qcurve" smooth="yes"/>
      <point x="553" y="142"/>
      <point x="520" y="142" type="qcurve" smooth="yes"/>
      <point x="491" y="142"/>
      <point x="451" y="93"/>
      <point x="451" y="70" type="qcurve" smooth="yes"/>
      <point x="451" y="57"/>
      <point x="487" y="23"/>
      <point x="508" y="23" type="qcurve" smooth="yes"/>
      <point x="546" y="23"/>
    </contour>
  </outline>
</glyph>
<glyph name="be-ethi" format="2">
  <advance width="785"/>
  <unicode hex="1265"/>
  <outline>
    <contour>
      <point x="308" y="502" type="line"/>
      <point x="219" y="502" type="line"/>
      <point x="205" y="469"/>
      <point x="191" y="436" type="qcurve"/>
      <point x="160" y="379"/>
      <point x="91" y="379" type="qcurve" smooth="yes"/>
      <point x="40" y="379"/>
      <point x="40" y="397" type="qcurve" smooth="yes"/>
      <point x="40" y="406"/>
      <point x="47" y="416" type="qcurve" smooth="yes"/>
      <point x="65" y="443"/>
      <point x="65" y="486" type="qcurve" smooth="yes"/>
      <point x="65" y="510"/>
      <point x="57" y="527" type="qcurve"/>
      <point x="308" y="527" type="line"/>
    </contour>
    <contour>
      <point x="743" y="595" type="qcurve"/>
      <point x="653" y="4" type="line"/>
      <point x="530" y="4" type="line"/>
      <point x="618" y="631" type="line" smooth="yes"/>
      <point x="619" y="637"/>
      <point x="619" y="644" type="qcurve" smooth="yes"/>
      <point x="619" y="669"/>
      <point x="585" y="712"/>
      <point x="562" y="712" type="qcurve" smooth="yes"/>
      <point x="491" y="712"/>
      <point x="456" y="636" type="qcurve" smooth="yes"/>
      <point x="432" y="584"/>
      <point x="416" y="460" type="qcurve" smooth="yes"/>
      <point x="354" y="-2" type="line"/>
      <point x="231" y="1" type="line"/>
      <point x="281" y="381" type="line"/>
      <point x="289" y="449"/>
      <point x="297" y="517" type="qcurve"/>
      <point x="315" y="611"/>
      <point x="362" y="665" type="qcurve" smooth="yes"/>
      <point x="398" y="706"/>
      <point x="477" y="732" type="qcurve" smooth="yes"/>
      <point x="541" y="753"/>
      <point x="591" y="753" type="qcurve" smooth="yes"/>
      <point x="654" y="753"/>
      <point x="745" y="666"/>
      <point x="745" y="611" type="qcurve" smooth="yes"/>
      <point x="745" y="603"/>
    </contour>
  </outline>
</glyph>
